<svg width="57" height="53" viewBox="0 0 57 53" fill="none" xmlns="http://www.w3.org/2000/svg">
<path d="M1.49037 35.8097C3.09155 38.78 5.99066 41.2113 9.23237 42.6566C10.7358 43.3164 12.2858 43.809 13.9214 43.995C15.4553 44.1827 17.0903 44.008 18.5843 43.7339C19.2961 43.6021 19.9921 43.4057 20.6568 43.2007C21.5092 42.9278 22.3616 42.6549 23.1669 42.3088C24.7071 41.6271 25.9179 40.4328 26.8468 39.1598C27.8304 37.812 28.5242 36.2932 29.0537 34.7586C29.6298 33.0567 30.0727 31.2276 30.1714 29.4225C30.2543 27.553 29.7502 25.6098 28.3081 24.1259C27.0462 22.8425 25.1986 22.2068 23.4074 22.5782C21.7962 22.9097 20.4286 23.9401 19.6092 25.1835C18.7195 26.5575 18.5658 28.197 19.0302 29.7986C20.0139 33.1675 23.3909 35.9423 26.7501 37.4505C28.4884 38.2359 30.4297 38.7776 32.3545 38.7739C34.4201 38.7495 36.2655 38.0627 37.7814 36.8634C39.391 35.5701 40.6322 33.9037 41.8189 32.3121C43.107 30.5986 44.3089 28.831 45.3621 26.9919C47.492 23.3503 49.2146 19.4748 50.4989 15.4771C50.8102 14.4824 51.0824 13.5069 51.331 12.4948C51.5486 11.5942 49.983 11.1573 49.7654 12.0579C47.8535 19.6358 44.2819 26.7506 39.3161 32.9356C38.2308 34.285 37.0518 35.7285 35.4336 36.5688C34.0108 37.3134 32.3132 37.4706 30.6696 37.1922C28.9321 36.8877 27.2644 36.212 25.7919 35.3205C24.3743 34.4743 23.0188 33.4051 22.023 32.1358C21.0507 30.9032 20.3676 29.4809 20.3807 27.9824C20.3865 26.7523 21.1199 25.575 22.1201 24.7726C23.1047 24.0259 24.3873 23.6628 25.6242 24.068C27.1665 24.5885 28.0688 26.072 28.3919 27.4539C28.8096 29.2228 28.3198 31.099 27.9158 32.7888C27.5661 34.1632 27.052 35.5219 26.3891 36.809C25.7026 38.0594 24.8596 39.2662 23.6876 40.201C22.5624 41.0887 21.0608 41.5109 19.6532 41.9593C18.3237 42.3694 16.9235 42.5495 15.4917 42.6006C14.1539 42.678 12.972 42.4383 11.6647 42.0435C8.77601 41.1473 6.00316 39.3522 4.14492 37.0612C3.64312 36.4405 3.24303 35.8181 2.85849 35.14C2.65445 34.7826 2.11437 34.662 1.76257 34.8342C1.37168 35.0256 1.28633 35.4524 1.49037 35.8097Z" fill="#F29D10"/>
<path d="M38.8126 22.0401C41.3432 19.3815 44.1167 16.9409 47.0783 14.6729C47.805 14.1246 48.5709 13.5572 49.3211 13.0456C49.6103 12.8559 49.9228 12.5826 50.2904 12.4748C50.5484 12.3966 50.5955 12.4699 50.6976 12.7087C50.8704 13.0573 50.9727 13.4163 51.075 13.7753C51.2244 14.2075 51.3347 14.6589 51.445 15.1103C51.6812 15.9573 51.8469 16.8146 51.9736 17.6912C52.2429 19.6289 52.301 21.5979 52.1399 23.5057C52.1014 23.8855 52.5715 24.257 52.9784 24.2503C53.4478 24.2612 53.7368 23.9513 53.7518 23.5349C53.9051 21.6549 53.8627 19.7505 53.5857 17.8406C53.451 16.8717 53.285 15.8941 53.0409 14.9547C52.8125 14.0799 52.5997 13.1493 52.2227 12.3231C51.8065 11.3958 50.9291 10.7905 49.8498 11.0301C48.8721 11.268 48.0596 12.0026 47.3016 12.5421C45.6527 13.7344 44.0508 14.9998 42.5351 16.3193C40.8398 17.799 39.1992 19.324 37.6684 20.9397C37.3872 21.2217 37.3645 21.666 37.6858 21.966C37.968 22.2851 38.5627 22.3308 38.8126 22.0401Z" fill="#F29D10"/>
</svg>
