<svg width="59" height="73" viewBox="0 0 59 73" fill="none" xmlns="http://www.w3.org/2000/svg">
<path d="M24.0505 1.72942C20.8184 3.97313 17.9289 7.88954 15.9779 12.2057C15.0837 14.2068 14.3503 16.2608 13.9121 18.4115C13.4878 20.4292 13.4123 22.5613 13.4584 24.5039C13.4816 25.4293 13.5721 26.3309 13.6761 27.1911C13.8195 28.2936 13.9629 29.3962 14.1872 30.4335C14.636 32.4164 15.6507 33.9424 16.7877 35.0957C17.9917 36.3167 19.412 37.1498 20.8735 37.767C22.4959 38.437 24.2668 38.9263 26.0663 38.966C27.9331 38.9819 29.9641 38.2256 31.6775 36.2637C33.1616 34.5479 34.0845 32.0972 33.9862 29.7704C33.9004 27.6772 33.0746 25.9377 31.9504 24.9264C30.7057 23.8297 29.0811 23.7096 27.3996 24.397C23.8616 25.852 20.5533 30.4112 18.5211 34.8842C17.4644 37.1992 16.6216 39.7679 16.3297 42.2879C16.037 44.9913 16.444 47.3735 17.4168 49.2988C18.4698 51.3423 19.9545 52.8849 21.3723 54.3597C22.8971 55.9613 24.4894 57.4475 26.1766 58.7353C29.5105 61.3436 33.1421 63.407 36.9639 64.8903C37.916 65.2486 38.8549 65.5567 39.8343 65.8321C40.7063 66.0723 41.386 64.0008 40.5139 63.7606C33.1893 61.6327 26.5851 57.309 21.1299 51.1137C19.9399 49.7595 18.6698 48.2873 18.0736 46.2102C17.5436 44.3842 17.6463 42.1692 18.1786 40.0034C18.7517 37.7133 19.6871 35.4962 20.8096 33.5241C21.8781 31.626 23.1612 29.7983 24.5902 28.4315C25.9787 27.0973 27.5136 26.1324 29.018 26.0753C30.2538 26.0219 31.3247 26.9239 31.9778 28.1937C32.5773 29.4458 32.7453 31.1072 32.1479 32.7468C31.3878 34.792 29.7578 36.0469 28.3188 36.5385C26.4763 37.173 24.6654 36.6248 23.0286 36.1795C21.7005 35.7897 20.4136 35.1839 19.2215 34.3797C18.0697 33.543 16.986 32.499 16.2263 31.0107C15.5067 29.5814 15.3129 27.6363 15.0783 25.8155C14.8702 24.0951 14.9042 22.2707 15.0727 20.3985C15.2005 18.6507 15.623 17.0913 16.2207 15.36C17.5654 11.5333 19.796 7.81377 22.3847 5.26716C23.0858 4.57936 23.7729 4.02466 24.5137 3.48756C24.9043 3.2027 25.1086 2.48957 24.9895 2.03747C24.8571 1.53515 24.4411 1.44456 24.0505 1.72942Z" fill="#FF8C00"/>
<path d="M32.1609 49.9146C34.445 53.0962 36.4726 56.6067 38.2978 60.372C38.7374 61.2964 39.1902 62.271 39.5893 63.228C39.7356 63.5972 39.9623 63.9928 40.0142 64.4688C40.0532 64.8028 39.9723 64.8681 39.7166 65.0136C39.3396 65.257 38.9629 65.4088 38.5863 65.5606C38.1288 65.7776 37.6581 65.9444 37.1873 66.1112C36.2996 66.4624 35.4121 66.7219 34.5115 66.9312C32.522 67.3799 30.5336 67.5535 28.6404 67.4372C28.2645 67.4056 27.8188 68.0395 27.7629 68.5719C27.6799 69.1871 27.9471 69.5502 28.3635 69.5491C30.2299 69.6566 32.151 69.5068 34.1137 69.0494C35.1084 68.825 36.1167 68.5593 37.0986 68.1931C38.0132 67.8507 38.9815 67.5259 39.87 66.9913C40.8661 66.4004 41.6094 65.2216 41.5344 63.8203C41.4453 62.552 40.8316 61.5246 40.4056 60.5588C39.4603 58.4589 38.4342 56.4242 37.3404 54.5051C36.1133 52.3586 34.8321 50.2862 33.4429 48.3619C33.2026 48.0077 32.7594 47.9999 32.4085 48.4355C32.0444 48.8208 31.907 49.6018 32.1609 49.9146Z" fill="#FF8C00"/>
</svg>
