<svg width="375" height="365" viewBox="0 0 375 365" fill="none" xmlns="http://www.w3.org/2000/svg">
<g opacity="0.9">
<path d="M318.286 61.5236C319.509 61.5236 320.5 62.5265 320.5 63.7633C320.5 62.5265 321.492 61.5236 322.714 61.5236C321.492 61.5236 320.5 60.5206 320.5 59.2839C320.5 60.5206 319.509 61.5236 318.286 61.5236Z" fill="#F9F5F0"/>
<path d="M-0.0288086 74.3345C1.19366 74.3345 2.185 75.3365 2.185 76.5742C2.185 75.3365 3.17572 74.3345 4.3989 74.3345C3.17572 74.3345 2.185 73.3316 2.185 72.0948C2.185 73.3316 1.19366 74.3345 -0.0288086 74.3345" fill="#F9F5F0"/>
<path d="M372.572 53.6579C373.794 53.6579 374.787 54.6608 374.787 55.8976C374.787 54.6608 375.777 53.6579 377 53.6579C375.777 53.6579 374.787 52.6549 374.787 51.4182C374.787 52.6549 373.794 53.6579 372.572 53.6579Z" fill="#F9F5F0"/>
<path d="M261.573 51.4182C262.795 51.4182 263.787 52.4212 263.787 53.658C263.787 52.4212 264.777 51.4182 266.001 51.4182C264.777 51.4182 263.787 50.4162 263.787 49.1785C263.787 50.4162 262.795 51.4182 261.573 51.4182Z" fill="#F9F5F0"/>
<path d="M360.062 10.7097C361.284 10.7097 362.276 11.7126 362.276 12.9503C362.276 11.7126 363.267 10.7097 364.49 10.7097C363.267 10.7097 362.276 9.70765 362.276 8.46998C362.276 9.70765 361.284 10.7097 360.062 10.7097Z" fill="#F9F5F0"/>
<path d="M49.064 45.182C50.2874 45.182 51.278 46.185 51.278 47.4218C51.278 46.185 52.2694 45.182 53.4919 45.182C52.2694 45.182 51.278 44.1791 51.278 42.9423C51.278 44.1791 50.2874 45.182 49.064 45.182Z" fill="#F9F5F0"/>
<path d="M246.168 78.8139C247.392 78.8139 248.382 79.816 248.382 81.0527C248.382 79.816 249.374 78.8139 250.597 78.8139C249.374 78.8139 248.382 77.811 248.382 76.5742C248.382 77.811 247.392 78.8139 246.168 78.8139Z" fill="#F9F5F0"/>
<path d="M163.178 85.4934C164.401 85.4934 165.392 86.4964 165.392 87.7332C165.392 86.4964 166.383 85.4934 167.606 85.4934C166.383 85.4934 165.392 84.4914 165.392 83.2537C165.392 84.4914 164.401 85.4934 163.178 85.4934Z" fill="#F9F5F0"/>
<path d="M57.7329 101.115C58.9564 101.115 59.9469 102.117 59.9469 103.354C59.9469 102.117 60.9383 101.115 62.1609 101.115C60.9383 101.115 59.9469 100.112 59.9469 98.8748C59.9469 100.112 58.9564 101.115 57.7329 101.115Z" fill="#F9F5F0"/>
<path d="M239.778 139.03C241.001 139.03 241.992 140.033 241.992 141.27C241.992 140.033 242.983 139.03 244.206 139.03C242.983 139.03 241.992 138.028 241.992 136.79C241.992 138.028 241.001 139.03 239.778 139.03Z" fill="#F9F5F0"/>
<path d="M205.645 89.6044C206.868 89.6044 207.859 90.6073 207.859 91.8441C207.859 90.6073 208.85 89.6044 210.072 89.6044C208.85 89.6044 207.859 88.6023 207.859 87.3647C207.859 88.6023 206.868 89.6044 205.645 89.6044Z" fill="#F9F5F0"/>
<path d="M194.267 8.35708C195.49 8.35708 196.481 9.36004 196.481 10.5968C196.481 9.36004 197.472 8.35708 198.695 8.35708C197.472 8.35708 196.481 7.35502 196.481 6.11735C196.481 7.35502 195.49 8.35708 194.267 8.35708Z" fill="#F9F5F0"/>
<path d="M244.463 21.8983C245.686 21.8983 246.677 22.9013 246.677 24.1381C246.677 22.9013 247.668 21.8983 248.891 21.8983C247.668 21.8983 246.677 20.8963 246.677 19.6586C246.677 20.8963 245.686 21.8983 244.463 21.8983Z" fill="#F9F5F0"/>
<path d="M223.045 25.9606C224.269 25.9606 225.259 26.9636 225.259 28.2003C225.259 26.9636 226.251 25.9606 227.473 25.9606C226.251 25.9606 225.259 24.9585 225.259 23.7209C225.259 24.9585 224.269 25.9606 223.045 25.9606Z" fill="#F9F5F0"/>
<path d="M185.566 44.9184C186.789 44.9184 187.78 45.9213 187.78 47.1581C187.78 45.9213 188.771 44.9184 189.994 44.9184C188.771 44.9184 187.78 43.9163 187.78 42.6786C187.78 43.9163 186.789 44.9184 185.566 44.9184Z" fill="#F9F5F0"/>
<path d="M312.171 17.3303C313.394 17.3303 314.384 18.3324 314.384 19.5701C314.384 18.3324 315.377 17.3303 316.599 17.3303C315.377 17.3303 314.384 16.3274 314.384 15.0906C314.384 16.3274 313.394 17.3303 312.171 17.3303Z" fill="#F9F5F0"/>
<path d="M10.4155 -1.15892C11.6384 -1.15892 12.6293 -0.156859 12.6293 1.08081C12.6293 -0.156859 13.6208 -1.15892 14.8436 -1.15892C13.6208 -1.15892 12.6293 -2.16188 12.6293 -3.39864C12.6293 -2.16188 11.6384 -1.15892 10.4155 -1.15892Z" fill="#F9F5F0"/>
<path d="M97.1074 63.7633C98.33 63.7633 99.3214 64.7662 99.3214 66.0039C99.3214 64.7662 100.313 63.7633 101.535 63.7633C100.313 63.7633 99.3214 62.7612 99.3214 61.5236C99.3214 62.7612 98.33 63.7633 97.1074 63.7633Z" fill="#F9F5F0"/>
<path d="M43.7141 96.6802C42.4909 96.6802 41.4999 95.6772 41.4999 94.4405C41.4999 95.6772 40.5088 96.6802 39.2856 96.6802C40.5088 96.6802 41.4999 97.6823 41.4999 98.9199C41.4999 97.6823 42.4909 96.6802 43.7141 96.6802Z" fill="#F9F5F0"/>
<path d="M114.822 109.882C113.599 109.882 112.608 108.879 112.608 107.642C112.608 108.879 111.617 109.882 110.394 109.882C111.617 109.882 112.608 110.885 112.608 112.122C112.608 110.885 113.599 109.882 114.822 109.882Z" fill="#F9F5F0"/>
<path d="M84.2029 168.992C82.9803 168.992 81.9889 167.989 81.9889 166.752C81.9889 167.989 80.9975 168.992 79.7749 168.992C80.9975 168.992 81.9889 169.994 81.9889 171.232C81.9889 169.994 82.9803 168.992 84.2029 168.992Z" fill="#F9F5F0"/>
<path d="M1.93881 147.493C0.715983 147.493 -0.275447 146.491 -0.275447 145.254C-0.275447 146.491 -1.26643 147.493 -2.48926 147.493C-1.26643 147.493 -0.275447 148.496 -0.275447 149.734C-0.275447 148.496 0.715983 147.493 1.93881 147.493Z" fill="#F9F5F0"/>
<path d="M373.776 94.4404C372.553 94.4404 371.563 93.4375 371.563 92.1998C371.563 93.4375 370.57 94.4404 369.348 94.4404C370.57 94.4404 371.563 95.4425 371.563 96.6802C371.563 95.4425 372.553 94.4404 373.776 94.4404Z" fill="#F9F5F0"/>
<path d="M277.385 145.254C276.162 145.254 275.171 144.251 275.171 143.014C275.171 144.251 274.181 145.254 272.957 145.254C274.181 145.254 275.171 146.257 275.171 147.493C275.171 146.257 276.162 145.254 277.385 145.254Z" fill="#F9F5F0"/>
<path d="M304.917 112.122C303.695 112.122 302.703 111.119 302.703 109.882C302.703 111.119 301.712 112.122 300.489 112.122C301.712 112.122 302.703 113.125 302.703 114.361C302.703 113.125 303.695 112.122 304.917 112.122Z" fill="#F9F5F0"/>
<path d="M340.584 125.827C339.361 125.827 338.37 124.825 338.37 123.588C338.37 124.825 337.378 125.827 336.156 125.827C337.378 125.827 338.37 126.83 338.37 128.068C338.37 126.83 339.361 125.827 340.584 125.827Z" fill="#F9F5F0"/>
<path d="M338.37 157.182C337.147 157.182 336.156 156.179 336.156 154.942C336.156 156.179 335.164 157.182 333.942 157.182C335.164 157.182 336.156 158.184 336.156 159.421C336.156 158.184 337.147 157.182 338.37 157.182Z" fill="#F9F5F0"/>
<path d="M255.025 178.655C253.803 178.655 252.81 177.653 252.81 176.416C252.81 177.653 251.82 178.655 250.597 178.655C251.82 178.655 252.81 179.659 252.81 180.896C252.81 179.659 253.803 178.655 255.025 178.655Z" fill="#F9F5F0"/>
<path d="M194.395 168.992C193.171 168.992 192.181 167.989 192.181 166.752C192.181 167.989 191.19 168.992 189.966 168.992C191.19 168.992 192.181 169.994 192.181 171.232C192.181 169.994 193.171 168.992 194.395 168.992Z" fill="#F9F5F0"/>
<path d="M49.8293 140.873C48.6068 140.873 47.6154 139.87 47.6154 138.634C47.6154 139.87 46.6239 140.873 45.4014 140.873C46.6239 140.873 47.6154 141.876 47.6154 143.113C47.6154 141.876 48.6068 140.873 49.8293 140.873Z" fill="#F9F5F0"/>
<path d="M140.354 149.734C139.131 149.734 138.14 148.731 138.14 147.493C138.14 148.731 137.148 149.734 135.926 149.734C137.148 149.734 138.14 150.736 138.14 151.974C138.14 150.736 139.131 149.734 140.354 149.734Z" fill="#F9F5F0"/>
<path d="M182.672 120.178C181.45 120.178 180.458 119.175 180.458 117.938C180.458 119.175 179.467 120.178 178.244 120.178C179.467 120.178 180.458 121.181 180.458 122.418C180.458 121.181 181.45 120.178 182.672 120.178Z" fill="#F9F5F0"/>
<path d="M377 174.176C375.777 174.176 374.787 173.174 374.787 171.937C374.787 173.174 373.794 174.176 372.572 174.176C373.794 174.176 374.787 175.18 374.787 176.416C374.787 175.18 375.777 174.176 377 174.176Z" fill="#F9F5F0"/>
<path d="M275.172 82.2606C273.949 82.2606 272.957 81.2577 272.957 80.0209C272.957 81.2577 271.966 82.2606 270.744 82.2606C271.966 82.2606 272.957 83.2636 272.957 84.5004C272.957 83.2636 273.949 82.2606 275.172 82.2606Z" fill="#F9F5F0"/>
<path d="M163.314 13.7229C164.537 13.7229 165.528 14.7259 165.528 15.9626C165.528 14.7259 166.52 13.7229 167.742 13.7229C166.52 13.7229 165.528 12.72 165.528 11.4832C165.528 12.72 164.537 13.7229 163.314 13.7229Z" fill="#F9F5F0"/>
<path d="M106.601 3.61757C107.824 3.61757 108.815 4.62053 108.815 5.8573C108.815 4.62053 109.806 3.61757 111.029 3.61757C109.806 3.61757 108.815 2.61552 108.815 1.37785C108.815 2.61552 107.824 3.61757 106.601 3.61757Z" fill="#F9F5F0"/>
<path d="M91.1973 31.0133C92.4207 31.0133 93.4112 32.0153 93.4112 33.2521C93.4112 32.0153 94.4027 31.0133 95.6261 31.0133C94.4027 31.0133 93.4112 30.0103 93.4112 28.7735C93.4112 30.0103 92.4207 31.0133 91.1973 31.0133Z" fill="#F9F5F0"/>
<path d="M149.946 64.3211C148.723 64.3211 147.732 63.3181 147.732 62.0813C147.732 63.3181 146.74 64.3211 145.518 64.3211C146.74 64.3211 147.732 65.324 147.732 66.5608C147.732 65.324 148.723 64.3211 149.946 64.3211Z" fill="#F9F5F0"/>
<path d="M120.2 34.46C118.977 34.46 117.985 33.457 117.985 32.2203C117.985 33.457 116.995 34.46 115.772 34.46C116.995 34.46 117.985 35.4629 117.985 36.6997C117.985 35.4629 118.977 34.46 120.2 34.46Z" fill="#F9F5F0"/>
<path opacity="0.9" d="M313.134 157.974L313.733 158.979C314.404 160.106 315.38 161.017 316.546 161.6L317.585 162.12L316.591 162.725C315.476 163.404 314.577 164.392 314 165.572L313.487 166.623L312.889 165.618C312.219 164.491 311.241 163.58 310.075 162.997L309.037 162.477L310.029 161.871C311.145 161.193 312.044 160.205 312.621 159.025L313.134 157.974" fill="#F9F5F0"/>
<path opacity="0.9" d="M351.493 40.249L352.092 41.2544C352.764 42.3816 353.739 43.2923 354.905 43.8755L355.945 44.3951L354.951 45C353.835 45.6793 352.936 46.6671 352.36 47.847L351.846 48.8984L351.248 47.893C350.578 46.7658 349.6 45.8552 348.434 45.272L347.396 44.7523L348.388 44.1461C349.504 43.4682 350.403 42.4804 350.981 41.3004L351.493 40.249" fill="#F9F5F0"/>
<path opacity="0.9" d="M57.4931 1.68396L58.0923 2.68938C58.7638 3.81656 59.7389 4.72722 60.9053 5.31043L61.9447 5.83006L60.9508 6.43492C59.8353 7.1142 58.9364 8.10201 58.3599 9.28197L57.8462 10.3334L57.2483 9.32795C56.5781 8.20077 55.6004 7.29011 54.434 6.7069L53.396 6.18728L54.3885 5.58106C55.5041 4.90313 56.4029 3.91532 56.9808 2.73537L57.4931 1.68396" fill="#F9F5F0"/>
<path opacity="0.7" d="M104.451 316.293L105.05 317.299C105.722 318.426 106.697 319.337 107.863 319.92L108.903 320.439L107.909 321.044C106.793 321.724 105.894 322.711 105.318 323.891L104.804 324.943L104.206 323.937C103.536 322.81 102.558 321.899 101.392 321.316L100.354 320.797L101.347 320.19C102.462 319.513 103.361 318.525 103.939 317.345L104.451 316.293Z" fill="#F9F5F0"/>
<path opacity="0.6" d="M28.9096 355.873L29.5088 356.879C30.1803 358.006 31.1554 358.917 32.3218 359.5L33.3612 360.019L32.3673 360.624C31.2518 361.304 30.3529 362.291 29.7764 363.471L29.2627 364.523L28.6648 363.517C27.9947 362.39 27.0169 361.479 25.8505 360.896L24.8125 360.377L25.805 359.77C26.9206 359.092 27.8194 358.105 28.3973 356.925L28.9096 355.873" fill="#F9F5F0"/>
<path opacity="0.6" d="M161.618 235.104L162.217 236.109C162.889 237.236 163.864 238.147 165.03 238.73L166.07 239.25L165.076 239.855C163.96 240.534 163.061 241.522 162.485 242.702L161.971 243.753L161.373 242.748C160.703 241.621 159.725 240.71 158.559 240.127L157.521 239.607L158.513 239.001C159.629 238.323 160.528 237.335 161.106 236.155L161.618 235.104" fill="#F9F5F0"/>
<path opacity="0.9" d="M87.0971 86.933L87.6963 87.9384C88.3678 89.0656 89.3429 89.9762 90.5093 90.5595L91.5487 91.0791L90.5548 91.6839C89.4393 92.3632 88.5404 93.351 87.9639 94.531L87.4502 95.5824L86.8523 94.577C86.1822 93.4498 85.2044 92.5391 84.038 91.9559L83 91.4363L83.9925 90.8301C85.1081 90.1522 86.0069 89.1643 86.5848 87.9844L87.0971 86.933" fill="#F9F5F0"/>
<path opacity="0.9" d="M49.2895 195.524L49.8874 196.528C50.5589 197.657 51.5353 198.566 52.7017 199.149L53.741 199.669L52.7472 200.274C51.6316 200.951 50.7328 201.941 50.1563 203.121L49.6426 204.172L49.0447 203.167C48.3732 202.039 47.3968 201.129 46.2304 200.546L45.1924 200.026L46.1849 199.42C47.3004 198.742 48.1993 197.754 48.7758 196.574L49.2895 195.524" fill="#F9F5F0"/>
</g>
</svg>
