<svg width="87" height="90" viewBox="0 0 87 90" fill="none" xmlns="http://www.w3.org/2000/svg">
<path d="M76.5529 62.6127C76.0569 63.0649 75.4872 63.2907 74.8439 63.29" stroke="#EDB247" stroke-width="2"/>
<path d="M74.8437 63.2901C74.7446 63.5921 74.6384 63.9024 74.5251 64.2213C74.411 64.5416 74.3256 64.8582 74.269 65.171C73.7682 67.95 73.2743 70.7303 72.7873 73.5118C72.4816 75.2516 71.4611 72.2077 71.368 71.9342C71.3508 71.8823 71.3142 71.8377 71.2659 71.8096C71.0938 71.7052 71.0029 71.5428 70.993 71.3223C70.9925 71.3077 70.9852 71.2846 70.9718 71.2554C70.9584 71.2262 70.9393 71.1919 70.9164 71.1558C70.1216 69.9051 69.6622 69.1494 69.5382 68.8887C69.382 68.5641 69.3061 68.1394 69.0193 67.7466C68.789 67.4318 68.6012 67.0907 68.4559 66.7231C68.4336 66.6667 68.3997 66.6174 68.3542 66.5753C67.9154 66.1705 67.8019 65.6276 67.498 65.2128C67.2005 64.8057 66.9132 64.3886 66.6362 63.9615C66.0002 62.9841 64.6721 62.6237 63.7623 62.0813C62.0748 61.0738 60.0533 60.0048 57.6979 58.8741C57.5091 58.7841 57.665 58.5178 57.8032 58.451C59.3562 57.7083 60.477 57.2646 61.1656 57.1201C62.3065 56.8811 63.099 56.6456 63.5428 56.4138C64.14 56.1011 64.9442 55.2899 65.6657 54.6758C66.3521 54.0891 66.7572 53.28 66.8811 52.2484C67.0626 50.7254 67.0811 49.2763 66.9365 47.9011C66.9157 47.7005 66.9225 47.42 66.9571 47.0597C67.0281 46.3001 66.9439 45.6602 67.0529 44.7529C67.0811 44.5215 67.0202 44.2791 66.9765 44.053C66.9739 44.0414 66.9737 44.0294 66.9758 44.0178C66.9779 44.0062 66.9823 43.9954 66.9887 43.9859C66.9951 43.9765 67.0033 43.9686 67.0129 43.9629C67.0225 43.9571 67.0331 43.9537 67.0442 43.9527C67.8409 43.879 68.5932 45.4274 69.0214 46.0375C70.0737 47.5341 70.8882 49.2051 71.9935 50.7115C72.9137 51.967 73.7337 54.1601 75.4735 55.1544C76.9031 55.9706 78.3239 56.804 79.736 57.6547C79.9828 57.8031 80.4356 57.9209 80.7767 58.1171C81.2655 58.3972 81.771 58.6339 82.2933 58.8274C82.912 59.0552 83.3972 59.3851 83.9752 59.6767C84.0301 59.704 84.0723 59.7478 84.0927 59.7987C84.2022 60.0752 84.1104 60.2678 83.8172 60.3767C82.5753 60.8411 81.516 61.1792 80.6392 61.3908C80.5307 61.4182 80.5088 61.4726 80.4523 61.5621C80.4206 61.6138 80.3777 61.6518 80.3296 61.6706C79.1059 62.1439 77.8469 62.458 76.5528 62.6128" stroke="#F8DC49" stroke-width="2"/>
<path d="M74.8443 63.2901C74.7099 63.2172 74.6285 63.1418 74.6001 63.064C74.5061 62.8062 76.9272 60.836 76.5533 62.6128" stroke="#F1B236" stroke-width="2"/>
<path d="M71.6923 65.4079C71.655 65.5242 71.4987 65.5877 71.2576 65.5844C71.0166 65.5812 70.7107 65.5114 70.4071 65.3904C70.1035 65.2694 69.8272 65.1072 69.6389 64.9394C69.4506 64.7716 69.3657 64.612 69.403 64.4957C69.4403 64.3793 69.5966 64.3158 69.8376 64.3191C70.0786 64.3224 70.3846 64.3922 70.6882 64.5131C70.9918 64.6341 71.2681 64.7963 71.4564 64.9641C71.6447 65.1319 71.7296 65.2915 71.6923 65.4079Z" stroke="#F1B236" stroke-width="2"/>
<path d="M71.4668 61.1161C71.9278 60.9434 72.3829 61.0035 72.8324 61.2962C72.8417 61.3022 72.8497 61.3104 72.8558 61.32C72.8619 61.3296 72.8659 61.3404 72.8676 61.3516C72.8693 61.3628 72.8685 61.3741 72.8655 61.3846C72.8624 61.3952 72.857 61.4047 72.8498 61.4124C72.5747 61.7163 72.2083 61.9169 71.7507 62.0141C70.6645 62.2444 70.8869 61.3333 71.4668 61.1161Z" stroke="#F1B236" stroke-width="2"/>
<path d="M67.1924 61.8475C67.3144 61.6828 67.4611 61.5834 67.6327 61.5493C68.1224 61.4518 68.6127 61.4639 69.1035 61.5855C69.287 61.6302 69.2992 61.7036 69.1402 61.8059C68.9799 61.908 66.2204 63.1633 67.1924 61.8475Z" stroke="#F1B236" stroke-width="2"/>
<path d="M78.4982 58.6753C78.5419 58.7925 78.4843 58.9433 78.3382 59.0945C78.1921 59.2458 77.9695 59.3851 77.7192 59.4818C77.4689 59.5785 77.2115 59.6248 77.0036 59.6103C76.7958 59.5959 76.6545 59.5219 76.6108 59.4048C76.5671 59.2876 76.6246 59.1368 76.7707 58.9856C76.9168 58.8343 77.1395 58.695 77.3898 58.5983C77.6401 58.5016 77.8974 58.4553 78.1053 58.4698C78.3132 58.4842 78.4545 58.5582 78.4982 58.6753Z" stroke="#F1B236" stroke-width="2"/>
<path d="M74.7439 57.9098C74.7758 58.0368 74.6905 58.1871 74.5067 58.3277C74.3229 58.4683 74.0557 58.5876 73.7638 58.6594C73.6192 58.6949 73.473 58.7178 73.3334 58.7265C73.1938 58.7353 73.0636 58.7299 72.9502 58.7106C72.8368 58.6912 72.7424 58.6584 72.6725 58.6139C72.6026 58.5694 72.5584 58.5141 72.5426 58.4512C72.5106 58.3242 72.596 58.1739 72.7798 58.0333C72.9636 57.8927 73.2308 57.7734 73.5227 57.7016C73.6673 57.666 73.8135 57.6432 73.9531 57.6344C74.0927 57.6257 74.2229 57.6311 74.3363 57.6504C74.4497 57.6698 74.544 57.7026 74.614 57.7471C74.6839 57.7916 74.728 57.8469 74.7439 57.9098Z" stroke="#F1B236" stroke-width="2"/>
<path d="M63.1934 59.4426C63.7085 58.9323 64.828 59.345 65.4064 59.6133C65.7233 59.7607 65.7276 59.8666 65.4193 59.9311C64.822 60.057 63.5799 60.467 63.1602 59.7929C63.1257 59.7382 63.1102 59.6729 63.1163 59.6088C63.1224 59.5447 63.1497 59.4858 63.1934 59.4426Z" stroke="#F1B236" stroke-width="2"/>
<path d="M71.5319 57.5662C71.5636 57.6517 71.5113 57.7656 71.3865 57.8826C71.2616 57.9997 71.0745 58.1105 70.8662 58.1905C70.6579 58.2706 70.4455 58.3134 70.2758 58.3095C70.1061 58.3056 69.9929 58.2554 69.9612 58.1699C69.9295 58.0844 69.9818 57.9706 70.1066 57.8535C70.2315 57.7365 70.4186 57.6257 70.6269 57.5457C70.8352 57.4656 71.0476 57.4228 71.2173 57.4267C71.387 57.4305 71.5002 57.4807 71.5319 57.5662Z" stroke="#F1B236" stroke-width="2"/>
<path d="M69.5826 57.2248C69.5967 57.2761 69.5813 57.3348 69.5374 57.3977C69.4936 57.4606 69.422 57.5263 69.3269 57.5912C69.2317 57.656 69.1148 57.7188 68.9829 57.7757C68.851 57.8327 68.7066 57.8829 68.558 57.9233C68.2578 58.0049 67.9586 58.0421 67.7263 58.0265C67.494 58.011 67.3475 57.9441 67.3191 57.8405C67.305 57.7891 67.3204 57.7304 67.3642 57.6675C67.4081 57.6046 67.4797 57.5389 67.5748 57.474C67.67 57.4092 67.7868 57.3465 67.9188 57.2895C68.0507 57.2325 68.1951 57.1824 68.3437 57.1419C68.6439 57.0603 68.943 57.0232 69.1754 57.0387C69.4077 57.0542 69.5542 57.1212 69.5826 57.2248Z" stroke="#F1B236" stroke-width="2"/>
<path d="M72.6651 54.0225C72.6975 54.084 72.7022 54.1605 72.6787 54.2476C72.6553 54.3347 72.6042 54.4308 72.5285 54.5303C72.4527 54.6298 72.3538 54.7308 72.2373 54.8275C72.1207 54.9243 71.9889 55.0149 71.8494 55.0941C71.5675 55.2542 71.2712 55.3584 71.0256 55.3839C70.78 55.4093 70.6053 55.3538 70.5398 55.2297C70.5074 55.1682 70.5027 55.0918 70.5262 55.0047C70.5496 54.9176 70.6007 54.8215 70.6764 54.722C70.7522 54.6225 70.8511 54.5215 70.9676 54.4247C71.0842 54.328 71.216 54.2374 71.3555 54.1581C71.6373 53.998 71.9337 53.8938 72.1793 53.8684C72.4248 53.843 72.5996 53.8984 72.6651 54.0225Z" stroke="#F1B236" stroke-width="2"/>
<path d="M74.8437 63.2901C74.7094 63.2172 74.628 63.1418 74.5996 63.064C74.5056 62.8062 76.9267 60.836 76.5528 62.6128C77.8469 62.458 79.1059 62.1439 80.3296 61.6706C80.3777 61.6518 80.4206 61.6138 80.4523 61.5621C80.5088 61.4726 80.5307 61.4182 80.6392 61.3908C81.516 61.1792 82.5753 60.8411 83.8172 60.3767C84.1104 60.2678 84.2022 60.0752 84.0927 59.7987C84.0723 59.7478 84.0301 59.704 83.9752 59.6767C83.3972 59.3851 82.912 59.0552 82.2933 58.8274C81.771 58.6339 81.2655 58.3972 80.7767 58.1171C80.4356 57.9209 79.9828 57.8031 79.736 57.6547C78.3239 56.804 76.9031 55.9706 75.4735 55.1544C73.7337 54.1601 72.9137 51.967 71.9935 50.7115C70.8882 49.2051 70.0737 47.5341 69.0214 46.0375C68.5932 45.4274 67.8409 43.879 67.0442 43.9527C67.0331 43.9537 67.0225 43.9571 67.0129 43.9629C67.0033 43.9686 66.9951 43.9765 66.9887 43.9859C66.9823 43.9954 66.9779 44.0062 66.9758 44.0178C66.9737 44.0294 66.9739 44.0414 66.9765 44.053C67.0202 44.2791 67.0811 44.5215 67.0529 44.7529C66.9439 45.6602 67.0281 46.3001 66.9571 47.0597C66.9225 47.42 66.9157 47.7005 66.9365 47.9011C67.0811 49.2763 67.0626 50.7254 66.8811 52.2484C66.7572 53.28 66.3521 54.0891 65.6657 54.6758C64.9442 55.2899 64.14 56.1011 63.5428 56.4138C63.099 56.6456 62.3065 56.8811 61.1656 57.1201C60.477 57.2646 59.3562 57.7083 57.8032 58.451C57.665 58.5178 57.5091 58.7841 57.6979 58.8741C60.0533 60.0048 62.0748 61.0738 63.7623 62.0813C64.6721 62.6237 66.0002 62.9841 66.6362 63.9615C66.9132 64.3886 67.2005 64.8057 67.498 65.2128C67.8019 65.6276 67.9154 66.1705 68.3542 66.5753C68.3997 66.6174 68.4336 66.6667 68.4559 66.7231C68.6012 67.0907 68.789 67.4318 69.0193 67.7466C69.3061 68.1394 69.382 68.5641 69.5382 68.8887C69.6622 69.1494 70.1216 69.9051 70.9164 71.1558C70.9393 71.1919 70.9584 71.2262 70.9718 71.2554C70.9852 71.2846 70.9925 71.3077 70.993 71.3223C71.0029 71.5428 71.0938 71.7052 71.2659 71.8096C71.3142 71.8377 71.3508 71.8823 71.368 71.9342C71.4611 72.2077 72.4816 75.2516 72.7873 73.5118C73.2743 70.7303 73.7682 67.95 74.269 65.171C74.3256 64.8582 74.411 64.5416 74.5251 64.2213C74.6384 63.9024 74.7446 63.5921 74.8437 63.2901ZM71.6923 65.4079C71.655 65.5242 71.4987 65.5877 71.2576 65.5845C71.0166 65.5812 70.7107 65.5114 70.4071 65.3904C70.1035 65.2695 69.8272 65.1072 69.6389 64.9395C69.4506 64.7717 69.3657 64.612 69.403 64.4957C69.4403 64.3794 69.5966 64.3159 69.8376 64.3191C70.0786 64.3224 70.3846 64.3922 70.6882 64.5132C70.9918 64.6341 71.2681 64.7963 71.4564 64.9641C71.6447 65.1319 71.7296 65.2916 71.6923 65.4079ZM71.4664 61.1161C71.9273 60.9435 72.3825 61.0035 72.8319 61.2962C72.8412 61.3023 72.8492 61.3104 72.8553 61.32C72.8614 61.3296 72.8654 61.3404 72.8671 61.3516C72.8688 61.3628 72.8681 61.3741 72.865 61.3846C72.8619 61.3952 72.8565 61.4047 72.8493 61.4124C72.5742 61.7163 72.2078 61.9169 71.7502 62.0141C70.664 62.2444 70.8864 61.3333 71.4664 61.1161ZM67.1921 61.8475C67.314 61.6827 67.4608 61.5833 67.6323 61.5492C68.122 61.4517 68.6123 61.4638 69.1032 61.5854C69.2866 61.6301 69.2989 61.7035 69.1398 61.8059C68.9795 61.9079 66.22 63.1633 67.1921 61.8475ZM78.4982 58.6753C78.5419 58.7924 78.4843 58.9432 78.3382 59.0945C78.1921 59.2457 77.9695 59.385 77.7192 59.4818C77.4689 59.5785 77.2115 59.6247 77.0036 59.6103C76.7958 59.5958 76.6545 59.5219 76.6108 59.4047C76.5671 59.2876 76.6246 59.1368 76.7707 58.9855C76.9168 58.8343 77.1395 58.695 77.3898 58.5982C77.6401 58.5015 77.8974 58.4553 78.1053 58.4697C78.3132 58.4842 78.4545 58.5581 78.4982 58.6753ZM74.7438 57.9099C74.7758 58.0369 74.6905 58.1872 74.5067 58.3278C74.3229 58.4684 74.0556 58.5877 73.7637 58.6595C73.6192 58.6951 73.4729 58.7179 73.3334 58.7267C73.1938 58.7354 73.0636 58.73 72.9502 58.7107C72.8368 58.6913 72.7424 58.6585 72.6725 58.614C72.6025 58.5695 72.5584 58.5142 72.5426 58.4513C72.5106 58.3243 72.5959 58.174 72.7797 58.0334C72.9635 57.8928 73.2308 57.7735 73.5227 57.7017C73.6672 57.6662 73.8135 57.6433 73.9531 57.6346C74.0926 57.6258 74.2229 57.6312 74.3363 57.6506C74.4496 57.6699 74.544 57.7027 74.6139 57.7472C74.6839 57.7917 74.728 57.847 74.7438 57.9099ZM63.1933 59.4425C63.7084 58.9321 64.8278 59.3448 65.4063 59.6132C65.7232 59.7605 65.7275 59.8665 65.4191 59.931C64.8219 60.0569 63.5798 60.4668 63.16 59.7928C63.1256 59.738 63.1101 59.6728 63.1162 59.6086C63.1223 59.5445 63.1496 59.4857 63.1933 59.4425ZM71.5322 57.5662C71.5639 57.6517 71.5116 57.7655 71.3867 57.8826C71.2619 57.9997 71.0747 58.1104 70.8664 58.1905C70.6582 58.2705 70.4458 58.3133 70.2761 58.3095C70.1064 58.3056 69.9932 58.2554 69.9615 58.1699C69.9297 58.0844 69.982 57.9706 70.1069 57.8535C70.2317 57.7364 70.4189 57.6257 70.6272 57.5456C70.8355 57.4656 71.0478 57.4228 71.2176 57.4266C71.3873 57.4305 71.5005 57.4807 71.5322 57.5662ZM69.5823 57.2248C69.5964 57.2761 69.5811 57.3349 69.5372 57.3978C69.4933 57.4606 69.4217 57.5264 69.3266 57.5912C69.2314 57.6561 69.1146 57.7188 68.9827 57.7758C68.8507 57.8328 68.7063 57.8829 68.5577 57.9233C68.2575 58.005 67.9584 58.0421 67.726 58.0266C67.4937 58.0111 67.3472 57.9441 67.3188 57.8405C67.3048 57.7892 67.3201 57.7304 67.364 57.6676C67.4079 57.6047 67.4794 57.539 67.5746 57.4741C67.6697 57.4092 67.7866 57.3465 67.9185 57.2895C68.0504 57.2325 68.1948 57.1824 68.3435 57.142C68.6436 57.0603 68.9428 57.0232 69.1751 57.0387C69.4074 57.0543 69.5539 57.1212 69.5823 57.2248ZM72.6649 54.0226C72.6973 54.084 72.702 54.1605 72.6785 54.2476C72.6551 54.3347 72.604 54.4308 72.5283 54.5303C72.4525 54.6298 72.3536 54.7308 72.237 54.8276C72.1205 54.9243 71.9887 55.0149 71.8492 55.0942C71.5673 55.2543 71.271 55.3585 71.0254 55.3839C70.7798 55.4093 70.6051 55.3539 70.5396 55.2297C70.5071 55.1683 70.5025 55.0918 70.526 55.0047C70.5494 54.9176 70.6005 54.8215 70.6762 54.722C70.7519 54.6225 70.8509 54.5215 70.9674 54.4248C71.0839 54.328 71.2157 54.2374 71.3553 54.1582C71.6371 53.9981 71.9334 53.8939 72.179 53.8684C72.4246 53.843 72.5994 53.8985 72.6649 54.0226Z" fill="#FCDC38"/>
<path d="M70.6886 64.513C71.3208 64.7649 71.7704 65.1655 71.6928 65.4078C71.6151 65.65 71.0397 65.6422 70.4076 65.3903C69.7754 65.1384 69.3258 64.7378 69.4034 64.4956C69.4811 64.2533 70.0565 64.2611 70.6886 64.513Z" fill="#E68833"/>
<path d="M76.5532 62.6126C76.9271 60.8359 74.5061 62.8061 74.6 63.0639C74.6284 63.1417 74.7098 63.2171 74.8442 63.29C75.4875 63.2907 76.0572 63.0649 76.5532 62.6126Z" fill="#E68833"/>
<path d="M71.4668 61.1161C70.8869 61.3333 70.6645 62.2444 71.7507 62.0141C72.2083 61.9169 72.5747 61.7163 72.8498 61.4124C72.857 61.4047 72.8624 61.3952 72.8655 61.3846C72.8685 61.3741 72.8693 61.3628 72.8676 61.3516C72.8659 61.3404 72.8619 61.3296 72.8558 61.32C72.8497 61.3104 72.8417 61.3022 72.8324 61.2962C72.3829 61.0035 71.9278 60.9434 71.4668 61.1161Z" fill="#E68833"/>
<path d="M67.1924 61.8475C66.2204 63.1633 68.9799 61.908 69.1402 61.8059C69.2992 61.7036 69.287 61.6302 69.1035 61.5855C68.6127 61.4639 68.1224 61.4518 67.6327 61.5493C67.4611 61.5834 67.3144 61.6828 67.1924 61.8475Z" fill="#E68833"/>
<path d="M77.3904 58.5981C77.9116 58.3966 78.4078 58.4311 78.4988 58.6751C78.5898 58.9191 78.241 59.2802 77.7198 59.4816C77.1986 59.683 76.7023 59.6485 76.6114 59.4046C76.5204 59.1606 76.8692 58.7995 77.3904 58.5981Z" fill="#E68833"/>
<path d="M73.5229 57.7017C74.1307 57.5522 74.6775 57.6454 74.744 57.9099C74.8106 58.1743 74.3718 58.51 73.7639 58.6595C73.1561 58.809 72.6093 58.7158 72.5428 58.4513C72.4762 58.1868 72.915 57.8512 73.5229 57.7017Z" fill="#E68833"/>
<path d="M63.1939 59.4425C63.1502 59.4857 63.1229 59.5446 63.1168 59.6087C63.1107 59.6728 63.1262 59.738 63.1607 59.7928C63.5804 60.4669 64.8225 60.0569 65.4197 59.931C65.7281 59.8665 65.7238 59.7606 65.4069 59.6132C64.8284 59.3449 63.709 58.9321 63.1939 59.4425Z" fill="#E68833"/>
<path d="M70.6274 57.5456C71.0611 57.3789 71.4663 57.3881 71.5324 57.5662C71.5984 57.7443 71.3004 58.0238 70.8666 58.1905C70.4329 58.3572 70.0277 58.348 69.9616 58.1699C69.8956 57.9918 70.1936 57.7123 70.6274 57.5456Z" fill="#E68833"/>
<path d="M68.3435 57.142C68.9686 56.972 69.5232 57.0091 69.5824 57.2249C69.6415 57.4406 69.1828 57.7534 68.5577 57.9234C67.9327 58.0934 67.378 58.0563 67.3189 57.8405C67.2597 57.6248 67.7185 57.3121 68.3435 57.142Z" fill="#E68833"/>
<path d="M71.3551 54.1582C71.942 53.8248 72.5284 53.7641 72.6647 54.0226C72.8011 54.2811 72.4359 54.7608 71.849 55.0942C71.2621 55.4275 70.6758 55.4882 70.5394 55.2298C70.403 54.9713 70.7682 54.4915 71.3551 54.1582Z" fill="#E68833"/>
<path d="M29.4337 56.1988C29.4968 56.1541 29.6326 56.1366 29.841 56.1462" stroke="#98842E" stroke-width="2"/>
<path d="M29.8408 56.1461C30.5154 56.5123 31.0964 56.3781 31.5839 55.7435C31.6538 55.6521 31.7353 55.5868 31.8188 55.5552C32.7596 55.2079 33.3495 54.5077 33.5885 53.4546C33.6877 53.0236 33.5064 52.6971 33.0446 52.475C30.499 51.2602 34.3996 45.9628 36.0766 49.6282C36.1213 49.7278 36.1347 49.8342 36.1147 49.9301L35.8637 51.1378C35.8492 51.2041 35.8043 51.2835 35.7291 51.3761C35.4945 51.6607 35.3646 51.9929 35.3392 52.3729C35.3376 52.4072 35.3508 52.4439 35.3769 52.4776C35.403 52.5112 35.4406 52.5401 35.4841 52.5599C38.7883 54.0573 41.2238 55.8255 44.6442 58.4204C45.0871 58.7581 45.5716 58.9268 46.0977 58.9266C46.1393 58.9262 46.1792 58.9108 46.2112 58.8828C46.2433 58.8547 46.2657 58.8157 46.275 58.7715C46.6612 56.7778 46.8472 54.7572 46.833 52.7097C46.8317 52.3833 46.757 51.6449 46.609 50.4945C46.4761 49.4724 46.5427 47.7484 46.8088 45.3225C47.1931 41.8439 52.6673 38.9694 55.3137 37.7976C55.8654 37.5534 55.8446 37.3551 55.2512 37.2026C54.0713 36.8979 52.9904 36.3545 51.8153 36.173C49.4561 35.8115 44.7334 35.2131 43.1741 32.9778C42.5781 32.1265 42.0366 31.0523 41.5496 29.755C40.1969 26.1502 39.094 22.4726 37.6197 18.9141C37.4567 18.522 37.2954 18.5159 37.1355 18.8959C36.5654 20.2542 35.7891 21.4173 35.3494 22.8219C34.5004 25.5196 33.393 28.0814 32.0273 30.5072C31.3034 31.7929 30.2016 32.4217 28.9104 32.8176C27.7615 33.1679 26.1659 32.6132 24.9556 32.4063C23.1096 32.0903 21.1358 32.3965 19.2576 32.4446C17.4393 32.4882 15.9989 31.9498 14.0881 32.732C13.6749 32.8996 13.5704 33.1341 13.7747 33.4357C15.9773 36.6847 18.8891 39.4732 21.542 42.3138C23.1858 44.0787 23.3007 46.7252 23.4618 48.8753C23.5707 50.3509 23.3218 51.7032 23.5574 53.2086C23.8002 54.7499 23.3912 56.3766 23.4179 57.9372C23.4333 58.7973 23.786 58.9917 24.4758 58.5202L28.718 55.6293C28.7592 55.6011 28.8058 55.5836 28.8539 55.5784C28.9021 55.5732 28.9504 55.5804 28.9948 55.5994C29.2437 55.7085 29.39 55.9083 29.4335 56.1987" stroke="#F8DC49" stroke-width="2"/>
<path d="M33.1791 51.8564C33.2839 51.9502 33.4126 52.0111 33.5579 52.0356C33.7032 52.0601 33.8622 52.0477 34.0259 51.9991C34.1896 51.9506 34.3547 51.8669 34.5119 51.7527C34.6691 51.6385 34.8152 51.4962 34.942 51.3338C35.1979 51.0057 35.3593 50.6159 35.3907 50.2501C35.4221 49.8842 35.3209 49.5723 35.1093 49.3829C35.0046 49.2891 34.8759 49.2282 34.7306 49.2037C34.5853 49.1793 34.4263 49.1916 34.2626 49.2402C34.0989 49.2887 33.9337 49.3725 33.7765 49.4866C33.6194 49.6008 33.4732 49.7431 33.3465 49.9056C33.0905 50.2336 32.9291 50.6234 32.8977 50.9892C32.8663 51.3551 32.9676 51.667 33.1791 51.8564Z" stroke="#95853A" stroke-width="2"/>
<path d="M36.3146 29.775C36.5382 29.9402 36.8315 29.9744 37.1298 29.8701C37.4282 29.7657 37.7072 29.5313 37.9055 29.2184C38.1038 28.9055 38.2051 28.5398 38.1871 28.2017C38.1692 27.8636 38.0335 27.5809 37.8099 27.4156C37.5862 27.2504 37.293 27.2162 36.9946 27.3206C36.6963 27.4249 36.4173 27.6594 36.219 27.9722C36.0207 28.2851 35.9194 28.6508 35.9373 28.9889C35.9552 29.327 36.0909 29.6097 36.3146 29.775Z" stroke="#9C8726" stroke-width="2"/>
<path d="M34.8135 34.2975C34.9584 34.4276 35.1594 34.4732 35.3723 34.4241C35.5852 34.3751 35.7926 34.2354 35.9488 34.036C36.1051 33.8365 36.1974 33.5935 36.2054 33.3604C36.2135 33.1273 36.1366 32.9233 35.9917 32.7931C35.8468 32.663 35.6459 32.6174 35.4329 32.6665C35.22 32.7155 35.0126 32.8552 34.8564 33.0546C34.7001 33.2541 34.6078 33.4971 34.5998 33.7302C34.5918 33.9633 34.6686 34.1673 34.8135 34.2975Z" stroke="#A98D22" stroke-width="2"/>
<path d="M26.5279 37.2503C26.4947 37.7522 26.723 38.1512 27.2127 38.4475C27.2516 38.4711 27.2957 38.4839 27.3412 38.4848C27.3867 38.4856 27.432 38.4743 27.4732 38.4521C31.2316 36.4119 26.6946 34.6062 26.5279 37.2503Z" stroke="#9C8726" stroke-width="2"/>
<path d="M34.0852 41.2235C34.1946 41.3249 34.3306 41.3913 34.4852 41.4189C34.6398 41.4464 34.8101 41.4347 34.9864 41.3843C35.1626 41.3339 35.3414 41.2458 35.5124 41.1251C35.6835 41.0043 35.8434 40.8533 35.9832 40.6807C36.123 40.508 36.2399 40.317 36.3271 40.1187C36.4144 39.9204 36.4703 39.7186 36.4918 39.5248C36.5132 39.331 36.4997 39.149 36.4521 38.9893C36.4044 38.8295 36.3235 38.6951 36.2141 38.5938C36.1046 38.4924 35.9687 38.426 35.814 38.3984C35.6594 38.3708 35.4891 38.3826 35.3128 38.433C35.1366 38.4834 34.9578 38.5714 34.7868 38.6922C34.6158 38.8129 34.4558 38.9639 34.316 39.1366C34.1762 39.3093 34.0594 39.5002 33.9721 39.6985C33.8848 39.8969 33.8289 40.0987 33.8075 40.2925C33.786 40.4863 33.7995 40.6682 33.8472 40.828C33.8948 40.9877 33.9757 41.1221 34.0852 41.2235Z" stroke="#9A8629" stroke-width="2"/>
<path d="M40.8463 42.2783C41.0268 42.4507 41.2803 42.52 41.5509 42.471C41.8215 42.422 42.0871 42.2587 42.2893 42.0171C42.4915 41.7754 42.6137 41.4752 42.629 41.1824C42.6443 40.8897 42.5515 40.6284 42.3709 40.456C42.1904 40.2837 41.937 40.2144 41.6664 40.2633C41.3957 40.3123 41.1301 40.4756 40.9279 40.7173C40.7257 40.9589 40.6036 41.2591 40.5883 41.5519C40.573 41.8447 40.6658 42.106 40.8463 42.2783Z" stroke="#9C8726" stroke-width="2"/>
<path d="M27.3059 43.393C27.4085 43.4556 27.5281 43.4826 27.6579 43.4724C27.7876 43.4622 27.9251 43.4149 28.0623 43.3335C28.1996 43.252 28.334 43.1378 28.4578 42.9974C28.5817 42.857 28.6925 42.6932 28.7841 42.5154C28.8757 42.3375 28.9462 42.149 28.9915 41.9607C29.0369 41.7725 29.0562 41.588 29.0485 41.418C29.0407 41.2479 29.006 41.0956 28.9463 40.9696C28.8866 40.8437 28.8031 40.7467 28.7005 40.6841C28.598 40.6214 28.4784 40.5945 28.3486 40.6047C28.2188 40.6149 28.0814 40.6621 27.9441 40.7436C27.8068 40.8251 27.6724 40.9392 27.5486 41.0796C27.4248 41.22 27.3139 41.3838 27.2223 41.5616C27.1307 41.7395 27.0603 41.928 27.0149 42.1163C26.9696 42.3046 26.9502 42.489 26.958 42.6591C26.9657 42.8291 27.0005 42.9815 27.0602 43.1074C27.1199 43.2333 27.2034 43.3303 27.3059 43.393Z" stroke="#9C8726" stroke-width="2"/>
<path d="M26.7084 49.7065C26.798 49.7941 26.9064 49.8578 27.0276 49.894C27.1487 49.9302 27.2802 49.9382 27.4144 49.9176C27.5487 49.8969 27.6831 49.848 27.81 49.7736C27.9369 49.6992 28.0538 49.6008 28.1541 49.484C28.3566 49.2481 28.4789 48.9516 28.4941 48.6597C28.5093 48.3678 28.4162 48.1044 28.2353 47.9275C28.1457 47.84 28.0372 47.7762 27.916 47.74C27.7949 47.7038 27.6635 47.6958 27.5292 47.7164C27.395 47.7371 27.2605 47.786 27.1336 47.8604C27.0067 47.9348 26.8898 48.0332 26.7895 48.15C26.5871 48.3859 26.4648 48.6824 26.4495 48.9743C26.4343 49.2662 26.5274 49.5296 26.7084 49.7065Z" stroke="#9C8726" stroke-width="2"/>
<path d="M40.264 52.5776C40.4051 52.6911 40.6015 52.7121 40.81 52.6359C41.0185 52.5597 41.222 52.3926 41.3758 52.1713C41.5296 51.9501 41.621 51.6928 41.63 51.4561C41.639 51.2194 41.5648 51.0226 41.4237 50.9091C41.2826 50.7956 41.0862 50.7747 40.8777 50.8509C40.6692 50.9271 40.4657 51.0942 40.3119 51.3154C40.1581 51.5367 40.0667 51.794 40.0577 52.0307C40.0487 52.2674 40.1229 52.4641 40.264 52.5776Z" stroke="#A98D22" stroke-width="2"/>
<path d="M29.8408 56.1461C29.6324 56.1365 29.4967 56.154 29.4335 56.1987C29.39 55.9083 29.2437 55.7085 28.9948 55.5994C28.9504 55.5804 28.9021 55.5732 28.8539 55.5784C28.8058 55.5836 28.7592 55.6011 28.718 55.6293L24.4758 58.5202C23.786 58.9917 23.4333 58.7973 23.4179 57.9372C23.3912 56.3766 23.8002 54.7499 23.5574 53.2086C23.3218 51.7032 23.5707 50.3509 23.4618 48.8753C23.3007 46.7252 23.1858 44.0787 21.542 42.3138C18.8891 39.4732 15.9773 36.6847 13.7747 33.4357C13.5704 33.1341 13.6749 32.8996 14.0881 32.732C15.9989 31.9498 17.4393 32.4882 19.2576 32.4446C21.1358 32.3965 23.1096 32.0903 24.9556 32.4063C26.1659 32.6132 27.7615 33.1679 28.9104 32.8176C30.2016 32.4217 31.3034 31.7929 32.0273 30.5072C33.393 28.0814 34.5004 25.5196 35.3494 22.8219C35.7891 21.4173 36.5654 20.2542 37.1355 18.8959C37.2954 18.5159 37.4567 18.522 37.6197 18.9141C39.094 22.4726 40.1969 26.1502 41.5496 29.755C42.0366 31.0523 42.5781 32.1265 43.1741 32.9778C44.7334 35.2131 49.4561 35.8115 51.8153 36.173C52.9904 36.3545 54.0713 36.8979 55.2512 37.2026C55.8446 37.3551 55.8654 37.5534 55.3137 37.7976C52.6673 38.9694 47.1931 41.8439 46.8088 45.3225C46.5427 47.7484 46.4761 49.4724 46.609 50.4945C46.757 51.6449 46.8317 52.3833 46.833 52.7097C46.8472 54.7572 46.6612 56.7778 46.275 58.7715C46.2657 58.8157 46.2433 58.8547 46.2112 58.8828C46.1792 58.9108 46.1393 58.9262 46.0977 58.9266C45.5716 58.9268 45.0871 58.7581 44.6442 58.4204C41.2238 55.8255 38.7883 54.0573 35.4841 52.5599C35.4406 52.5401 35.403 52.5112 35.3769 52.4776C35.3508 52.4439 35.3376 52.4072 35.3392 52.3729C35.3646 51.9929 35.4945 51.6607 35.7291 51.3761C35.8043 51.2835 35.8492 51.2041 35.8637 51.1378L36.1147 49.9301C36.1347 49.8342 36.1213 49.7278 36.0766 49.6282C34.3996 45.9628 30.499 51.2602 33.0446 52.475C33.5064 52.6971 33.6877 53.0236 33.5885 53.4546C33.3495 54.5077 32.7596 55.2079 31.8188 55.5552C31.7353 55.5868 31.6538 55.6521 31.5839 55.7435C31.0964 56.3781 30.5154 56.5123 29.8408 56.1461ZM36.3149 29.775C36.5386 29.9402 36.8318 29.9744 37.1302 29.87C37.4285 29.7657 37.7075 29.5312 37.9058 29.2184C38.1041 28.9055 38.2054 28.5398 38.1875 28.2017C38.1696 27.8636 38.0339 27.5809 37.8102 27.4156C37.5866 27.2504 37.2933 27.2162 36.995 27.3205C36.6966 27.4249 36.4176 27.6594 36.2193 27.9722C36.021 28.2851 35.9197 28.6508 35.9377 28.9889C35.9556 29.327 36.0913 29.6097 36.3149 29.775ZM34.8132 34.2974C34.958 34.4275 35.159 34.473 35.372 34.424C35.5849 34.375 35.7923 34.2353 35.9485 34.0358C36.1048 33.8364 36.1971 33.5933 36.2051 33.3603C36.2131 33.1272 36.1363 32.9231 35.9914 32.793C35.8465 32.6629 35.6455 32.6173 35.4326 32.6664C35.2197 32.7154 35.0123 32.855 34.8561 33.0545C34.6998 33.254 34.6075 33.497 34.5995 33.7301C34.5914 33.9632 34.6683 34.1672 34.8132 34.2974ZM26.5278 37.2502C26.4946 37.7521 26.7229 38.1511 27.2126 38.4473C27.2515 38.471 27.2956 38.4838 27.3411 38.4846C27.3866 38.4855 27.4319 38.4742 27.4731 38.452C31.2315 36.4118 26.6945 34.606 26.5278 37.2502ZM34.085 41.2234C34.1944 41.3248 34.3304 41.3912 34.485 41.4188C34.6396 41.4464 34.81 41.4346 34.9862 41.3842C35.1625 41.3338 35.3412 41.2457 35.5122 41.125C35.6833 41.0043 35.8433 40.8532 35.983 40.6806C36.1228 40.5079 36.2397 40.317 36.327 40.1186C36.4142 39.9203 36.4701 39.7185 36.4916 39.5247C36.513 39.3309 36.4995 39.1489 36.4519 38.9892C36.4042 38.8294 36.3234 38.695 36.2139 38.5937C36.1044 38.4923 35.9685 38.4259 35.8138 38.3983C35.6592 38.3707 35.4889 38.3825 35.3127 38.4329C35.1364 38.4833 34.9577 38.5714 34.7866 38.6921C34.6156 38.8128 34.4556 38.9638 34.3158 39.1365C34.176 39.3092 34.0592 39.5001 33.9719 39.6985C33.8847 39.8968 33.8287 40.0986 33.8073 40.2924C33.7859 40.4862 33.7994 40.6681 33.847 40.8279C33.8946 40.9876 33.9755 41.122 34.085 41.2234ZM40.8468 42.2783C41.0274 42.4507 41.2808 42.52 41.5515 42.471C41.8221 42.422 42.0877 42.2587 42.2899 42.0171C42.492 41.7754 42.6142 41.4752 42.6295 41.1824C42.6449 40.8897 42.552 40.6284 42.3715 40.456C42.191 40.2836 41.9375 40.2143 41.6669 40.2633C41.3963 40.3123 41.1307 40.4756 40.9285 40.7172C40.7263 40.9589 40.6041 41.2591 40.5888 41.5519C40.5735 41.8446 40.6663 42.1059 40.8468 42.2783ZM27.3061 43.3929C27.4086 43.4555 27.5282 43.4825 27.658 43.4723C27.7878 43.462 27.9252 43.4148 28.0625 43.3334C28.1998 43.2519 28.3342 43.1377 28.458 42.9973C28.5818 42.8569 28.6927 42.6931 28.7843 42.5153C28.8758 42.3374 28.9463 42.1489 28.9917 41.9606C29.037 41.7724 29.0564 41.5879 29.0486 41.4179C29.0409 41.2478 29.0061 41.0955 28.9464 40.9695C28.8867 40.8436 28.8032 40.7466 28.7007 40.684C28.5981 40.6213 28.4785 40.5943 28.3488 40.6046C28.219 40.6148 28.0815 40.662 27.9443 40.7435C27.807 40.825 27.6726 40.9391 27.5488 41.0795C27.4249 41.2199 27.314 41.3837 27.2225 41.5615C27.1309 41.7394 27.0604 41.9279 27.0151 42.1162C26.9697 42.3045 26.9504 42.4889 26.9581 42.659C26.9659 42.829 27.0006 42.9814 27.0603 43.1073C27.12 43.2332 27.2035 43.3302 27.3061 43.3929ZM26.7079 49.7065C26.7975 49.7941 26.906 49.8578 27.0271 49.894C27.1483 49.9302 27.2797 49.9382 27.414 49.9176C27.5482 49.8969 27.6826 49.848 27.8096 49.7736C27.9365 49.6992 28.0534 49.6008 28.1537 49.484C28.3561 49.2481 28.4784 48.9516 28.4936 48.6597C28.5089 48.3678 28.4158 48.1044 28.2348 47.9275C28.1452 47.84 28.0368 47.7762 27.9156 47.74C27.7945 47.7038 27.663 47.6958 27.5288 47.7164C27.3945 47.7371 27.2601 47.786 27.1332 47.8604C27.0063 47.9348 26.8894 48.0332 26.7891 48.15C26.5866 48.3859 26.4643 48.6824 26.4491 48.9743C26.4339 49.2662 26.527 49.5296 26.7079 49.7065ZM40.2638 52.5776C40.4049 52.6911 40.6013 52.7121 40.8098 52.6359C41.0183 52.5597 41.2218 52.3926 41.3756 52.1713C41.5293 51.9501 41.6208 51.6928 41.6298 51.4561C41.6387 51.2194 41.5645 51.0226 41.4234 50.9091C41.2823 50.7956 41.0859 50.7747 40.8774 50.8509C40.6689 50.9271 40.4654 51.0942 40.3116 51.3154C40.1579 51.5367 40.0664 51.794 40.0574 52.0307C40.0485 52.2674 40.1227 52.4641 40.2638 52.5776Z" fill="#FCDC38"/>
<path d="M36.2194 27.9722C35.8064 28.6237 35.8493 29.4308 36.315 29.7749C36.7807 30.119 37.493 29.8698 37.9059 29.2183C38.3188 28.5668 38.276 27.7596 37.8103 27.4155C37.3445 27.0714 36.6323 27.3206 36.2194 27.9722Z" fill="#3C3214"/>
<path d="M34.8567 33.0546C34.5313 33.47 34.5121 34.0264 34.8138 34.2974C35.1155 34.5684 35.6238 34.4513 35.9492 34.0359C36.2745 33.6205 36.2937 33.064 35.992 32.7931C35.6904 32.5221 35.182 32.6392 34.8567 33.0546Z" fill="#563E0B"/>
<path d="M26.5279 37.2503C26.6946 34.6062 31.2316 36.4119 27.4732 38.4521C27.432 38.4743 27.3867 38.4856 27.3412 38.4848C27.2957 38.4839 27.2516 38.4711 27.2127 38.4475C26.723 38.1512 26.4947 37.7522 26.5279 37.2503Z" fill="#3C3214"/>
<path d="M34.3164 39.1365C33.7285 39.8627 33.6251 40.7971 34.0855 41.2234C34.5459 41.6498 35.3957 41.4068 35.9836 40.6806C36.5715 39.9544 36.6748 39.0201 36.2145 38.5937C35.7541 38.1673 34.9043 38.4104 34.3164 39.1365Z" fill="#372F1A"/>
<path d="M40.9292 40.7174C40.5082 41.2206 40.4716 41.9195 40.8476 42.2785C41.2235 42.6374 41.8696 42.5205 42.2906 42.0172C42.7116 41.514 42.7482 40.8151 42.3722 40.4562C41.9963 40.0972 41.3502 40.2142 40.9292 40.7174Z" fill="#3C3214"/>
<path d="M27.2226 41.5615C26.8375 42.3096 26.8749 43.1295 27.3062 43.3928C27.7375 43.6562 28.3993 43.2633 28.7844 42.5152C29.1695 41.7672 29.132 40.9473 28.7008 40.6839C28.2695 40.4206 27.6077 40.8135 27.2226 41.5615Z" fill="#3C3214"/>
<path d="M26.7892 48.15C26.3676 48.6412 26.3312 49.3381 26.708 49.7065C27.0848 50.0748 27.7321 49.9752 28.1538 49.484C28.5754 48.9927 28.6117 48.2959 28.2349 47.9275C27.8581 47.5591 27.2108 47.6587 26.7892 48.15Z" fill="#3C3214"/>
<path d="M33.3474 49.9056C32.8144 50.5887 32.7395 51.4621 33.18 51.8565C33.6206 52.2509 34.4098 52.0169 34.9428 51.3338C35.4758 50.6508 35.5508 49.7773 35.1102 49.383C34.6696 48.9886 33.8804 49.2226 33.3474 49.9056Z" fill="#372F1A"/>
<path d="M40.3115 51.3153C39.9913 51.7761 39.9699 52.3412 40.2637 52.5775C40.5575 52.8139 41.0552 52.6319 41.3755 52.1712C41.6957 51.7104 41.7171 51.1453 41.4233 50.909C41.1295 50.6727 40.6317 50.8546 40.3115 51.3153Z" fill="#563E0B"/>
</svg>
