<svg width="375" height="169" viewBox="0 0 375 169" fill="none" xmlns="http://www.w3.org/2000/svg">
<g opacity="0.5">
<path fill-rule="evenodd" clip-rule="evenodd" d="M-20 114.098L-19.6937 87.2162L-4.1734 87.4446L0.420809 87.7107L0.369236 103.208H3.02367L3.22786 101.875C3.22786 101.875 5.6781 101.761 5.93386 101.761C6.18962 101.761 16.6042 102.522 16.6042 102.522L16.9105 87.2154L24.4665 87.3292L28.8575 88.1291L29.3164 103.55L31.1036 103.741L38.9143 103.932L38.9658 95.4406L37.2808 95.0598L37.3323 89.9197L39.9868 89.3105L40.191 87.3308L41.9266 87.0262V80.3247C41.9266 80.3247 41.1098 80.2109 46.1134 80.2109C51.1171 80.2109 60.3571 81.6961 60.3571 81.6961L60.5097 88.8168L60.5602 90.0351L68.1667 90.2635V78.7265C68.1667 78.7265 72.2515 78.155 74.9059 78.0412C77.5604 77.9273 78.1729 78.0035 78.1729 78.0035L80.0106 78.5742L80.4706 108.617L82.7166 108.921L82.4608 81.9253L85.4216 81.7354L85.5752 81.05L92.3144 80.9739L93.6417 81.6215L94.1006 80.2886L101.759 79.9267L106.788 81.2212L107.221 82.2684L107.298 88.2461L107.808 88.3411L107.885 87.9227L108.702 87.8081L108.856 84.7811L112.864 84.2096L117.918 84.5527L117.943 88.1315L120.572 91.0061L123.993 90.93L124.351 89.5594L135.736 89.2925L135.684 79.5829C135.684 79.5829 138.288 78.6307 138.977 78.5357C139.667 78.4407 139.744 78.4407 139.744 78.4407L142.423 78.7265L142.679 85.6564L148.219 85.8471L148.704 99.4786L151.971 99.5162L152.227 65.3619L156.31 61.7447C156.31 61.7447 156.233 50.798 156.362 50.7406C156.489 50.6841 156.77 50.7218 156.77 50.7218L157.102 59.0608L160.343 59.0035C160.343 59.0035 160.318 50.6457 160.446 50.608C160.573 50.5695 160.906 50.5507 160.906 50.5507L161.441 61.8781L165.066 65.2293L165.679 82.0588L166.802 77.9462L177.523 81.2212L178.033 83.7339L179.36 83.8862L179.564 65.9146L189.469 65.2293L194.983 66.5999L195.799 99.4982L202.743 99.7266L203.151 103.991L207.643 104.372L207.439 93.7112H211.32L211.473 87.8858L215.711 86.1721H231.333V83.4309H236.745L237.46 93.0259L240.318 93.1021V87.695L252.214 87.5427L252.163 90.3601L256.349 90.1316V83.5063L257.6 82.821L257.753 81.5265L258.239 81.4316V80.3844L260.382 78.5946L262.526 80.0798L262.884 82.7449L266.305 82.7072L266.203 79.8898L269.776 77.567L274.677 77.2625L280.956 77.4147L283.815 80.2321V91.8838L286.979 92.1122L289.225 94.0919L297.19 93.4828L297.598 75.8911L300.355 75.6249L300.713 74.9397L305.307 74.9773L305.357 76.0057L307.093 75.8919L307.195 75.0543L311.279 74.8635L311.585 75.6249L316.129 75.5488C316.129 75.5488 315.108 34.4834 315.261 34.255C315.415 34.0266 315.72 33.4747 315.72 33.4747C315.72 33.4747 315.236 22.7179 315.44 22.2234C315.645 21.7281 316.105 21.1951 316.105 21.1951C316.105 21.1951 316.028 13.5414 316.283 13.0084C316.539 12.4753 317.023 11.9423 317.023 11.9423C317.023 11.9423 316.973 9.96258 317.355 9.08653C317.738 8.21047 318.146 7.90589 318.146 7.90589C318.146 7.90589 319.244 4.91664 320.418 3.35529C321.591 1.79393 322.562 0.880201 323.022 0.651767C323.482 0.423334 323.762 0.404494 323.762 0.404494C323.762 0.404494 329.863 -0.242341 330.986 0.0999167C332.109 0.442959 335.428 6.03996 336.448 8.47659C337.469 10.9132 338.236 18.9853 338.236 18.9853L338.848 19.9375L339.129 31.7791C339.129 31.7791 339.717 32.1214 339.717 32.331C339.717 32.5406 340.049 46.9711 340.125 47.0857C340.202 47.1995 340.354 47.3715 340.381 47.581C340.406 47.7906 340.533 83.3728 340.533 83.3728L340.584 85.9618L341.401 102.564H346.097L348.955 100.965L353.347 100.736L353.142 84.5158L357.89 83.8305H370.653L371.98 101.498L380.761 101.651L379.332 78.4242L381.17 67.3056L393.627 66.3919L396.486 67.534L399.446 76.5198L401 116.938H-19.8242L-20 114.101V114.098Z" fill="#F9F5F0"/>
<rect x="-20" y="113.735" width="421" height="55.2654" fill="#F9F5F0"/>
</g>
<path fill-rule="evenodd" clip-rule="evenodd" d="M-19 165.284L-18.6952 130.112L-3.24858 130.411L1.3238 130.759L1.27247 151.036H3.91429L4.11751 149.292C4.11751 149.292 6.55611 149.142 6.81066 149.142C7.0652 149.142 17.4303 150.138 17.4303 150.138L17.7351 130.111L25.2552 130.26L29.6254 131.306L30.0822 151.483L31.8608 151.733L39.6344 151.982L39.6857 140.873L38.0087 140.375L38.06 133.649L40.7018 132.852L40.905 130.262L42.6324 129.863V121.095C42.6324 121.095 41.8195 120.946 46.7994 120.946C51.7792 120.946 60.9753 122.89 60.9753 122.89L61.1272 132.206L61.1775 133.8L68.7479 134.099V119.004C68.7479 119.004 72.8132 118.257 75.4551 118.108C78.0969 117.959 78.7065 118.058 78.7065 118.058L80.5355 118.805L80.9933 158.112L83.2286 158.511L82.9741 123.19L85.9207 122.941L86.0737 122.044L92.7809 121.945L94.1018 122.792L94.5585 121.048L102.18 120.575L107.185 122.268L107.617 123.638L107.693 131.46L108.201 131.584L108.278 131.036L109.091 130.886L109.244 126.926L113.232 126.178L118.263 126.627L118.288 131.31L120.904 135.071L124.309 134.971L124.665 133.178L135.996 132.829L135.945 120.125C135.945 120.125 138.536 118.879 139.222 118.755C139.908 118.63 139.985 118.63 139.985 118.63L142.652 119.004L142.906 128.071L148.419 128.321L148.902 146.156L152.154 146.205L152.408 101.518L156.473 96.7856C156.473 96.7856 156.396 82.4631 156.524 82.3881C156.651 82.3142 156.93 82.3635 156.93 82.3635L157.26 93.274L160.487 93.1991C160.487 93.1991 160.462 82.2638 160.588 82.2145C160.715 82.1642 161.046 82.1396 161.046 82.1396L161.579 96.9602L165.187 101.345L165.797 123.364L166.914 117.983L177.584 122.268L178.092 125.556L179.413 125.755L179.616 102.241L189.473 101.345L194.961 103.138L195.774 146.182L202.685 146.48L203.091 152.061L207.562 152.559L207.359 138.61H211.221L211.374 130.988L215.591 128.746H231.139V125.159H236.526L237.237 137.713L240.082 137.813V130.739L251.921 130.539L251.871 134.225L256.036 133.927V125.258L257.281 124.361L257.434 122.668L257.917 122.544V121.173L260.051 118.832L262.184 120.775L262.54 124.262L265.945 124.213L265.843 120.526L269.4 117.487L274.277 117.089L280.526 117.288L283.371 120.974V136.219L286.521 136.518L288.757 139.108L296.683 138.311L297.089 115.294L299.833 114.946L300.189 114.05L304.761 114.099L304.812 115.444L306.539 115.295L306.641 114.2L310.705 113.95L311.01 114.946L315.532 114.847C315.532 114.847 314.516 61.1175 314.669 60.8186C314.822 60.5197 315.125 59.7977 315.125 59.7977C315.125 59.7977 314.644 45.7237 314.847 45.0767C315.05 44.4286 315.508 43.7312 315.508 43.7312C315.508 43.7312 315.431 33.7173 315.686 33.0199C315.94 32.3225 316.422 31.6251 316.422 31.6251C316.422 31.6251 316.372 29.0349 316.752 27.8886C317.134 26.7424 317.54 26.3439 317.54 26.3439C317.54 26.3439 318.633 22.4328 319.801 20.39C320.969 18.3471 321.934 17.1516 322.392 16.8528C322.85 16.5539 323.128 16.5292 323.128 16.5292C323.128 16.5292 329.201 15.6829 330.319 16.1307C331.436 16.5796 334.739 23.9026 335.755 27.0906C336.771 30.2786 337.534 40.84 337.534 40.84L338.143 42.0858L338.423 57.5792C338.423 57.5792 339.008 58.027 339.008 58.3012C339.008 58.5755 339.339 77.4561 339.414 77.6061C339.491 77.755 339.642 77.9799 339.669 78.2542C339.694 78.5284 339.821 125.083 339.821 125.083L339.871 128.471L340.684 150.192H345.358L348.203 148.1L352.573 147.801L352.37 126.579L357.095 125.682H369.797L371.118 148.799L379.857 148.998L378.435 118.609L380.264 104.061L392.662 102.866L395.507 104.36L398.454 116.117L400 169H-18.8251L-19 165.288V165.284Z" fill="#F9F5F0"/>
</svg>
