<svg width="43" height="96" viewBox="0 0 43 96" fill="none" xmlns="http://www.w3.org/2000/svg">
<path d="M41.1909 70.6166V74.4823H37.1336L33.9808 95.5387H15.0263L12.0613 74.4823H8.91431V70.6166H16.8585V43.1197H17.1012V70.6166H24.6148V14.6025H24.8576V70.6166H41.1909Z" fill="#1B1147"/>
<path d="M28.2791 13.1292C28.2849 13.5143 28.1732 13.8952 27.9525 14.2419C27.9063 14.3122 27.8572 14.3804 27.8023 14.4485C27.6235 14.6688 27.4001 14.8662 27.1405 15.0335C27.0629 15.0875 26.9798 15.1368 26.892 15.1808C26.3633 15.4643 25.7365 15.623 25.0899 15.6371C24.4434 15.6512 23.8057 15.52 23.2566 15.2599C23.1562 15.2099 23.0597 15.1556 22.9676 15.0972C22.5764 14.8628 22.2602 14.5639 22.0429 14.223C21.8257 13.8821 21.713 13.5081 21.7134 13.1292C21.7134 13.0809 21.7134 13.0347 21.7134 12.9863C21.7181 12.9082 21.7287 12.8304 21.7452 12.7532C21.8177 12.3866 21.9963 12.0368 22.2682 11.7292C22.5401 11.4215 22.8984 11.1637 23.3172 10.9743C23.4068 10.9348 23.4993 10.8952 23.6062 10.8622C24.3498 10.5955 25.1974 10.5496 25.9831 10.7335C26.7688 10.9173 27.4361 11.3176 27.8543 11.8561C27.9145 11.9319 27.9685 12.0105 28.0161 12.0914C28.2009 12.4189 28.2906 12.7729 28.2791 13.1292Z" fill="#FE1D00"/>
<path d="M26.6233 13.3954C27.0742 13.712 27.5105 13.9913 27.9382 14.242C27.892 14.3123 27.8429 14.3805 27.788 14.4487C27.3342 14.187 26.8863 13.8989 26.4095 13.5691C26.1552 13.767 25.8893 13.9561 25.6177 14.1298C26.1425 14.41 26.6461 14.7125 27.1262 15.0358C27.0486 15.0898 26.9655 15.1391 26.8776 15.1831C26.3987 14.8618 25.896 14.5615 25.372 14.2838C24.7239 14.6821 24.0074 15.0113 23.2422 15.2623C23.1419 15.2123 23.0454 15.1579 22.9532 15.0995C23.7306 14.8625 24.4587 14.5411 25.1148 14.1452C24.0806 13.6044 22.9248 13.2124 21.7048 12.9886C21.7096 12.9105 21.7202 12.8327 21.7366 12.7555C23.0332 12.9894 24.2599 13.408 25.3518 13.9891C25.6436 13.8071 25.9205 13.6117 26.1812 13.4042C25.1398 12.6501 24.1738 11.838 23.2914 10.9744C23.3809 10.9349 23.4734 10.8953 23.5803 10.8623C24.4445 11.7043 25.3881 12.4973 26.4037 13.2349C26.9242 12.8037 27.4005 12.3428 27.8284 11.8562C27.8886 11.932 27.9427 12.0106 27.9902 12.0915C27.5762 12.5504 27.1194 12.9862 26.6233 13.3954Z" fill="white"/>
<path d="M21.4129 10.528C21.4129 10.528 6.44352 5.09463 13.174 3.0035C19.9044 0.912368 21.4129 10.528 21.4129 10.528Z" fill="#FFCC66"/>
<path d="M24.6956 9.99811C24.6956 9.99811 18.5229 -1.71749 25.3343 0.215317C32.1456 2.14813 24.6956 9.99811 24.6956 9.99811Z" fill="#FFCC66"/>
<path d="M28.3108 10.9787C28.3108 10.9787 34.5095 -0.728119 37.6681 4.25233C40.8267 9.23278 28.3108 10.9787 28.3108 10.9787Z" fill="#FFCC66"/>
<path d="M20.5372 12.8853C20.5372 12.8853 6.66601 19.8117 7.8075 14.3497C8.94899 8.88773 20.5372 12.8853 20.5372 12.8853Z" fill="#FFCC66"/>
<path d="M30.1025 13.0545C30.1025 13.0545 46.6093 11.8077 42.2745 16.2472C37.9398 20.6867 30.1025 13.0545 30.1025 13.0545Z" fill="#FFCC66"/>
<path d="M25.1839 16.6145C25.1839 16.6145 31.3306 28.3367 24.5221 26.3973C17.7137 24.4579 25.1839 16.6145 25.1839 16.6145Z" fill="#FFCC66"/>
<path d="M21.5486 15.6711C21.5486 15.6711 14.9019 27.2284 11.9283 22.1776C8.95465 17.1268 21.5486 15.6711 21.5486 15.6711Z" fill="#FFCC66"/>
<path d="M20.5285 41.6465C20.5296 42.0344 20.4108 42.417 20.1818 42.7635C20.1372 42.8335 20.088 42.9018 20.0344 42.968C19.8573 43.186 19.6359 43.3812 19.3784 43.5463C19.3005 43.5985 19.2184 43.6469 19.1327 43.6914C18.6 43.9793 17.9665 44.1398 17.3132 44.1523C16.66 44.1648 16.0167 44.0289 15.4655 43.7618C15.3644 43.7135 15.2679 43.6598 15.1766 43.6013C14.7902 43.3674 14.4782 43.0701 14.2641 42.7316C14.0499 42.3931 13.939 42.0222 13.9397 41.6465C13.9397 41.5981 13.9397 41.5497 13.9397 41.5014C13.9397 41.4222 13.957 41.3453 13.9715 41.2683C14.044 40.9039 14.2208 40.5561 14.4895 40.2495C14.7581 39.9428 15.1121 39.6849 15.5262 39.4938C15.6149 39.4532 15.7066 39.4165 15.8008 39.3839C16.243 39.2209 16.7283 39.1366 17.2197 39.1376C17.7893 39.1376 18.3493 39.2498 18.845 39.4632C19.3408 39.6767 19.7555 39.9842 20.0488 40.3558C20.1069 40.4314 20.16 40.5092 20.2078 40.5888C20.4166 40.9189 20.5261 41.2802 20.5285 41.6465Z" fill="#FE1D00"/>
<path d="M18.8467 41.9059C19.3062 42.2291 19.7455 42.5084 20.1818 42.7635C20.1373 42.8335 20.0881 42.9017 20.0345 42.968C19.5779 42.7063 19.1184 42.4116 18.6358 42.0752C18.3815 42.2731 18.1185 42.4578 17.8526 42.6293C18.3849 42.9114 18.8945 43.2176 19.3785 43.5463C19.3005 43.5984 19.2185 43.6469 19.1328 43.6914C18.6493 43.3652 18.1408 43.0612 17.6099 42.7811C16.9578 43.1814 16.2362 43.5114 15.4656 43.7617C15.3645 43.7134 15.268 43.6598 15.1766 43.6012C15.9575 43.3647 16.6887 43.0425 17.3469 42.6447C16.3177 42.1042 15.1638 41.7163 13.9456 41.5013C13.9456 41.4221 13.9629 41.3452 13.9773 41.2682C15.2754 41.4966 16.503 41.914 17.5925 42.4974C17.8797 42.3146 18.1546 42.1208 18.4161 41.9169C17.3814 41.1651 16.4203 40.3567 15.5408 39.4981C15.6295 39.4576 15.7211 39.4209 15.8153 39.3882C16.6748 40.2277 17.6146 41.0178 18.6271 41.752C19.1582 41.319 19.6415 40.8535 20.072 40.3601C20.1301 40.4357 20.1832 40.5135 20.231 40.5932C19.8143 41.057 19.3515 41.4958 18.8467 41.9059Z" fill="white"/>
<path d="M13.6621 39.043C13.6621 39.043 -1.30726 33.6095 5.41162 31.5206C12.1305 29.4317 13.6621 39.043 13.6621 39.043Z" fill="#FFCC66"/>
<path d="M16.9422 38.513C16.9422 38.513 10.7723 26.7996 17.5808 28.7324C24.3893 30.6653 16.9422 38.513 16.9422 38.513Z" fill="#FFCC66"/>
<path d="M20.5574 39.4938C20.5574 39.4938 26.7561 27.7892 29.9176 32.7696C33.0791 37.75 20.5574 39.4938 20.5574 39.4938Z" fill="#FFCC66"/>
<path d="M12.7837 41.3979C12.7837 41.3979 -1.0875 48.3243 0.0684314 42.8601C1.22437 37.3959 12.7837 41.3979 12.7837 41.3979Z" fill="#FFCC66"/>
<path d="M22.3521 41.5717C22.3521 41.5717 38.8559 40.3227 34.5212 44.7623C30.1864 49.2018 22.3521 41.5717 22.3521 41.5717Z" fill="#FFCC66"/>
<path d="M17.4336 45.1361C17.4336 45.1361 23.5774 56.8583 16.7718 54.9167C9.96626 52.9751 17.4336 45.1361 17.4336 45.1361Z" fill="#FFCC66"/>
<path d="M13.7924 44.184C13.7924 44.184 7.14572 55.7412 4.17496 50.6882C1.20421 45.6352 13.7924 44.184 13.7924 44.184Z" fill="#FFCC66"/>
<path d="M21.5024 44.8524C21.5024 44.8524 36.7175 49.8768 30.091 52.1483C23.4646 54.4197 21.5024 44.8524 21.5024 44.8524Z" fill="#FFCC66"/>
</svg>
