<svg width="43" height="76" viewBox="0 0 43 76" fill="none" xmlns="http://www.w3.org/2000/svg">
<path d="M3.96139 0.620559C7.51193 1.24371 10.7751 2.265 13.6676 3.65834C15.5524 4.51366 17.5612 5.54303 19.6299 6.70364C21.8582 7.93396 23.9124 9.31581 25.7776 10.8392C26.7764 11.6634 27.6763 12.5577 28.4715 13.5165C29.317 14.4999 30.0118 15.5723 30.5473 16.7209C31.1171 17.8882 31.4695 19.1524 31.5971 20.4873C31.7533 21.8278 31.648 23.2411 31.2838 24.6884L31.215 24.9288C31.1194 24.9147 31.0276 24.8846 30.9292 24.8646C27.2019 24.1262 22.8298 24.4597 18.4705 25.8148C16.2618 26.5186 14.1226 27.5268 12.1833 28.7778C10.1511 30.0874 8.44282 31.6785 7.22158 33.3992C6.54602 34.3001 6.03797 35.2327 5.71657 36.1619C5.34663 37.2037 5.28344 38.2186 5.53179 39.1294C5.80595 40.0013 6.35289 40.7543 7.13682 41.3393C7.92075 41.9242 8.92404 42.328 10.0811 42.524C12.1777 42.8784 14.631 42.5902 17.0143 41.7097C19.1991 40.9119 21.2901 39.8302 23.1677 38.5266C25.0241 37.2538 26.6935 35.8258 28.1168 34.293C29.8885 32.3784 31.2959 30.3467 32.2785 28.2853C32.7226 28.4819 33.1381 28.7065 33.5221 28.9575C35.8078 30.4215 37.4392 32.3852 38.2982 34.7065C39.1214 36.8617 39.4436 39.2153 39.2536 41.6875C39.1029 43.8432 38.5929 46.0656 37.7348 48.3055C36.9503 50.2105 35.9524 52.1134 34.7532 53.991C32.9128 56.9336 30.6975 59.8154 28.1471 62.5847C26.4524 64.4483 24.6072 66.2542 22.6273 67.987C21.029 69.3723 19.8236 70.3477 18.8699 71.0929C18.0531 71.7468 17.4973 72.1662 17.081 72.5003L17.3324 71.9027C18.0493 70.1988 18.662 68.6578 19.1397 67.3586C20.0859 64.7644 20.5475 63.1121 20.1657 63.1062C19.7838 63.1003 18.7707 64.6438 17.3719 67.1995C16.6633 68.4815 15.874 70.0022 15.0311 71.6987L14.7113 72.342C14.5701 72.6187 14.458 72.8965 14.3765 73.1724C14.3279 73.3492 14.2994 73.5238 14.2913 73.6942C14.2802 73.9111 14.3108 74.118 14.3821 74.3087C14.5288 74.7015 14.8622 75.0039 15.3336 75.1719C15.9651 75.351 16.6783 75.4216 17.4361 75.38L19.1505 75.3977C28.7219 75.3543 36.648 74.8581 36.8359 74.2678C37.0237 73.6775 29.4231 73.2251 19.849 73.2626L18.5844 73.2775C19.1032 72.9889 19.6066 72.6797 20.0914 72.3519C21.5544 71.3916 22.9515 70.3684 24.2708 69.2912C26.4603 67.5299 28.488 65.6659 30.3283 63.7229C33.1088 60.8251 35.5161 57.791 37.5004 54.6834C38.8159 52.6397 39.9048 50.567 40.7531 48.4922C41.7192 46.0166 42.2912 43.5592 42.4558 41.1775C42.669 38.422 42.3038 35.8004 41.373 33.4042C40.3655 30.7247 38.4577 28.4648 35.7898 26.7909C35.025 26.3053 34.1674 25.8998 33.23 25.5805C33.3269 25.2552 33.4238 24.9299 33.4902 24.6112C33.8679 22.9923 33.9579 21.4142 33.7579 19.9192C33.5722 18.4672 33.1444 17.095 32.4829 15.8304C31.8696 14.6152 31.085 13.4847 30.1386 12.453C29.276 11.4718 28.3045 10.5595 27.2306 9.72205C25.2646 8.20391 23.0962 6.84216 20.7429 5.64789C18.5703 4.52028 16.4875 3.54871 14.4944 2.73318C11.4438 1.41628 7.98583 0.533984 4.23245 0.114832C3.23025 0.0154226 2.1927 -0.0195212 1.12895 0.0103109C0.398911 0.0479563 0.0425862 0.0736202 0.0008182 0.128722C-0.0409498 0.183823 1.46707 0.238024 3.96683 0.632492L3.96139 0.620559ZM29.3816 27.3873C29.662 27.4395 29.9293 27.5121 30.1966 27.5847C29.2725 29.5804 27.9018 31.5474 26.1532 33.3872C24.8728 34.7294 23.381 35.9765 21.7294 37.0855C20.1176 38.1825 18.3285 39.0872 16.4647 39.7477C14.695 40.3819 12.8829 40.5768 11.3406 40.2986C10.5778 40.1698 9.91605 39.9044 9.39843 39.5197C8.88081 39.1349 8.51893 38.6395 8.33637 38.0657C8.13965 36.8421 8.6089 35.4485 9.65274 34.1565C10.641 32.7961 12.0118 31.5426 13.6344 30.5158C15.2516 29.5038 17.0253 28.6943 18.8495 28.1358C20.6802 27.5674 22.5261 27.212 24.3136 27.0837C26.109 26.9459 27.8207 27.0445 29.3762 27.3753" fill="#072333"/>
</svg>
