<svg width="73" height="69" viewBox="0 0 73 69" fill="none" xmlns="http://www.w3.org/2000/svg">
<path d="M36.5 6.46875C30.6346 6.46875 24.9008 8.11275 20.0239 11.1929C15.1469 14.273 11.3458 18.6509 9.10121 23.7729C6.8566 28.8949 6.26931 34.5311 7.4136 39.9686C8.55789 45.4062 11.3824 50.4008 15.5299 54.3211C19.6774 58.2413 24.9616 60.911 30.7144 61.9926C36.4671 63.0742 42.43 62.5191 47.849 60.3975C53.2679 58.2759 57.8996 54.683 61.1583 50.0733C64.417 45.4636 66.1563 40.0441 66.1563 34.5C66.1472 27.0683 63.0198 19.9434 57.4601 14.6884C51.9005 9.43338 44.3625 6.47734 36.5 6.46875ZM46.8904 36.2941L33.2029 44.9191C32.8594 45.1359 32.4601 45.2605 32.0475 45.2795C31.635 45.2986 31.2247 45.2113 30.8605 45.0271C30.4963 44.8429 30.1919 44.5686 29.9798 44.2336C29.7677 43.8986 29.6559 43.5154 29.6563 43.125V25.875C29.6559 25.4846 29.7677 25.1014 29.9798 24.7664C30.1919 24.4314 30.4963 24.1571 30.8605 23.9729C31.2247 23.7887 31.635 23.7014 32.0475 23.7205C32.4601 23.7395 32.8594 23.8641 33.2029 24.0809L46.8904 32.7059C47.2029 32.9028 47.4591 33.1696 47.6363 33.4826C47.8135 33.7955 47.9063 34.145 47.9063 34.5C47.9063 34.855 47.8135 35.2045 47.6363 35.5174C47.4591 35.8304 47.2029 36.0972 46.8904 36.2941Z" fill="#FFF7E4"/>
</svg>
