<svg width="39" height="24" viewBox="0 0 39 24" fill="none" xmlns="http://www.w3.org/2000/svg">
<path fill-rule="evenodd" clip-rule="evenodd" d="M2 10.5C2 5.26 6.26 1 11.5 1C16.74 1 21 5.26 21 10.5C21 15.45 17.56 20.43 12.43 22.9L11 23.59V19.99C5.99 19.73 2 15.57 2 10.5ZM13 18V20.3C16.64 18.01 19 14.23 19 10.5C19 6.36 15.64 3 11.5 3C7.36 3 4 6.36 4 10.5C4 14.64 7.36 18 11.5 18H13ZM12.5 14.5V16.5H10.5V14.5H12.5ZM7.5 8C7.5 5.79 9.29 4 11.5 4C13.71 4 15.5 5.79 15.5 8C15.5 9.28292 14.71 9.97332 13.9408 10.6455C13.211 11.2833 12.5 11.9046 12.5 13H10.5C10.5 11.1787 11.4421 10.4566 12.2704 9.82168C12.9202 9.32361 13.5 8.87922 13.5 8C13.5 6.9 12.6 6 11.5 6C10.4 6 9.5 6.9 9.5 8H7.5Z" fill="#AAE0D6"/>
</svg>
