<svg width="375" height="36" viewBox="0 0 375 36" fill="none" xmlns="http://www.w3.org/2000/svg">
<path d="M406.47 38.0274C404.31 38.0274 402.15 38.0274 400 38.0074C394.68 37.9674 389.56 39.1374 384.25 38.3674C381.8 38.0174 379.5 38.1574 377.04 38.0674C374.61 37.9674 372.19 37.4774 369.76 37.2674C364.88 36.8274 359.99 35.9074 355.16 35.1074C349.91 34.2374 344.67 33.2974 339.32 34.0374C334.79 34.6674 330.06 35.1474 325.63 36.2774C315.34 38.8974 306.04 44.1574 297.39 50.2074C294.23 52.4174 291.6 55.2874 288.45 57.4974C286.18 59.0874 284.04 60.6374 281.92 62.4474C277.59 66.1574 272.94 69.4874 268.61 73.1774C259.3 81.1074 250.29 89.3574 240.65 96.8474C235.83 100.587 230.46 103.337 225.37 106.647C222.37 108.597 219.21 109.897 216 111.137H406.46V38.0274H406.47Z" fill="#021713"/>
<path d="M180.985 105.44C178.161 103.61 175.529 101.4 172.888 99.31C170.179 97.16 167.364 95.33 164.857 92.89C158.794 87.01 152.914 80.92 147.081 74.8C143.283 70.81 138.675 67.24 134.366 63.89C132.332 62.31 130.79 60.33 128.611 58.92C127.628 58.28 126.664 57.6 125.7 56.93C123.598 55.46 121.352 54.42 119.154 53.13C114.055 50.14 107.663 48.28 102.005 46.79C98.6307 45.9 94.9868 45.22 91.5453 44.7C88.0267 44.17 84.4599 43.55 80.922 43.17C77.5769 42.81 74.3475 41.71 70.9735 41.79C69.489 41.83 68.3225 41.56 66.8862 41.26C65.1124 40.88 63.3194 41.28 61.5456 41.06C58.4126 40.66 54.2288 39.97 51.6453 37.97C49.2835 36.14 46.7579 33.35 45.1094 30.82C43.9719 29.07 43.2393 27.07 41.9861 25.4C40.8871 23.93 39.5857 22.54 38.3711 21.17C35.7297 18.22 32.8473 15.6 29.724 13.22C21.8577 7.24 13.5095 4.52998 4.04301 2.72998C-5.24031 0.969981 -14.6007 0.27 -23.9805 0V110.77H191.657C187.965 109.34 184.398 107.65 180.985 105.44Z" fill="#021713"/>
</svg>
