<svg width="360" height="345" viewBox="0 0 360 345" fill="none" xmlns="http://www.w3.org/2000/svg">
<path d="M337.315 135.794C337.315 135.124 337.269 134.445 337.232 133.767C341.26 132.176 344.928 129.793 348.019 126.759C344.362 125.134 340.312 124.605 336.361 125.237C336.242 124.466 336.113 123.705 335.967 122.944C336.821 121.742 337.605 120.493 338.315 119.201C340.521 115.201 341.897 110.796 342.36 106.25C338.84 107.344 335.674 109.354 333.187 112.075C333.142 111.946 333.096 111.818 333.059 111.689C333.169 111.488 333.298 111.304 333.408 111.102C334.736 108.684 335.566 106.024 335.847 103.279C334.01 103.834 332.332 104.818 330.949 106.149C330.94 106.108 330.924 106.068 330.904 106.03L330.949 105.984C333.933 102.546 336.192 98.54 337.59 94.2074C334.18 94.4748 330.893 95.5978 328.033 97.4727C328.033 97.3993 328.124 97.3351 328.161 97.2617C330.352 93.2575 331.712 88.8527 332.16 84.3107C328.275 85.5251 324.821 87.83 322.208 90.9513C321.539 90.0341 320.86 89.1811 320.145 88.3281C320.576 88.0437 321.016 87.7594 321.429 87.4109C323.625 85.7769 325.464 83.7105 326.831 81.3389C323.607 80.9395 320.347 81.7251 317.659 83.5494C317.301 83.7879 316.935 84.0539 316.568 84.3474C316.494 84.2648 316.421 84.2006 316.338 84.1181C317.301 82.2059 318.114 80.2218 318.769 78.1837C320.179 73.8313 320.696 69.2394 320.291 64.6824C315.623 67.0763 312.082 71.6348 310.046 76.7345C309.854 77.2206 309.679 77.7526 309.514 78.2846C308.991 77.9086 308.469 77.5417 307.927 77.184C307.927 76.973 307.927 76.762 307.927 76.5511C307.753 76.6336 307.588 76.7437 307.423 76.8354L307.267 76.7345C309.239 72.9392 310.465 68.8014 310.881 64.5448C308.189 65.3601 305.702 66.7425 303.589 68.5989C303.612 68.5634 303.634 68.5266 303.653 68.4888C300.483 68.0945 297.276 68.853 294.619 70.6259L293.61 70.2774C294.373 68.6738 295.032 67.0224 295.582 65.3336C296.987 60.9802 297.505 56.3892 297.104 51.8322C292.436 54.2353 288.849 58.7847 286.859 63.8936C286.352 65.2054 285.947 66.5548 285.648 67.9293L282.713 67.1772C282.713 66.8928 282.787 66.6177 282.814 66.3333C283.198 61.7733 282.664 57.1827 281.246 52.832C277.706 56.0896 275.299 60.3924 274.376 65.1135L273.532 64.8933C273.692 62.3268 273.365 59.7532 272.569 57.308C270.717 58.9814 269.381 61.1482 268.717 63.5542C267.799 63.279 266.882 62.9947 265.965 62.692C266.812 61.6841 267.55 60.5896 268.166 59.4268C266.037 59.1788 263.88 59.4951 261.911 60.344C261.957 59.9679 262.021 59.601 262.049 59.225C262.292 56.473 261.98 53.7001 261.131 51.071C258.884 53.141 257.39 55.9001 256.885 58.9131C256.05 58.482 255.234 57.9959 254.436 57.5465L256.756 59.6194L254.316 57.4548L253.876 57.1704L253.931 57.1154L254.316 57.4548L254.445 57.5373L253.95 57.097C255.026 55.911 255.95 54.5954 256.701 53.1805C254.605 52.9457 252.484 53.2619 250.547 54.0978L250.391 53.9602C250.629 53.2723 250.877 52.5844 251.079 51.8873C252.352 47.4883 252.732 42.8791 252.198 38.3309C248.327 40.6208 245.256 44.0476 243.402 48.145L242.484 47.3654C242.576 45.2688 242.505 43.1683 242.273 41.0825C241.776 36.5448 240.373 32.1532 238.146 28.1682C235.483 31.7813 233.969 36.1114 233.798 40.5964C233.814 39.5579 233.765 38.5195 233.652 37.4871C233.358 34.7431 232.509 32.0875 231.157 29.6816C229.613 31.7416 228.695 34.2034 228.515 36.7716L228.424 36.7166C228.515 36.0654 228.625 35.4142 228.69 34.7538C229.151 30.2018 228.689 25.6035 227.332 21.2341C224.715 23.4989 222.699 26.3757 221.462 29.6082C221.462 29.5257 221.462 29.4431 221.462 29.3606C220.967 24.8223 219.564 20.4302 217.335 16.4462C214.942 19.6584 213.476 23.4654 213.097 27.4528L212.097 26.9483C212.796 24.5316 213.038 22.006 212.813 19.5005C210.844 20.5786 209.198 22.1615 208.043 24.0866C206.708 20.2173 204.668 16.6287 202.026 13.502C201.306 14.9584 200.77 16.499 200.43 18.088C200.361 14.0846 199.197 10.1766 197.064 6.78799C194.531 10.5822 192.793 14.8507 191.955 19.3354C191.955 19.4914 191.909 19.6565 191.882 19.8124C190.864 17.3479 189.368 15.1096 187.479 13.2268C186.748 15.0413 186.189 16.9207 185.81 18.8401L184.608 18.7117C184.805 16.7647 184.716 14.7993 184.342 12.8783C182.072 14.3634 180.003 16.1361 178.188 18.1522C178.273 13.8299 177.1 9.57594 174.813 5.90747C172.278 9.70086 170.539 13.9696 169.704 18.4549C169.704 18.565 169.704 18.6751 169.704 18.7851H169.612C168.594 16.3848 167.121 14.2044 165.274 12.3646C164.316 14.7465 163.648 17.2347 163.283 19.7757L162.091 19.9958C162.624 17.3672 162.64 14.6599 162.137 12.0253C158.379 14.5453 155.179 17.8109 152.735 21.6193C152.57 21.8761 152.433 22.1513 152.268 22.4081L150.13 23.0501C149.507 21.6773 148.633 20.433 147.553 19.3813C146.968 20.9281 146.583 22.5432 146.407 24.1875C145.416 24.5085 144.425 24.8479 143.435 25.1872C143.526 22.366 143.036 19.5562 141.995 16.9323C138.763 20.1536 136.225 24.0023 134.538 28.2416C134.538 28.3058 134.538 28.3791 134.464 28.4525C134.128 24.9983 132.957 21.6775 131.052 18.7759C128.577 22.6097 126.908 26.9068 126.145 31.4059C126.142 31.4731 126.142 31.5405 126.145 31.6077H126.035C126.22 29.6187 125.934 27.614 125.201 25.7559C123.26 27.6993 121.737 30.0183 120.725 32.5708C120.55 32.9835 120.413 33.4055 120.266 33.8274L120.037 33.9191C120.695 30.0298 120.296 26.0352 118.881 22.3531C115.666 25.5666 113.142 29.4024 111.461 33.6256C110.885 35.063 110.395 36.5331 109.993 38.0282L109.544 38.2208C108.391 33.6442 105.824 29.5483 102.206 26.5172C100.961 30.922 100.615 35.5322 101.188 40.0736C101.188 40.1561 101.188 40.2387 101.234 40.3212C99.2799 37.4862 96.6511 35.182 93.5844 33.6164C93.3127 37.5491 93.7381 41.4988 94.841 45.2834L93.2909 46.1455C91.3389 43.9084 88.6887 42.3959 85.7697 41.853C85.9976 42.854 86.3043 43.8354 86.6869 44.7881C86.0734 44.1279 85.4111 43.5147 84.7058 42.9536C83.838 45.9921 83.4147 49.1402 83.4492 52.3C82.9172 52.6669 82.3944 53.043 81.8808 53.419C80.9381 49.9998 79.1532 46.8716 76.6893 44.3203C75.1542 48.0601 74.309 52.0471 74.1945 56.0881C74.1337 53.7116 73.4334 51.3954 72.1675 49.3833C71.344 50.6054 70.6668 51.9199 70.1496 53.2998C69.7054 52.2348 69.165 51.2124 68.5353 50.2455C66.0043 54.0386 64.2636 58.3029 63.4173 62.7837C63.15 64.2217 62.9602 65.673 62.8486 67.1313C62.6193 66.9937 62.3992 66.8653 62.1699 66.7461C62.1699 66.8653 62.1699 66.9937 62.1699 67.113C59.7413 64.5486 56.693 62.6532 53.3188 61.6097C53.7662 66.1549 55.1263 70.5629 57.3178 74.5699C57.7673 75.3954 58.2351 76.1934 58.7579 76.973L58.4185 77.4316C56.41 73.0835 53.0516 69.5 48.8428 67.2139C48.4879 71.777 49.0524 76.365 50.503 80.706C51.103 82.5158 51.8294 84.2812 52.6768 85.9892C52.5667 86.1726 52.4475 86.3561 52.3282 86.5395C52.1081 86.3744 51.8788 86.2093 51.6495 86.0626C48.9513 84.2649 45.6906 83.5117 42.4774 83.9438C43.8797 86.3057 45.7529 88.3538 47.9806 89.9607C48.531 90.3643 49.0905 90.7403 49.6683 91.0981C49.0629 92.1437 48.4576 93.1893 47.8339 94.2441C45.1235 90.7611 41.4049 88.1988 37.1851 86.9064C37.6775 91.4323 39.0782 95.8123 41.3033 99.784C41.3033 99.8574 41.3859 99.9216 41.4317 99.995C38.5556 98.1457 35.2584 97.0539 31.8469 96.8215C33.2814 101.142 35.578 105.127 38.5976 108.534C38.9644 108.956 39.368 109.341 39.7532 109.745V109.828C38.1619 107.954 36.0628 106.581 33.7088 105.874C34.0106 108.619 34.8655 111.274 36.222 113.68C36.5247 114.23 36.864 114.762 37.2034 115.285V115.386C34.5461 112.323 31.0623 110.09 27.1691 108.956C27.676 113.491 29.0856 117.879 31.3149 121.861C31.8958 122.895 32.5073 123.904 33.1493 124.888C32.7916 125.805 32.4431 126.805 32.1037 127.768C28.5264 127.414 24.919 128.012 21.6475 129.502C24.0365 131.834 26.7831 133.769 29.7832 135.234C29.4805 136.344 29.187 137.463 28.921 138.591C27.0482 138.874 25.2673 139.59 23.7204 140.682C25.0569 141.577 26.5066 142.29 28.0313 142.801C27.9762 143.086 27.9304 143.37 27.8754 143.654C23.7606 141.125 18.9159 140.049 14.1172 140.6C16.313 144.563 19.3009 148.032 22.8949 150.79C24.1313 151.739 25.4238 152.612 26.7655 153.404L26.7105 154.569C23.4834 154.665 20.3992 155.922 18.0245 158.11C20.4745 159.264 23.1404 159.889 25.8483 159.944C26.1235 159.944 26.3895 159.944 26.6646 159.944C26.6646 161.026 26.7288 162.118 26.793 163.209C22.9949 162.257 19.0035 162.413 15.2912 163.659C18.1961 167.109 21.7845 169.919 25.83 171.914L26.0593 172.014C22.6429 172.144 19.3158 173.141 16.3919 174.913C19.9477 177.662 24.0412 179.634 28.4073 180.7C28.8109 180.801 29.2328 180.866 29.6456 180.957V181.04C27.3989 180.508 25.0486 180.613 22.8582 181.342C24.6142 183.428 26.781 185.13 29.2237 186.341C29.9765 186.711 30.748 187.042 31.535 187.332V187.387C27.478 186.2 23.1558 186.277 19.1435 187.607C22.0484 191.057 25.6368 193.868 29.6823 195.862C31.7455 196.887 33.8937 197.731 36.1027 198.384L37.02 200.219C32.3045 200.563 27.8321 202.445 24.2891 205.575C28.286 207.588 32.6603 208.741 37.13 208.96C38.7843 209.039 40.442 209.009 42.0921 208.868C42.2756 209.143 42.4498 209.418 42.6333 209.684C42.5691 209.739 42.4865 209.785 42.4223 209.831C39.7652 211.78 37.8839 214.607 37.1117 217.811C39.784 217.349 42.3303 216.334 44.5869 214.83C44.9905 214.573 45.3666 214.28 45.7518 213.995C46.4581 214.912 47.1827 215.83 47.9164 216.692C43.9072 218.059 40.3952 220.588 37.8271 223.956C42.1405 225.147 46.6566 225.416 51.0808 224.745L51.3284 224.699C48.5646 226.779 46.3588 229.511 44.908 232.651C49.3798 232.88 53.8495 232.161 58.0241 230.542C58.9413 230.175 59.9227 229.762 60.8491 229.322L61.0509 229.478C58.1689 230.21 55.6168 231.89 53.8049 234.247C56.4105 234.969 59.1393 235.132 61.8122 234.724C62.8985 234.561 63.9714 234.319 65.0224 234C60.7063 235.326 56.9127 237.969 54.1718 241.557C58.4865 242.741 63.0017 243.007 67.4255 242.337C69.9992 241.955 72.528 241.316 74.9742 240.429C72.1274 244.488 70.6727 249.36 70.8284 254.316C74.8928 252.363 78.5091 249.59 81.4497 246.171C82.392 245.076 83.2738 243.931 84.0912 242.741L85.0084 243.089C84.596 243.485 84.2071 243.905 83.8436 244.346C81.7105 246.878 80.5353 250.079 80.5233 253.389C83.0778 252.298 85.3745 250.683 87.2648 248.647C88.3405 247.47 89.3046 246.196 90.1448 244.841L90.741 245.024C90.0913 245.619 89.4787 246.253 88.9066 246.923C85.412 251.115 83.0915 256.435 83.1557 261.782C87.3119 260.042 91.0602 257.455 94.1622 254.187C95.8286 252.452 97.3358 250.57 98.6657 248.565C98.5011 249.272 98.3847 249.989 98.3172 250.711C97.9693 254.006 98.7837 257.318 100.619 260.076C102.045 257.722 102.981 255.105 103.371 252.38C103.58 251.015 103.675 249.634 103.655 248.253C105.068 248.501 106.48 248.702 107.902 248.886C105.541 253.391 104.726 258.547 105.581 263.561C109.335 261.033 112.526 257.757 114.955 253.94L115.084 253.72C114.776 257.216 115.333 260.735 116.707 263.965C119.846 260.675 122.28 256.78 123.862 252.518C124.228 251.601 124.531 250.619 124.779 249.656H124.981C123.662 252.306 123.225 255.308 123.733 258.223C126.002 256.694 127.931 254.715 129.401 252.408C130.003 251.464 130.539 250.48 131.007 249.464C129.107 253.633 128.518 258.28 129.319 262.791C133.068 260.254 136.258 256.977 138.693 253.16C139.869 251.335 140.897 249.418 141.765 247.428L142.609 247.253C143.785 251.629 146.272 255.54 149.736 258.462C150.966 254.202 151.352 249.744 150.873 245.336C151.506 245.18 152.148 245.034 152.781 244.869C153.911 247.668 155.941 250.01 158.55 251.527C158.82 248.87 158.574 246.185 157.826 243.621C168.787 240.87 179.738 238.228 190.974 238.054C192.377 238.054 193.771 238.054 195.175 238.109C194.513 240.554 194.311 243.101 194.579 245.621C197.352 243.999 199.471 241.459 200.568 238.439C201.164 238.485 201.76 238.549 202.356 238.613C202.356 238.751 202.311 238.879 202.292 239.017C201.751 243.561 202.125 248.167 203.393 252.564C207.143 249.351 209.74 244.999 210.786 240.172C211.767 242.629 212.977 244.987 214.399 247.217C216.831 251.035 220.022 254.314 223.773 256.847C224.575 252.34 223.99 247.696 222.095 243.529C222.564 244.542 223.101 245.523 223.7 246.464C225.17 248.774 227.099 250.757 229.368 252.289C229.887 249.039 229.261 245.709 227.598 242.869L228.011 242.942C228.35 244.181 228.726 245.41 229.185 246.611C230.775 250.871 233.212 254.765 236.348 258.058C237.691 254.839 238.226 251.341 237.908 247.868L238.036 248.088C240.468 251.904 243.659 255.178 247.41 257.709C248.154 253.595 247.722 249.354 246.162 245.474C247.291 245.556 248.41 245.621 249.529 245.657C249.529 245.942 249.575 246.226 249.62 246.51C250.009 249.238 250.945 251.858 252.372 254.215C254.066 251.698 254.888 248.695 254.711 245.667C255.28 245.667 255.857 245.667 256.426 245.584C257.187 246.501 257.985 247.418 258.82 248.336C261.924 251.601 265.672 254.187 269.827 255.93C269.785 251.757 268.564 247.681 266.304 244.171L266.992 243.997C268.563 245.453 270.368 246.634 272.331 247.492C272.351 245.832 272.039 244.186 271.413 242.649C271.954 242.456 272.496 242.245 273.028 242.034C275.62 244.682 278.656 246.855 281.998 248.455C282.154 245.073 281.503 241.703 280.099 238.622C281.408 237.864 282.686 237.057 283.933 236.201C284.429 236.293 284.905 236.403 285.401 236.476C289.825 237.148 294.341 236.879 298.654 235.687C296.854 233.282 294.542 231.305 291.885 229.9L292.803 229.028C294.891 229.165 296.987 228.948 299.003 228.386C298.24 227.345 297.31 226.437 296.251 225.699L296.637 225.304C300.277 226.487 304.105 226.991 307.927 226.79C306.587 223.874 304.587 221.308 302.085 219.297L302.378 218.957C306.606 219.526 310.906 219.233 315.018 218.095C313.141 215.585 310.707 213.545 307.909 212.133C308.826 210.987 309.661 209.822 310.523 208.657C311.706 208.703 312.89 208.703 314.082 208.657C318.553 208.439 322.928 207.283 326.923 205.263C323.959 202.618 320.304 200.868 316.384 200.219C317.081 199.146 317.769 198.054 318.439 196.963C319.475 196.55 320.502 196.1 321.502 195.596C325.545 193.598 329.133 190.788 332.041 187.341C329.608 186.504 327.032 186.161 324.465 186.332C324.942 185.415 325.382 184.498 325.831 183.58C326.745 182.839 327.586 182.012 328.345 181.113C327.96 180.978 327.568 180.864 327.171 180.774C327.492 180.068 327.794 179.343 328.088 178.628C330.492 177.607 332.755 176.282 334.82 174.684C333.463 173.85 332.005 173.193 330.482 172.73C331.481 170.052 332.38 167.327 333.178 164.585C334.557 163.438 335.831 162.17 336.985 160.797C336.133 160.502 335.259 160.275 334.371 160.118C334.499 159.595 334.618 159.073 334.738 158.55C336.773 158.315 338.756 157.748 340.608 156.871C339.269 155.521 337.632 154.503 335.829 153.9C336.135 152.23 336.395 150.555 336.609 148.873C339.887 146.213 342.627 142.95 344.68 139.261C344.451 139.261 344.212 139.215 343.974 139.197C344.703 138.834 345.408 138.423 346.083 137.968C343.508 136.233 340.403 135.464 337.315 135.794ZM250.446 54.162L250.29 54.2262L250.345 54.0702L250.446 54.162ZM74.167 57.8675C74.167 58.4362 74.222 59.0048 74.2496 59.5643L73.9102 59.867C73.9836 59.5185 74.0478 59.1699 74.0845 58.8397C74.1212 58.5095 74.1487 58.1885 74.167 57.8675ZM66.7559 233.449H66.811L66.224 233.605L66.7559 233.449ZM221.59 242.511C221.444 242.209 221.297 241.915 221.141 241.594H221.251C221.361 241.952 221.471 242.227 221.59 242.511Z" fill="#97E95C"/>
<g opacity="0.3">
<path d="M337.315 135.794C337.315 135.124 337.269 134.445 337.232 133.767C341.26 132.176 344.928 129.793 348.019 126.759C344.362 125.134 340.312 124.605 336.361 125.237C336.242 124.466 336.113 123.705 335.967 122.944C336.821 121.742 337.605 120.493 338.315 119.201C340.521 115.201 341.897 110.796 342.36 106.25C338.84 107.344 335.674 109.354 333.187 112.075C333.142 111.946 333.096 111.818 333.059 111.689C333.169 111.488 333.298 111.304 333.408 111.102C334.736 108.684 335.566 106.024 335.847 103.279C334.01 103.834 332.332 104.818 330.949 106.149C330.94 106.108 330.924 106.068 330.904 106.03L330.949 105.984C333.933 102.546 336.192 98.54 337.59 94.2074C334.18 94.4748 330.893 95.5978 328.033 97.4727C328.033 97.3993 328.124 97.3351 328.161 97.2617C330.352 93.2575 331.712 88.8527 332.16 84.3107C328.275 85.5251 324.821 87.83 322.208 90.9513C321.539 90.0341 320.86 89.1811 320.145 88.3281C320.576 88.0437 321.016 87.7594 321.429 87.4109C323.625 85.7769 325.464 83.7105 326.831 81.3389C323.607 80.9395 320.347 81.7251 317.659 83.5494C317.301 83.7879 316.935 84.0539 316.568 84.3474C316.494 84.2648 316.421 84.2006 316.338 84.1181C317.301 82.2059 318.114 80.2218 318.769 78.1837C320.179 73.8313 320.696 69.2394 320.291 64.6824C315.623 67.0763 312.082 71.6348 310.046 76.7345C309.854 77.2206 309.679 77.7526 309.514 78.2846C308.991 77.9086 308.469 77.5417 307.927 77.184C307.927 76.973 307.927 76.762 307.927 76.5511C307.753 76.6336 307.588 76.7437 307.423 76.8354L307.267 76.7345C309.239 72.9392 310.465 68.8014 310.881 64.5448C308.189 65.3601 305.702 66.7425 303.589 68.5989C303.612 68.5634 303.634 68.5266 303.653 68.4888C300.483 68.0945 297.276 68.853 294.619 70.6259L293.61 70.2774C294.373 68.6738 295.032 67.0224 295.582 65.3336C296.987 60.9802 297.505 56.3892 297.104 51.8322C292.436 54.2353 288.849 58.7847 286.859 63.8936C286.352 65.2054 285.947 66.5548 285.648 67.9293L282.713 67.1772C282.713 66.8928 282.787 66.6177 282.814 66.3333C283.198 61.7733 282.664 57.1827 281.246 52.832C277.706 56.0896 275.299 60.3924 274.376 65.1135L273.532 64.8933C273.692 62.3268 273.365 59.7532 272.569 57.308C270.717 58.9814 269.381 61.1482 268.717 63.5542C267.799 63.279 266.882 62.9947 265.965 62.692C266.812 61.6841 267.55 60.5896 268.166 59.4268C266.037 59.1788 263.88 59.4951 261.911 60.344C261.957 59.9679 262.021 59.601 262.049 59.225C262.292 56.473 261.98 53.7001 261.131 51.071C258.884 53.141 257.39 55.9001 256.885 58.9131C256.05 58.482 255.234 57.9959 254.436 57.5465L256.756 59.6194L254.316 57.4548L253.876 57.1704L253.931 57.1154L254.316 57.4548L254.445 57.5373L253.95 57.097C255.026 55.911 255.95 54.5954 256.701 53.1805C254.605 52.9457 252.484 53.2619 250.547 54.0978L250.391 53.9602C250.629 53.2723 250.877 52.5844 251.079 51.8873C252.352 47.4883 252.732 42.8791 252.198 38.3309C248.327 40.6207 245.256 44.0476 243.402 48.145L242.484 47.3654C242.576 45.2688 242.505 43.1683 242.273 41.0825C241.776 36.5448 240.373 32.1532 238.146 28.1682C235.483 31.7813 233.969 36.1114 233.798 40.5964C233.814 39.5579 233.765 38.5195 233.652 37.4871C233.358 34.7431 232.509 32.0875 231.157 29.6816C229.613 31.7416 228.696 34.2034 228.515 36.7716L228.424 36.7166C228.515 36.0654 228.625 35.4142 228.69 34.7538C229.151 30.2018 228.689 25.6035 227.332 21.2341C224.715 23.4989 222.699 26.3757 221.462 29.6082C221.462 29.5257 221.462 29.4431 221.462 29.3606C220.967 24.8223 219.564 20.4302 217.335 16.4462C214.942 19.6584 213.476 23.4654 213.097 27.4528L212.097 26.9483C212.796 24.5316 213.038 22.006 212.813 19.5005C210.844 20.5786 209.198 22.1615 208.043 24.0866C206.708 20.2173 204.668 16.6287 202.026 13.502C201.306 14.9584 200.77 16.499 200.43 18.088C200.361 14.0846 199.197 10.1766 197.064 6.78799C194.531 10.5822 192.793 14.8507 191.955 19.3354C191.955 19.4914 191.909 19.6565 191.882 19.8124C190.864 17.3479 189.368 15.1096 187.479 13.2268C186.748 15.0413 186.189 16.9207 185.81 18.8401L184.608 18.7117C184.805 16.7647 184.716 14.7993 184.342 12.8783C182.072 14.3634 180.003 16.1361 178.188 18.1522C178.273 13.8299 177.1 9.57594 174.813 5.90747C172.278 9.70086 170.539 13.9696 169.704 18.4549C169.704 18.565 169.704 18.6751 169.704 18.7851H169.612C168.594 16.3848 167.121 14.2044 165.274 12.3646C164.316 14.7465 163.648 17.2347 163.283 19.7757L162.091 19.9958C162.624 17.3672 162.64 14.6599 162.137 12.0253C158.379 14.5453 155.179 17.8109 152.735 21.6193C152.57 21.8761 152.433 22.1513 152.268 22.4081L150.13 23.0501C149.507 21.6773 148.633 20.433 147.553 19.3813C146.968 20.9281 146.583 22.5432 146.407 24.1875C145.416 24.5085 144.425 24.8479 143.435 25.1872C143.526 22.366 143.036 19.5562 141.995 16.9323C138.763 20.1536 136.225 24.0023 134.538 28.2416C134.538 28.3058 134.538 28.3791 134.464 28.4525C134.128 24.9983 132.957 21.6775 131.052 18.7759C128.577 22.6097 126.908 26.9068 126.145 31.4059C126.142 31.4731 126.142 31.5405 126.145 31.6077H126.035C126.22 29.6187 125.934 27.614 125.201 25.7559C123.26 27.6993 121.737 30.0183 120.725 32.5708C120.55 32.9835 120.413 33.4055 120.266 33.8274L120.037 33.9191C120.695 30.0298 120.296 26.0352 118.881 22.3531C115.666 25.5666 113.142 29.4024 111.461 33.6256C110.885 35.063 110.395 36.5331 109.993 38.0282L109.544 38.2208C108.391 33.6442 105.824 29.5483 102.206 26.5172C100.961 30.922 100.615 35.5322 101.188 40.0736C101.188 40.1561 101.188 40.2387 101.234 40.3212C99.2799 37.4862 96.6511 35.182 93.5844 33.6164C93.3127 37.5491 93.7381 41.4988 94.841 45.2834L93.2909 46.1455C91.3389 43.9084 88.6887 42.3959 85.7697 41.853C85.9976 42.854 86.3043 43.8354 86.6869 44.7881C86.0734 44.1279 85.4111 43.5147 84.7058 42.9536C83.838 45.9921 83.4147 49.1402 83.4492 52.3C82.9172 52.6669 82.3944 53.043 81.8808 53.419C80.9381 49.9998 79.1532 46.8716 76.6893 44.3203C75.1542 48.0601 74.309 52.0471 74.1945 56.0881C74.1337 53.7116 73.4334 51.3954 72.1675 49.3833C71.344 50.6054 70.6668 51.9199 70.1496 53.2998C69.7054 52.2348 69.165 51.2124 68.5353 50.2455C66.0043 54.0386 64.2636 58.3029 63.4173 62.7837C63.15 64.2217 62.9602 65.673 62.8486 67.1313C62.6193 66.9937 62.3992 66.8653 62.1699 66.7461C62.1699 66.8653 62.1699 66.9937 62.1699 67.113C59.7413 64.5486 56.693 62.6532 53.3188 61.6097C53.7662 66.1549 55.1263 70.5629 57.3178 74.5699C57.7673 75.3954 58.235 76.1934 58.7579 76.973L58.4185 77.4316C56.41 73.0835 53.0516 69.5 48.8428 67.2139C48.4879 71.777 49.0524 76.365 50.503 80.706C51.103 82.5158 51.8294 84.2812 52.6768 85.9892C52.5667 86.1726 52.4474 86.3561 52.3282 86.5395C52.1081 86.3744 51.8788 86.2093 51.6495 86.0626C48.9513 84.2649 45.6906 83.5117 42.4774 83.9438C43.8797 86.3057 45.7529 88.3538 47.9806 89.9607C48.531 90.3643 49.0905 90.7403 49.6683 91.0981C49.0629 92.1437 48.4576 93.1893 47.8339 94.2441C45.1235 90.7611 41.4049 88.1988 37.1851 86.9064C37.6775 91.4323 39.0782 95.8123 41.3033 99.784C41.3033 99.8574 41.3859 99.9216 41.4317 99.995C38.5556 98.1457 35.2584 97.0539 31.8469 96.8215C33.2814 101.142 35.578 105.127 38.5976 108.534C38.9644 108.956 39.368 109.341 39.7532 109.745V109.828C38.1619 107.954 36.0628 106.581 33.7088 105.874C34.0106 108.619 34.8655 111.274 36.222 113.68C36.5247 114.23 36.864 114.762 37.2034 115.285V115.386C34.5461 112.323 31.0623 110.09 27.1691 108.956C27.676 113.491 29.0856 117.879 31.3149 121.861C31.8958 122.895 32.5073 123.904 33.1493 124.888C32.7916 125.805 32.4431 126.805 32.1037 127.768C28.5264 127.414 24.919 128.012 21.6475 129.502C24.0365 131.834 26.7831 133.769 29.7832 135.234C29.4805 136.344 29.187 137.463 28.921 138.591C27.0482 138.874 25.2673 139.59 23.7204 140.682C25.0569 141.577 26.5066 142.29 28.0313 142.801C27.9762 143.086 27.9304 143.37 27.8754 143.654C23.7606 141.125 18.9159 140.049 14.1172 140.6C16.313 144.563 19.3009 148.032 22.8949 150.79C24.1313 151.739 25.4238 152.612 26.7655 153.404L26.7105 154.569C23.4834 154.665 20.3992 155.922 18.0245 158.11C20.4745 159.264 23.1404 159.889 25.8483 159.944C26.1235 159.944 26.3895 159.944 26.6646 159.944C26.6646 161.026 26.7288 162.118 26.793 163.209C22.9949 162.257 19.0035 162.413 15.2912 163.659C18.1961 167.109 21.7845 169.919 25.83 171.914L26.0593 172.014C22.6429 172.144 19.3158 173.141 16.3919 174.913C19.9477 177.662 24.0412 179.634 28.4073 180.7C28.8109 180.801 29.2328 180.866 29.6456 180.957V181.04C27.3989 180.508 25.0486 180.613 22.8582 181.342C24.6142 183.428 26.781 185.13 29.2237 186.341C29.9765 186.711 30.748 187.042 31.535 187.332V187.387C27.478 186.2 23.1558 186.277 19.1435 187.607C22.0484 191.057 25.6368 193.868 29.6823 195.862C31.7455 196.887 33.8937 197.731 36.1027 198.384L37.02 200.219C32.3045 200.563 27.8321 202.444 24.2891 205.575C28.286 207.588 32.6603 208.741 37.13 208.96C38.7843 209.039 40.442 209.009 42.0921 208.868C42.2756 209.143 42.4498 209.418 42.6333 209.684C42.5691 209.739 42.4865 209.785 42.4223 209.831C39.7652 211.78 37.8839 214.607 37.1117 217.811C39.784 217.349 42.3303 216.334 44.5869 214.83C44.9905 214.573 45.3666 214.28 45.7518 213.995C46.4581 214.912 47.1827 215.83 47.9164 216.692C43.9072 218.059 40.3952 220.588 37.8271 223.956C42.1405 225.147 46.6566 225.416 51.0808 224.745L51.3284 224.699C48.5646 226.779 46.3588 229.511 44.908 232.651C49.3798 232.88 53.8495 232.161 58.0241 230.542C58.9413 230.175 59.9227 229.762 60.8491 229.322L61.0509 229.478C58.1689 230.21 55.6168 231.89 53.8049 234.247C56.4105 234.969 59.1393 235.132 61.8122 234.724C62.8985 234.561 63.9714 234.319 65.0224 234C60.7063 235.327 56.9127 237.969 54.1718 241.557C58.4865 242.741 63.0017 243.007 67.4255 242.337C69.9992 241.955 72.528 241.316 74.9742 240.429C72.1274 244.488 70.6727 249.361 70.8284 254.316C74.8928 252.363 78.5091 249.59 81.4497 246.171C82.392 245.076 83.2738 243.931 84.0912 242.741L85.0084 243.089C84.596 243.485 84.2071 243.905 83.8436 244.346C81.7105 246.878 80.5353 250.079 80.5233 253.389C83.0778 252.298 85.3745 250.683 87.2648 248.647C88.3405 247.47 89.3046 246.196 90.1448 244.841L90.741 245.024C90.0913 245.619 89.4787 246.253 88.9066 246.923C85.412 251.115 83.0915 256.435 83.1557 261.782C87.3119 260.042 91.0602 257.455 94.1622 254.187C95.8286 252.452 97.3358 250.57 98.6657 248.565C98.5011 249.272 98.3847 249.989 98.3172 250.711C97.9693 254.006 98.7837 257.318 100.619 260.076C102.045 257.722 102.981 255.105 103.371 252.38C103.58 251.015 103.675 249.634 103.655 248.253C105.068 248.501 106.48 248.702 107.902 248.886C105.541 253.391 104.726 258.547 105.581 263.561C109.335 261.033 112.526 257.757 114.955 253.94L115.084 253.72C114.776 257.216 115.333 260.735 116.707 263.965C119.846 260.675 122.28 256.78 123.862 252.518C124.228 251.601 124.531 250.619 124.779 249.656H124.981C123.662 252.306 123.225 255.308 123.733 258.223C126.002 256.695 127.931 254.715 129.401 252.408C130.003 251.464 130.539 250.48 131.007 249.464C129.107 253.633 128.518 258.28 129.319 262.791C133.068 260.254 136.258 256.977 138.693 253.16C139.869 251.335 140.897 249.418 141.765 247.428L142.609 247.253C143.785 251.629 146.272 255.54 149.736 258.462C150.966 254.202 151.352 249.744 150.873 245.336C151.506 245.18 152.148 245.034 152.781 244.869C153.911 247.668 155.941 250.01 158.55 251.527C158.82 248.87 158.574 246.185 157.826 243.621C168.787 240.87 179.738 238.228 190.974 238.054C192.377 238.054 193.771 238.054 195.175 238.109C194.513 240.554 194.311 243.101 194.579 245.621C197.352 243.999 199.471 241.459 200.568 238.439C201.164 238.485 201.76 238.549 202.356 238.613C202.356 238.751 202.311 238.879 202.292 239.017C201.751 243.561 202.125 248.167 203.393 252.564C207.143 249.351 209.74 244.999 210.786 240.172C211.767 242.629 212.977 244.987 214.399 247.217C216.831 251.035 220.022 254.314 223.773 256.847C224.575 252.34 223.99 247.696 222.095 243.529C222.564 244.542 223.101 245.523 223.7 246.464C225.17 248.774 227.099 250.757 229.368 252.289C229.887 249.039 229.261 245.709 227.598 242.869L228.011 242.942C228.35 244.181 228.726 245.41 229.185 246.611C230.775 250.871 233.212 254.765 236.348 258.058C237.691 254.839 238.226 251.341 237.908 247.868L238.036 248.088C240.468 251.904 243.659 255.178 247.41 257.709C248.154 253.595 247.722 249.354 246.162 245.474C247.291 245.556 248.41 245.621 249.529 245.657C249.529 245.942 249.574 246.226 249.62 246.51C250.009 249.238 250.945 251.858 252.372 254.215C254.066 251.698 254.888 248.695 254.711 245.667C255.28 245.667 255.857 245.667 256.426 245.584C257.187 246.501 257.985 247.418 258.82 248.336C261.924 251.601 265.672 254.187 269.827 255.93C269.785 251.757 268.564 247.681 266.304 244.171L266.992 243.997C268.563 245.453 270.368 246.634 272.331 247.492C272.351 245.832 272.039 244.186 271.413 242.649C271.954 242.456 272.496 242.245 273.028 242.034C275.62 244.682 278.656 246.855 281.998 248.455C282.154 245.073 281.503 241.703 280.099 238.622C281.408 237.864 282.686 237.057 283.933 236.201C284.429 236.293 284.905 236.403 285.401 236.476C289.825 237.147 294.341 236.879 298.654 235.687C296.854 233.282 294.542 231.305 291.885 229.9L292.803 229.028C294.891 229.165 296.987 228.948 299.003 228.386C298.24 227.345 297.31 226.437 296.251 225.699L296.637 225.304C300.277 226.487 304.105 226.991 307.927 226.79C306.587 223.874 304.587 221.308 302.085 219.297L302.378 218.957C306.606 219.526 310.906 219.233 315.018 218.095C313.141 215.585 310.707 213.545 307.909 212.133C308.826 210.987 309.661 209.822 310.523 208.657C311.706 208.703 312.89 208.703 314.082 208.657C318.553 208.439 322.928 207.283 326.923 205.263C323.959 202.618 320.304 200.868 316.384 200.219C317.081 199.146 317.769 198.054 318.439 196.963C319.475 196.55 320.502 196.1 321.502 195.596C325.545 193.598 329.133 190.788 332.041 187.341C329.608 186.504 327.032 186.161 324.465 186.332C324.942 185.415 325.382 184.498 325.831 183.58C326.745 182.839 327.586 182.012 328.345 181.113C327.96 180.978 327.568 180.864 327.171 180.774C327.492 180.068 327.794 179.343 328.088 178.628C330.492 177.607 332.755 176.282 334.82 174.684C333.463 173.85 332.005 173.193 330.482 172.73C331.481 170.052 332.38 167.327 333.178 164.585C334.557 163.438 335.831 162.17 336.985 160.797C336.133 160.502 335.259 160.275 334.371 160.118C334.499 159.595 334.618 159.073 334.738 158.55C336.773 158.315 338.756 157.748 340.608 156.871C339.269 155.521 337.632 154.503 335.829 153.9C336.135 152.23 336.395 150.555 336.609 148.873C339.887 146.213 342.627 142.95 344.68 139.261C344.451 139.261 344.212 139.215 343.974 139.197C344.703 138.834 345.408 138.423 346.083 137.968C343.508 136.233 340.403 135.464 337.315 135.794ZM250.446 54.162L250.29 54.2262L250.345 54.0702L250.446 54.162ZM74.167 57.8675C74.167 58.4362 74.222 59.0048 74.2496 59.5643L73.9102 59.867C73.9836 59.5185 74.0478 59.1699 74.0845 58.8397C74.1212 58.5095 74.1487 58.1885 74.167 57.8675ZM66.7559 233.449H66.811L66.224 233.605L66.7559 233.449ZM221.59 242.511C221.444 242.209 221.297 241.915 221.141 241.594H221.251C221.361 241.952 221.471 242.227 221.59 242.511Z" fill="black"/>
</g>
<path d="M284.74 204.557C290.546 200.998 295.609 195.972 298.095 190.34C292.632 191.194 287.357 192.984 282.502 195.633C277.573 198.301 272.994 201.573 268.873 205.373C266.662 207.391 264.516 209.62 263.516 212.142C269.927 210.767 278.962 208.116 284.74 204.557Z" fill="#97E95C"/>
<path d="M264.58 200.228C268.35 197.917 271.633 194.66 273.248 191.001C269.713 191.56 266.301 192.72 263.158 194.431C259.958 196.167 256.985 198.292 254.307 200.76C252.839 201.951 251.652 203.451 250.831 205.153C254.959 204.282 260.81 202.512 264.58 200.228Z" fill="#97E95C"/>
<path d="M258.508 186.818C258.648 184.22 258.009 181.64 256.674 179.407C255.79 181.38 255.247 183.489 255.069 185.644C254.889 187.83 254.981 190.03 255.344 192.193C255.46 193.326 255.827 194.42 256.417 195.394C257.548 192.659 258.253 189.767 258.508 186.818Z" fill="#97E95C"/>
<path d="M269.056 185.552C271.56 181.884 273.229 177.591 273.211 173.629C270.196 175.584 267.537 178.041 265.35 180.893C263.134 183.784 261.285 186.939 259.847 190.285C258.997 191.973 258.524 193.826 258.462 195.715C261.92 193.174 266.552 189.203 269.056 185.552Z" fill="#97E95C"/>
<path d="M230.909 198.256C235.027 196.632 238.834 193.991 241.053 190.661C237.461 190.593 233.884 191.142 230.478 192.285C227.02 193.444 223.72 195.031 220.655 197.008C219.001 197.924 217.572 199.196 216.472 200.732C220.737 200.567 226.8 199.87 230.909 198.256Z" fill="#97E95C"/>
<path d="M239.522 103.783C237.77 99.7198 235.009 96.0051 231.615 93.8955C231.659 97.4892 232.323 101.048 233.578 104.416C234.838 107.832 236.521 111.076 238.586 114.074C239.559 115.696 240.877 117.084 242.448 118.137C242.127 113.882 241.237 107.846 239.522 103.783Z" fill="#97E95C"/>
<path d="M235.422 114.835C233.101 112.796 230.229 111.487 227.167 111.075C228.369 113.361 229.955 115.424 231.854 117.174C233.778 118.961 235.916 120.501 238.219 121.76C239.372 122.481 240.668 122.941 242.017 123.109C240.251 120.032 238.027 117.243 235.422 114.835Z" fill="#97E95C"/>
<path d="M247.942 112.625C248.335 110.444 247.911 108.193 246.749 106.305C245.632 107.734 244.84 109.39 244.429 111.157C244.024 112.922 243.906 114.74 244.08 116.542C244.107 117.516 244.392 118.465 244.906 119.293C246.339 117.287 247.37 115.023 247.942 112.625Z" fill="#97E95C"/>
<path d="M281.255 233.77C283.713 237.256 287.171 239.916 291.051 240.613C290.512 237.007 289.265 233.544 287.382 230.422C285.577 227.442 283.308 224.77 280.659 222.507C279.382 221.232 277.764 220.353 275.999 219.975C276.953 224.332 278.806 230.285 281.255 233.77Z" fill="#97E95C"/>
<path d="M288.849 212.078C290.679 209.916 291.59 207.125 291.39 204.3C289.136 205.37 287.113 206.872 285.437 208.721C283.837 210.493 282.536 212.512 281.585 214.701C281 215.791 280.742 217.027 280.842 218.26C283.548 216.783 287.052 214.38 288.849 212.078Z" fill="#97E95C"/>
<path d="M248.07 201.237C249.9 199.075 250.811 196.284 250.611 193.459C248.351 194.54 246.328 196.058 244.658 197.926C243.059 199.699 241.755 201.719 240.797 203.906C240.219 204.998 239.964 206.233 240.063 207.465C242.741 205.942 246.272 203.539 248.07 201.237Z" fill="#97E95C"/>
<path d="M208.804 179.425C212.776 177.591 216.142 174.537 217.499 170.73C213.745 170.604 210.003 171.228 206.493 172.565C203.168 173.869 200.074 175.7 197.33 177.985C195.806 179.049 194.621 180.53 193.918 182.25C198.467 182.085 204.833 181.287 208.804 179.425Z" fill="#97E95C"/>
<path d="M256.554 137.069C258.668 136.176 260.349 134.495 261.241 132.382C259.219 132.327 257.206 132.67 255.316 133.391C253.514 134.087 251.835 135.069 250.345 136.298C249.526 136.874 248.889 137.673 248.51 138.6C251.261 138.566 253.984 138.047 256.554 137.069Z" fill="#97E95C"/>
<path d="M289.271 98.6926C290.894 97.0692 291.821 94.8786 291.858 92.5839C289.963 93.2876 288.227 94.3601 286.749 95.7391C285.335 97.0679 284.146 98.6166 283.227 100.325C282.68 101.166 282.387 102.147 282.383 103.15C284.925 102.083 287.257 100.574 289.271 98.6926Z" fill="#97E95C"/>
<path d="M313.385 143.076C315.006 141.453 315.931 139.262 315.962 136.968C314.068 137.677 312.332 138.752 310.853 140.132C309.44 141.461 308.251 143.01 307.331 144.718C306.791 145.539 306.496 146.497 306.478 147.479C309.018 146.422 311.355 144.933 313.385 143.076Z" fill="#97E95C"/>
<path d="M136.363 213.289C137.99 211.669 138.919 209.476 138.95 207.18C137.055 207.889 135.319 208.965 133.841 210.345C132.425 211.672 131.235 213.221 130.319 214.931C129.775 215.769 129.485 216.747 129.484 217.747C132.022 216.677 134.35 215.168 136.363 213.289Z" fill="#97E95C"/>
<path d="M217.123 100.564C220.312 100.754 223.449 99.6909 225.865 97.601C223.376 96.2837 220.652 95.4731 217.848 95.2163C215.169 94.9714 212.469 95.1603 209.85 95.7758C208.486 95.996 207.214 96.6006 206.181 97.5185C209.254 98.931 213.84 100.499 217.123 100.564Z" fill="#97E95C"/>
<path d="M249.556 189.762C251.385 187.597 252.297 184.803 252.097 181.975C249.836 183.043 247.81 184.549 246.135 186.405C244.537 188.193 243.233 190.225 242.273 192.422C241.691 193.513 241.437 194.749 241.54 195.981C244.218 194.459 247.777 192.065 249.556 189.762Z" fill="#97E95C"/>
<path d="M239.613 231.413C239.861 230.245 239.869 229.039 239.637 227.867C239.406 226.696 238.939 225.584 238.265 224.598C236.971 226.276 236.034 228.203 235.513 230.257C235.021 232.21 234.866 234.232 235.055 236.237C235.06 237.288 235.379 238.314 235.972 239.182C237.449 237.026 239.192 233.834 239.613 231.413Z" fill="#97E95C"/>
<path d="M208.107 222.305C208.617 221.223 208.9 220.048 208.939 218.853C208.979 217.657 208.773 216.466 208.336 215.353C206.679 216.677 205.317 218.333 204.337 220.214C203.403 221.999 202.782 223.932 202.503 225.928C202.271 226.956 202.354 228.03 202.741 229.01C204.668 227.276 207.135 224.571 208.107 222.305Z" fill="#97E95C"/>
<path d="M287.345 218.104C295.774 215.518 304.524 212.739 310.826 206.703C314.907 202.796 317.677 197.77 320.383 192.826C307.754 199.066 296.464 207.708 287.143 218.269" fill="#97E95C"/>
<path d="M278.733 119.045C286.813 115.533 295.242 111.799 300.791 105.104C304.414 100.765 304.781 94.8861 306.928 89.6763C286.877 99.0686 286.565 107.764 278.549 119.229" fill="#97E95C"/>
<path d="M210.171 77.3582C213.326 69.1033 216.527 60.5274 215.674 51.8414C215.106 46.2189 211.162 41.8438 208.933 36.6707C201.595 57.5648 207.612 63.8752 210.199 77.6242" fill="#97E95C"/>
<path d="M220.49 83.1825C229.258 84.0997 238.394 84.9711 246.557 81.8801C251.84 79.8806 255.05 74.9368 259.471 71.4514C237.394 69.7821 232.872 77.2115 220.233 83.2559" fill="#97E95C"/>
<path d="M206.823 137.133C211.844 136.606 216.881 137.962 220.957 140.939C217.526 143.256 213.628 144.79 209.538 145.434C205.466 146.071 201.317 146.034 197.257 145.324C195.033 145.095 192.911 144.274 191.111 142.948C195.441 140.444 201.861 137.546 206.823 137.133Z" fill="#97E95C"/>
<path d="M266.946 159.403C271.597 157.392 276.83 157.19 281.622 158.834C279.034 162.068 275.768 164.694 272.055 166.529C268.354 168.341 264.382 169.536 260.297 170.07C258.105 170.513 255.835 170.364 253.72 169.639C257.068 165.942 262.333 161.237 266.946 159.403Z" fill="#97E95C"/>
<path d="M249.868 159.623C251.121 157.344 253.172 155.609 255.628 154.753C255.609 156.888 255.117 158.993 254.188 160.916C253.256 162.827 252.016 164.571 250.519 166.08C249.775 166.962 248.805 167.625 247.712 167.997C247.933 165.42 248.593 161.852 249.868 159.623Z" fill="#97E95C"/>
<path d="M205.833 129.988C208.753 128.374 212.168 127.9 215.418 128.658C213.929 130.958 211.949 132.9 209.621 134.345C207.306 135.781 204.772 136.828 202.118 137.445C200.704 137.88 199.2 137.928 197.761 137.582C199.752 134.941 202.916 131.52 205.833 129.988Z" fill="#97E95C"/>
<path d="M173.877 137.903C174.889 134.051 177.295 130.711 180.628 128.529C181.388 131.708 181.435 135.016 180.765 138.215C180.099 141.398 178.916 144.45 177.262 147.25C176.475 148.828 175.281 150.167 173.804 151.13C173.152 147.231 172.804 141.691 173.877 137.903Z" fill="#97E95C"/>
<path d="M152.387 123.852C149.906 120.74 148.67 116.817 148.92 112.845C151.918 114.144 154.595 116.085 156.762 118.532C158.919 120.98 160.654 123.77 161.898 126.787C162.691 128.361 163.049 130.118 162.935 131.877C159.412 130.052 154.762 126.979 152.387 123.852Z" fill="#97E95C"/>
<path d="M320.301 116.789C323.667 112.056 325.584 106.177 324.887 100.399C320.517 102.482 316.657 105.497 313.577 109.231C310.523 112.941 308.1 117.127 306.405 121.623C305.488 124.026 304.708 126.612 305.148 129.162C310.211 126.282 316.934 121.531 320.301 116.789Z" fill="#97E95C"/>
<path d="M286.731 138.793C295.536 139.151 304.708 139.444 312.66 135.849C317.806 133.519 322.089 129.703 326.281 125.943C312.297 127.627 298.775 132.023 286.474 138.885" fill="#97E95C"/>
<path d="M6.83447 140.004C6.83447 142.453 14.75 147.873 16.8229 149.249C23.9405 153.964 25.5548 155.064 33.6262 157.972C41.6977 160.88 51.6036 158.981 59.6108 155.927L59.9318 155.716C41.4042 155.083 25.2062 142.691 6.83447 140.004Z" fill="#97E95C"/>
<path d="M53.0527 111.258C48.9436 105.975 40.5328 99.0777 35.6257 94.5467C35.1304 101.563 40.3677 111.001 43.9815 116.826C47.5953 122.65 53.9149 126.695 60.2253 129.08C58.9412 122.375 57.171 116.541 53.0527 111.258Z" fill="#97E95C"/>
<path d="M63.4172 112.689C65.2516 105.141 65.0315 97.5735 64.8113 90.1349C60.3812 92.428 57.0425 97.1516 55.6392 102.059C54.3793 106.777 54.4907 111.756 55.9602 116.413C57.2902 120.852 59.0604 125.264 59.0604 125.264C60.8262 121.188 62.2826 116.984 63.4172 112.689Z" fill="#97E95C"/>
<path d="M67.8748 115.441C68.4618 112.689 68.4801 109.873 69.7092 107.186C68.4431 108.328 67.2912 109.59 66.2697 110.956C65.1848 112.432 64.4224 114.119 64.0317 115.909C63.8531 117.156 63.8531 118.422 64.0317 119.669C64.1968 121.449 64.0317 123.512 64.1784 125.292C65.7757 122.157 67.0156 118.853 67.8748 115.441Z" fill="#97E95C"/>
<path d="M279.155 77.2849C280.815 71.7082 280.732 65.5262 278.173 60.2981C274.718 63.671 272.039 67.7554 270.322 72.2677C268.626 76.7603 267.68 81.5015 267.524 86.301C267.423 88.8784 267.524 91.575 268.763 93.8589C272.661 89.5204 277.494 82.8523 279.155 77.2849Z" fill="#97E95C"/>
<path d="M111.351 227.799C107.494 226.321 103.236 226.269 99.3443 227.652C95.4925 229.04 92.2799 231.786 90.3098 235.375C94.3151 236.104 98.4146 236.15 102.435 235.513C106.416 234.742 110.287 232.761 112.58 229.468L111.351 227.799Z" fill="#97E95C"/>
<path d="M104.233 190.285C104.097 190.235 103.947 190.235 103.811 190.285C102.297 190.858 101.009 191.908 100.142 193.275C99.2817 194.641 98.9098 196.257 99.0876 197.861L99.4361 198.293C101.623 196.296 103.315 193.818 104.38 191.056C104.453 190.79 104.508 190.405 104.233 190.285Z" fill="#97E95C"/>
<path d="M59.7484 186.002C54.5019 181.783 44.6878 176.958 38.8818 173.647C40.0467 180.581 47.366 188.588 52.2548 193.459C57.1435 198.329 64.2427 200.796 70.9476 201.714C68.1317 195.532 65.0315 190.258 59.7484 186.002Z" fill="#97E95C"/>
<path d="M75.6162 188.515C74.91 180.792 72.2684 173.675 69.6544 166.676C66.1781 170.226 64.5455 175.729 64.8023 180.801C65.133 185.684 66.8444 190.373 69.7369 194.321C72.4335 198.137 75.5429 201.769 75.5429 201.769C75.8927 197.359 75.9172 192.929 75.6162 188.515Z" fill="#97E95C"/>
<path d="M50.0351 209.602C42.3214 201.677 34.2224 193.505 24.2982 190.588C17.8777 188.708 11.0995 189.185 4.44971 189.671C18.0649 199.663 33.7285 206.508 50.3103 209.712" fill="#97E95C"/>
<path d="M49.6589 208.547C48.2464 199.769 46.6963 190.68 42.1286 186.094C39.166 183.113 35.1211 182.241 31.1221 181.407C35.2679 193.44 41.6333 202.768 49.7598 208.712" fill="#97E95C"/>
<path d="M33.3235 208.309C27.5818 208.648 21.8309 210.73 17.731 214.729C22.0492 216.713 26.7374 217.763 31.4891 217.811C36.2448 217.857 40.9778 217.151 45.5133 215.72C47.9531 214.977 50.4387 214.004 52.1631 212.161C46.9074 210.106 39.0653 208.015 33.3235 208.309Z" fill="#97E95C"/>
<path d="M195.688 34.7538C203.026 31.727 209.263 26.9483 215.362 22.2338C210.886 19.8399 205.016 19.8674 200.118 21.6468C195.406 23.4718 191.304 26.5908 188.286 30.6447C185.333 34.4878 182.664 38.6794 182.664 38.6794C187.099 37.7038 191.453 36.3915 195.688 34.7538Z" fill="#97E95C"/>
<path d="M94.474 75.8448C84.5681 68.2595 74.1853 60.4632 61.858 58.005C53.8691 56.4091 45.605 57.1796 37.4968 58.005C55.312 67.5395 74.7677 73.6233 94.8409 75.9365" fill="#97E95C"/>
<path d="M98.4638 94.9962C92.5203 95.0513 86.485 96.9132 82.0916 100.821C86.4481 103.084 91.2331 104.403 96.1341 104.691C101.038 104.976 105.957 104.487 110.709 103.242C113.258 102.6 115.872 101.719 117.744 99.9033C112.332 97.5277 104.398 94.9412 98.4638 94.9962Z" fill="#97E95C"/>
<path d="M75.139 126.466C74.9739 122.384 73.8733 118.211 71.7453 115.294C70.6539 118.421 70.0807 121.705 70.0485 125.016C70.0113 128.383 70.3746 131.742 71.1308 135.023C71.4122 136.738 72.0564 138.374 73.0203 139.82C74.1301 136.051 75.3408 130.547 75.139 126.466Z" fill="#97E95C"/>
<path d="M131.584 56.2899C132.568 53.2158 132.366 49.8847 131.016 46.9527C129.12 48.8211 127.655 51.0812 126.723 53.575C125.802 56.0496 125.294 58.6586 125.219 61.2979C125.073 62.7174 125.314 64.15 125.916 65.4437C128.044 63.0314 130.686 59.3534 131.584 56.2899Z" fill="#97E95C"/>
<path d="M125.788 50.3372C125.685 47.993 124.722 45.769 123.082 44.091C122.25 45.8074 121.808 47.6868 121.789 49.5943C121.785 51.509 122.095 53.4113 122.706 55.2259C122.965 56.2341 123.487 57.1552 124.219 57.895C125.226 55.501 125.759 52.9342 125.788 50.3372Z" fill="#97E95C"/>
<path d="M187.305 46.8243C188.879 45.0875 189.754 42.83 189.763 40.4863C187.942 41.1718 186.287 42.2381 184.911 43.614C183.551 44.9799 182.421 46.5564 181.563 48.2826C181.038 49.175 180.759 50.1912 180.756 51.2269C183.198 50.1865 185.42 48.6925 187.305 46.8243Z" fill="#97E95C"/>
<path d="M103.105 28.6543C99.0274 24.295 93.5202 21.5446 87.5857 20.9039C88.8563 25.5681 91.1322 29.8977 94.2538 33.5889C97.3977 37.2948 101.113 40.4748 105.26 43.0087C107.48 44.4028 109.92 45.6686 112.598 45.7603C110.663 40.2845 107.196 32.8276 103.105 28.6543Z" fill="#97E95C"/>
<path d="M119.973 37.2761C120.279 33.6157 119.217 29.9718 116.992 27.0492C115.357 29.5797 114.299 32.4385 113.891 35.4233C113.489 38.3926 113.579 41.4078 114.157 44.3478C114.365 45.961 114.998 47.49 115.992 48.7779C117.735 45.5952 119.743 40.8899 119.973 37.2761Z" fill="#97E95C"/>
<path d="M103.151 47.9616C101.05 47.4492 99.1929 46.2238 97.8953 44.4945C99.65 44.1322 101.46 44.1322 103.215 44.4945C104.971 44.8487 106.662 45.4672 108.232 46.329C109.101 46.7202 109.853 47.3301 110.415 48.0992C108.005 48.4896 105.544 48.443 103.151 47.9616Z" fill="#97E95C"/>
<path d="M107.893 105.572C104.372 107.283 101.594 110.217 100.078 113.827C103.328 113.877 106.551 113.236 109.535 111.946C112.497 110.663 115.237 108.917 117.652 106.773C119.024 105.722 120.094 104.327 120.752 102.728C116.826 102.948 111.36 103.783 107.893 105.572Z" fill="#97E95C"/>
<path d="M49.2737 128.419C45.3568 127.847 41.3644 128.696 38.0195 130.813C40.6694 132.681 43.6867 133.963 46.8706 134.574C50.0601 135.182 53.3252 135.287 56.5472 134.886C58.2971 134.791 59.9933 134.248 61.4726 133.308C58.134 131.281 53.1719 128.896 49.2737 128.419Z" fill="#97E95C"/>
<path d="M53.4289 143.718C50.3561 141.238 46.4982 139.937 42.5508 140.05C43.8039 142.992 45.6816 145.627 48.054 147.773C50.464 149.932 53.2045 151.691 56.1714 152.982C57.7243 153.799 59.4622 154.2 61.216 154.147C59.455 150.68 56.5016 146.112 53.4289 143.718Z" fill="#97E95C"/>
<path d="M59.7484 166.337C58.6432 168.894 58.5256 171.77 59.4182 174.408C61.2157 172.966 62.6747 171.147 63.6924 169.079C64.7009 167.033 65.37 164.837 65.6736 162.576C65.9261 161.354 65.8437 160.087 65.4351 158.908C63.3438 160.843 60.7481 163.778 59.7484 166.337Z" fill="#97E95C"/>
<path d="M48.3657 160.898C43.4769 162.677 38.9092 165.576 36.1667 169.226C40.3894 169.302 44.5971 168.705 48.6316 167.456C52.7199 166.198 56.6476 164.468 60.3353 162.301C62.2891 161.305 64.0135 159.911 65.3983 158.21C60.3903 158.357 53.2544 159.118 48.3657 160.898Z" fill="#97E95C"/>
<path d="M55.52 222.406C50.8514 225.992 46.9991 230.771 45.4307 235.834C50.0871 234.615 54.4969 232.598 58.4642 229.872C62.4602 227.141 66.0912 223.911 69.269 220.26C70.975 218.334 72.5985 216.224 73.1855 213.968C67.7464 215.71 60.1886 218.829 55.52 222.406Z" fill="#97E95C"/>
<path d="M68.6637 226.726C67.1097 229.857 66.7826 233.456 67.7465 236.815C70.0718 235.106 72.002 232.916 73.4057 230.395C74.7862 227.892 75.7497 225.182 76.2582 222.369C76.6426 220.877 76.6172 219.308 76.1848 217.829C73.5066 220.067 70.1221 223.608 68.6637 226.726Z" fill="#97E95C"/>
<path d="M155.689 41.3668C153.102 36.0394 148.669 31.8319 143.215 29.5256C143.024 34.3318 143.898 39.1206 145.774 43.5498C147.647 48.0055 150.231 52.1283 153.423 55.7579C155.138 57.7207 157.092 59.6285 159.578 60.4907C159.403 54.6572 158.33 46.5858 155.689 41.3668Z" fill="#97E95C"/>
<path d="M150.791 60.2889C147.625 57.9309 143.723 56.7766 139.784 57.0328C141.172 59.9258 143.172 62.4827 145.645 64.5264C148.137 66.5785 150.939 68.2223 153.946 69.3968C155.531 70.1381 157.283 70.4542 159.027 70.314C157.11 66.9937 153.964 62.5544 150.791 60.2889Z" fill="#97E95C"/>
<path d="M164.641 167.162C167.146 162.998 169.99 159.047 173.143 155.349C176.399 151.68 179.564 148.011 183.764 145.351C187.488 143.031 193.735 143.012 197.954 142.297L212.207 140.462L198.064 143.003C194.101 143.92 187.837 144.223 184.489 146.553C182.575 147.888 180.839 149.463 179.325 151.24C174.544 156.475 170.425 162.278 167.062 168.52L164.668 167.162H164.641Z" fill="#263238"/>
<path d="M164.723 136.06C161.605 130.997 158.324 126.022 154.882 121.137C159.027 125.417 163.051 129.85 166.952 134.436L164.723 136.06Z" fill="#263238"/>
<path d="M128.658 101.261L94.6665 99.0961L128.732 98.5091L128.658 101.261Z" fill="#263238"/>
<path d="M75.6711 203.988C73.5157 197.953 70.1679 189.588 68.5627 183.47C70.6448 189.386 74.7264 197.495 77.3588 203.282L75.6711 203.988Z" fill="#263238"/>
<path d="M247.602 127.942C257.692 127.209 268.469 126.392 276.742 120.045C280.246 117.294 284.667 112.432 287.905 109.277L298.911 98.2156L288.409 109.754C285.199 113.157 281.136 118.092 277.604 121.109C273.443 124.464 268.586 126.848 263.387 128.089C258.278 129.327 253.085 130.195 247.85 130.685L247.602 127.933V127.942Z" fill="#263238"/>
<path d="M212.703 86.7597C211.712 84.4391 212.171 81.7425 213.088 79.3761C215.056 74.6626 218.391 70.6468 222.663 67.8467C226.953 65.0483 231.709 63.0415 236.706 61.9216C229.252 70.2682 221.471 78.3274 213.363 86.0993" fill="#97E95C"/>
<path d="M198.339 104.471L208.172 76.4594C208.172 76.4594 210.52 79.8347 210.079 80.2016L201.375 106.801L198.339 104.471Z" fill="#263238"/>
<path d="M125.43 97.3626C112.948 88.0795 99.8951 79.5908 86.3477 71.9467C100.374 78.8052 113.954 86.5404 127.008 95.1062L125.439 97.3626H125.43Z" fill="#263238"/>
<path d="M64.0959 133.831C56.5381 126.713 48.3932 119.018 45.3022 108.782C48.9711 118.798 57.3636 125.787 65.3158 132.455L64.0959 133.831Z" fill="#263238"/>
<path d="M80.3488 151.01C64.6003 158.128 43.9172 162.485 29.2693 150.781C40.1749 158.779 54.9512 157.972 67.1226 153.698C71.2511 152.226 75.2826 150.495 79.1931 148.516L80.3488 151.01Z" fill="#263238"/>
<path d="M99.9956 215.83C74.7998 216.829 48.962 213.94 28.4531 197.953C43.688 208.96 62.6835 213.482 81.2478 213.647C87.4573 213.738 93.676 213.454 99.8947 213.087L100.014 215.839L99.9956 215.83Z" fill="#263238"/>
<path d="M48.5859 209.244C45.25 204.974 43.0591 199.922 42.2205 194.569C43.3385 199.791 45.7728 204.64 49.2922 208.657L48.5859 209.235V209.244Z" fill="#263238"/>
<path d="M70.865 201.273C65.2832 196.736 59.3483 192.65 53.1169 189.056C59.6732 192.132 65.9731 195.726 71.9565 199.806L70.865 201.273Z" fill="#263238"/>
<path d="M126.705 227.726C116.088 227.67 105.58 229.858 95.8682 234.146C105.351 228.962 115.822 225.837 126.595 224.974L126.705 227.726Z" fill="#263238"/>
<path d="M163.824 75.5972C160.8 64.236 155.922 53.4516 149.387 43.6782C156.749 53.0401 162.516 63.5517 166.457 74.79L163.824 75.5972Z" fill="#263238"/>
<path d="M164.576 79.9631C166.099 74.579 167.924 69.3418 169.814 64.1137C175.207 49.0072 182.719 30.9381 199.88 26.6731C182.939 31.4151 176.152 49.4291 171.153 64.5814C169.401 69.8279 167.713 75.111 166.347 80.4308L164.576 79.9631Z" fill="#263238"/>
<path d="M124.219 96.6655C124.219 91.1622 124.531 83.3843 124.384 77.9819C124.384 65.4345 118.276 53.9968 110.415 44.5129C106.48 39.6883 102.114 35.2032 97.7668 30.7547C102.28 35.0656 106.801 39.3857 110.938 44.091C119.303 53.419 125.953 65.1043 126.448 77.8994C126.797 83.4026 126.806 91.1255 126.971 96.6838L124.219 96.6655Z" fill="#263238"/>
<path d="M241.906 134.28C246.016 122.191 238.339 109.772 233.606 98.9493C237.953 107.14 243.796 115.817 245.071 125.191C245.564 128.498 245.38 131.872 244.53 135.106L241.906 134.28Z" fill="#263238"/>
<path d="M242.273 176.224C246.385 170.419 249.915 164.222 252.812 157.724C250.186 164.368 246.911 170.737 243.035 176.738L242.273 176.224Z" fill="#263238"/>
<path d="M226.874 133.345C227.468 130.812 228.982 128.589 231.12 127.108C231.671 129.169 231.762 131.327 231.386 133.427C230.999 135.517 230.278 137.53 229.249 139.389C228.761 140.433 228 141.327 227.048 141.976C226.562 139.444 226.241 135.83 226.874 133.345Z" fill="#97E95C"/>
<path d="M223.993 151.368C226.403 144.673 228.148 137.758 229.203 130.722C228.44 137.827 226.98 144.841 224.846 151.661L223.975 151.368H223.993Z" fill="#263238"/>
<path d="M285.291 136.555C297.783 151.762 321.438 155.349 338.196 144.81C321.484 156.358 296.921 153.551 283.227 138.325L285.291 136.491V136.555Z" fill="#263238"/>
<path d="M285.841 219.416L302.488 207.18L286.401 220.14L285.841 219.416Z" fill="#263238"/>
<path d="M204.218 229.643C212.473 226.634 221.095 223.415 227.084 217.077C230.964 212.959 233.505 207.804 235.926 202.732C223.631 209.602 212.793 218.802 204.017 229.817" fill="#97E95C"/>
<path d="M202.778 231.037L218.774 217.976L203.375 231.734L202.778 231.037Z" fill="#263238"/>
<path d="M207.584 79.963C210.518 70.1781 211.294 59.8732 209.859 49.7593C211.911 59.8993 211.739 70.3637 209.355 80.4308L207.584 79.963Z" fill="#263238"/>
<path d="M75.7905 75.2394C68.9756 75.2945 62.0323 76.9821 57.0151 80.5317C62.1403 82.6268 67.5896 83.8185 73.1214 84.0538C78.7217 84.313 84.3325 83.8724 89.8238 82.7422C92.7589 82.1552 95.749 81.3572 97.9044 79.7062C91.6949 77.5416 82.5962 75.1936 75.7905 75.2394Z" fill="#97E95C"/>
<path d="M102.316 62.0683C100.803 57.9225 97.9135 54.0794 97.9594 49.6768C96.2308 51.848 94.8252 54.2576 93.7861 56.831C92.7476 59.4244 92.7116 62.3115 93.6852 64.93C94.6468 66.8771 95.9625 68.6282 97.565 70.0939C99.8213 72.4328 101.564 75.377 103.82 77.7159C103.985 72.4419 104.141 67.0304 102.316 62.0683Z" fill="#97E95C"/>
<path d="M84.0728 191.643C83.7335 188.827 82.853 186.14 83.1556 183.232C82.3226 184.708 81.6375 186.262 81.1102 187.873C80.5543 189.613 80.3761 191.452 80.5874 193.266C80.8133 194.505 81.2116 195.706 81.7706 196.834C82.5044 198.467 82.9997 200.503 83.7335 202.126C84.2423 198.656 84.3562 195.139 84.0728 191.643Z" fill="#97E95C"/>
<path d="M101.591 184.378C101.867 181.443 101.225 178.316 102.509 175.656C100.836 176.497 99.292 177.571 97.9226 178.848C96.5487 180.123 95.6932 181.86 95.5195 183.727C95.5396 185.168 95.8289 186.593 96.3725 187.928C97.0604 189.973 97.2898 192.239 97.9593 194.284C99.592 191.138 101.252 187.891 101.591 184.378Z" fill="#97E95C"/>
<path d="M89.5576 60.5549C86.7601 53.2172 82.0548 46.8885 77.4138 40.6881C74.6621 44.9256 74.3319 50.6582 75.9554 55.5286C77.6782 60.3048 80.7496 64.4787 84.7973 67.5441C88.6863 70.6259 92.9697 73.4509 92.9697 73.4509C92.1829 69.067 91.0418 64.7542 89.5576 60.5549Z" fill="#97E95C"/>
<path d="M265.204 111.203C272.064 105.7 279.154 99.839 282.759 91.9419C285.098 86.7963 285.804 81.1004 286.474 75.5054C277.072 85.9929 269.804 98.2115 265.075 111.478" fill="#97E95C"/>
<path d="M190.057 57.1337C194.533 56.565 198.999 54.6389 203.384 55.6295C201.569 53.5049 199.46 51.6516 197.119 50.1262C194.729 48.5818 191.87 47.932 189.048 48.2918C186.912 48.7908 184.883 49.6701 183.058 50.8875C180.233 52.5385 176.922 53.5749 174.097 55.2259C179.325 56.5008 184.709 57.8032 190.057 57.1337Z" fill="#97E95C"/>
<path d="M204.769 93.0975C214.216 85.7048 225.773 80.2566 237.889 79.8071C225.864 80.5134 214.528 86.2276 205.365 93.8038L204.769 93.0975Z" fill="#263238"/>
<path d="M98.7205 200.466C97.2086 194.374 97.6351 187.961 99.9404 182.122C97.9508 187.973 97.8322 194.298 99.6011 200.219L98.6838 200.457L98.7205 200.466Z" fill="#263238"/>
<path d="M275.77 218.655L286.125 232.936L275.036 219.205L275.77 218.655Z" fill="#263238"/>
<path d="M221.077 243.695C225.204 244.777 229.561 244.612 233 242.612C230.265 240.204 227.083 238.356 223.636 237.173C220.337 236.057 216.881 235.478 213.4 235.458C211.6 235.308 209.795 235.677 208.199 236.522C211.712 239.255 216.958 242.612 221.077 243.695Z" fill="#97E95C"/>
<path d="M207.135 235.669L224.268 239.925L206.942 236.568L207.135 235.669Z" fill="#263238"/>
<path d="M101.775 80.8161C92.9131 78.8756 83.8625 77.9281 74.7908 77.9911C83.8901 77.6234 93.0021 78.2694 101.959 79.9172L101.775 80.8344V80.8161Z" fill="#263238"/>
<path d="M104.527 82.1919C101.714 75.9499 99.3569 69.5126 97.4731 62.9305C99.6407 69.4027 102.277 75.7085 105.361 81.7975L104.527 82.1919Z" fill="#263238"/>
<path d="M118.569 68.8831C118.132 63.0087 115.542 57.5022 111.296 53.4189C109.337 57.8167 108.375 62.5933 108.48 67.4064C108.587 72.1964 109.476 76.9367 111.112 81.4398C112.029 83.8795 113.093 86.3468 115.093 88.0253C117.12 82.5863 119.11 74.6524 118.569 68.8831Z" fill="#97E95C"/>
<path d="M113.79 88.3464C113.213 81.5404 113.13 74.7014 113.543 67.8834C113.431 74.6899 113.818 81.4954 114.698 88.2455L113.781 88.3464H113.79Z" fill="#263238"/>
<path d="M156.193 104.581C159.715 99.9124 161.825 94.079 161.265 88.3005C156.815 90.316 152.849 93.2623 149.635 96.9407C146.467 100.587 143.912 104.722 142.068 109.185C141.059 111.57 140.233 114.138 140.573 116.688C145.792 113.891 152.68 109.25 156.193 104.581Z" fill="#97E95C"/>
<path d="M139.39 116.028C143.604 110.559 148.201 105.398 153.148 100.582C148.447 105.595 144.11 110.938 140.17 116.569L139.427 116.028H139.39Z" fill="#263238"/>
<path d="M251.968 99.4171C251.415 93.5686 253.049 87.7227 256.554 83.0082C259.212 87.0322 260.953 91.5913 261.654 96.3628C262.341 101.113 262.242 105.944 261.36 110.662C260.911 113.203 260.223 115.808 258.526 117.789C255.683 112.708 252.363 105.196 251.968 99.4171Z" fill="#97E95C"/>
<path d="M259.013 117.908C258.754 111.106 258.003 104.331 256.765 97.6378C258.309 104.278 259.367 111.022 259.93 117.816L259.013 117.871V117.908Z" fill="#263238"/>
<path d="M324.272 133.051C327.726 128.289 332.825 124.978 338.581 123.76C337.924 128.538 336.224 133.113 333.6 137.16C330.97 141.188 327.694 144.754 323.905 147.717C321.887 149.332 319.649 150.836 317.072 151.203C318.301 145.498 320.778 137.683 324.272 133.051Z" fill="#97E95C"/>
<path d="M317.365 151.606C321.664 146.323 325.57 140.731 329.051 134.877C325.822 140.899 322.159 146.677 318.09 152.166L317.365 151.606Z" fill="#263238"/>
<path d="M286.639 161.182C288.262 166.474 291.473 171.171 295.994 173.592C296.783 168.917 296.643 164.133 295.582 159.513C294.553 155.101 292.821 150.883 290.454 147.02C289.225 144.984 287.776 142.985 285.712 142.003C285.116 147.782 285.006 155.89 286.639 161.182Z" fill="#97E95C"/>
<path d="M286.868 141.37C288.727 147.687 290.155 154.122 291.143 160.632C289.863 154.204 288.141 147.872 285.988 141.682L286.905 141.407L286.868 141.37Z" fill="#263238"/>
<path d="M191.744 126.145C195.188 121.38 200.282 118.068 206.034 116.853C205.376 121.631 203.676 126.206 201.054 130.254C198.437 134.274 195.181 137.84 191.414 140.811C189.396 142.425 187.158 143.929 184.581 144.296C185.773 138.591 188.25 130.777 191.744 126.145Z" fill="#97E95C"/>
<path d="M184.838 144.727C189.138 139.449 193.044 133.86 196.523 128.007C193.295 134.029 189.631 139.807 185.562 145.296L184.838 144.727Z" fill="#263238"/>
<path d="M132.272 139.463C135.714 134.7 140.805 131.389 146.553 130.171C145.898 134.948 144.201 139.523 141.582 143.572C138.965 147.595 135.705 151.162 131.933 154.129C129.915 155.743 127.686 157.247 125.1 157.614C126.292 151.909 128.778 144.094 132.272 139.463Z" fill="#97E95C"/>
<path d="M123.1 159.88C127.393 154.592 131.298 149.001 134.785 143.15C131.554 149.17 127.891 154.948 123.825 160.439L123.1 159.88Z" fill="#263238"/>
<path d="M111.442 159.128C108.952 156.575 107.498 153.189 107.361 149.625C110.153 150.51 112.715 152.001 114.864 153.991C116.998 155.971 118.793 158.289 120.174 160.852C121.025 162.184 121.501 163.721 121.55 165.3C118.266 163.989 113.864 161.705 111.442 159.128Z" fill="#97E95C"/>
<path d="M121.688 165.31C119.021 162.155 116.127 159.2 113.029 156.468C116.337 158.99 119.458 161.749 122.367 164.723L121.688 165.346V165.31Z" fill="#263238"/>
<path d="M110.268 146.819C108.713 144.418 108.105 141.525 108.562 138.701C110.613 139.831 112.392 141.396 113.772 143.287C115.136 145.184 116.18 147.291 116.863 149.524C117.319 150.706 117.449 151.99 117.239 153.239C114.864 151.716 111.754 149.222 110.268 146.819Z" fill="#97E95C"/>
<path d="M118.358 155.184C116.783 152.272 115.002 149.477 113.029 146.819C115.258 149.298 117.303 151.938 119.147 154.716L118.358 155.184Z" fill="#263238"/>
<path d="M89.9338 203.631C88.0327 200.685 87.2909 197.139 87.8517 193.679C90.383 195.069 92.5755 197.001 94.2722 199.338C95.9418 201.662 97.2213 204.243 98.0603 206.978C98.6234 208.438 98.7818 210.022 98.5189 211.565C95.5655 209.638 91.7591 206.566 89.9338 203.631Z" fill="#97E95C"/>
<path d="M99.9406 213.83C97.9881 210.271 95.7746 206.862 93.3184 203.631C96.0211 206.688 98.498 209.937 100.729 213.353L99.9406 213.83Z" fill="#263238"/>
<path d="M92.8505 171.914C89.3638 172.275 85.867 171.331 83.0364 169.263C85.4202 167.652 88.1286 166.584 90.9702 166.135C93.7997 165.702 96.6808 165.733 99.5003 166.227C101.046 166.379 102.52 166.95 103.765 167.878C100.757 169.621 96.2992 171.62 92.8505 171.914Z" fill="#97E95C"/>
<path d="M106.526 167.658C102.468 167.79 98.4248 168.216 94.4282 168.933C98.3662 167.914 102.373 167.181 106.416 166.741L106.48 167.658H106.526Z" fill="#263238"/>
<path d="M119.248 188.818C114.737 188.699 110.432 186.907 107.168 183.791C110.48 182.135 114.116 181.23 117.817 181.141C121.5 181.049 125.172 181.566 128.686 182.672C130.631 183.132 132.417 184.104 133.859 185.488C129.722 187.213 123.696 189.029 119.248 188.818Z" fill="#97E95C"/>
<path d="M137.363 185.488C132.16 185.022 126.93 184.936 121.715 185.231C126.926 184.626 132.174 184.405 137.418 184.571L137.363 185.488Z" fill="#263238"/>
<path d="M114.332 125.842C112.598 123.12 111.944 119.849 112.497 116.67C114.799 117.96 116.787 119.742 118.321 121.889C119.845 124.023 121.007 126.394 121.761 128.905C122.27 130.234 122.413 131.676 122.174 133.079C119.468 131.373 115.983 128.548 114.332 125.842Z" fill="#97E95C"/>
<path d="M122.21 133.17C120.442 129.898 118.437 126.759 116.212 123.778C118.689 126.584 120.957 129.566 122.999 132.703L122.21 133.17Z" fill="#263238"/>
<path d="M121.431 113.616C121.769 109.31 123.694 105.283 126.833 102.316C128.249 105.564 128.935 109.083 128.842 112.625C128.74 116.151 128.061 119.637 126.833 122.944C126.29 124.776 125.271 126.431 123.88 127.741C122.44 123.705 121.009 117.853 121.431 113.616Z" fill="#97E95C"/>
<path d="M124.081 127.878C124.788 122.929 125.137 117.936 125.127 112.937C125.448 117.948 125.402 122.975 124.989 127.979L124.072 127.878H124.081Z" fill="#263238"/>
<path d="M91.0894 124.824C91.4261 120.523 93.3519 116.501 96.4918 113.542C97.909 116.79 98.5948 120.31 98.5005 123.852C98.3956 127.375 97.7139 130.858 96.4827 134.161C95.9491 135.998 94.9323 137.658 93.5384 138.967C92.0984 134.913 90.6675 129.061 91.0894 124.824Z" fill="#97E95C"/>
<path d="M93.7312 139.087C94.4465 134.135 94.796 129.138 94.7768 124.136C95.0874 129.163 95.0291 134.206 94.6025 139.224L93.6853 139.123L93.7312 139.087Z" fill="#263238"/>
<path d="M144.434 81.7058C145.929 77.6617 148.871 74.3154 152.689 72.3136C153.153 75.8271 152.84 79.3997 151.772 82.779C150.711 86.1394 149.106 89.3029 147.021 92.1437C146.005 93.7636 144.574 95.0812 142.875 95.9593C142.655 91.6851 142.875 85.6682 144.434 81.7058Z" fill="#97E95C"/>
<path d="M209.868 116.12C212.135 112.985 215.485 110.804 219.27 110.002C218.835 113.147 217.717 116.158 215.995 118.825C214.272 121.47 212.128 123.816 209.648 125.769C208.38 126.923 206.824 127.715 205.145 128.062C205.933 124.31 207.566 119.165 209.868 116.12Z" fill="#97E95C"/>
<path d="M205.2 128.218C208.061 124.775 210.67 121.131 213.005 117.312C210.926 121.303 208.559 125.138 205.924 128.786L205.2 128.218Z" fill="#263238"/>
<path d="M283.603 120.458C287.467 120.298 291.252 121.579 294.224 124.053C291.487 125.659 288.432 126.645 285.272 126.943C282.128 127.228 278.958 126.996 275.889 126.255C274.2 125.974 272.616 125.245 271.303 124.145C274.734 122.439 279.787 120.531 283.603 120.458Z" fill="#97E95C"/>
<path d="M271.202 124.292C275.678 124.409 280.157 124.201 284.603 123.668C280.182 124.503 275.707 125.018 271.212 125.209V124.292H271.202Z" fill="#263238"/>
<path d="M321.319 157.385C323.927 160.244 325.378 163.971 325.391 167.841C322.402 166.777 319.683 165.067 317.43 162.833C315.186 160.611 313.326 158.032 311.926 155.202C311.061 153.728 310.602 152.05 310.596 150.341C314.109 151.872 318.805 154.514 321.319 157.385Z" fill="#97E95C"/>
<path d="M310.422 150.35C313.206 153.855 316.241 157.154 319.503 160.219C316.024 157.365 312.753 154.267 309.716 150.946L310.422 150.35Z" fill="#263238"/>
<path d="M269.616 143.599C274.11 145.084 277.892 148.187 280.228 152.304C276.402 152.963 272.478 152.772 268.735 151.744C265.006 150.724 261.472 149.09 258.279 146.91C256.464 145.862 254.966 144.344 253.94 142.517C258.609 142.04 265.204 142.04 269.616 143.599Z" fill="#97E95C"/>
<path d="M253.729 142.737C258.818 144.772 264.047 146.433 269.377 147.708C263.962 146.727 258.625 145.354 253.408 143.599L253.729 142.737Z" fill="#263238"/>
<path d="M270.404 112.12C272.111 108.642 275.055 105.927 278.659 104.508C278.76 107.68 278.166 110.836 276.916 113.753C275.662 116.651 273.943 119.325 271.826 121.669C270.77 123.016 269.374 124.058 267.781 124.686C267.9 120.88 268.643 115.505 270.404 112.12Z" fill="#97E95C"/>
<path d="M267.836 124.842C270.081 120.966 272.039 116.932 273.697 112.772C272.319 117.056 270.63 121.235 268.643 125.273L267.836 124.842Z" fill="#263238"/>
<path d="M192.386 147.534C196.612 147.403 200.737 148.844 203.961 151.579C200.953 153.312 197.598 154.358 194.138 154.642C190.696 154.919 187.233 154.63 183.884 153.789C182.041 153.46 180.319 152.647 178.894 151.432C182.655 149.598 188.213 147.571 192.386 147.534Z" fill="#97E95C"/>
<path d="M178.784 151.625C183.683 151.789 188.588 151.599 193.459 151.056C188.61 151.906 183.705 152.403 178.784 152.542V151.625Z" fill="#263238"/>
<path d="M188.644 85.2096C186.516 79.798 186.076 73.6252 188.176 68.2045C191.912 71.2983 194.932 75.1663 197.027 79.5412C199.093 83.8798 200.435 88.5273 200.999 93.2994C201.32 95.8584 201.439 98.5458 200.403 100.921C196.147 96.8857 190.772 90.6119 188.644 85.2096Z" fill="#97E95C"/>
<path d="M200.88 100.921C198.62 94.4796 195.901 88.2081 192.744 82.1552C196.193 88.0792 199.213 94.2435 201.778 100.6L200.916 100.921H200.88Z" fill="#263238"/>
<path d="M228.635 92.2629C233.471 92.1371 238.104 90.2861 241.696 87.044C238.102 85.3255 234.185 84.3877 230.203 84.2924C226.229 84.2199 222.268 84.7676 218.463 85.9158C216.377 86.3925 214.449 87.4004 212.868 88.8417C217.334 90.612 223.838 92.4922 228.635 92.2629Z" fill="#97E95C"/>
<path d="M212.675 87.7135C218.335 87.5249 224.002 87.7272 229.634 88.3189C223.999 88.0326 218.351 88.1368 212.73 88.6307L212.675 87.7135Z" fill="#263238"/>
<path d="M246.172 68.5988C249.999 66.9516 253.11 63.9871 254.94 60.2431C251.507 60.0265 248.067 60.5456 244.851 61.7656C241.647 62.9743 238.654 64.6798 235.981 66.8195C234.463 67.8651 233.243 69.2874 232.441 70.9469C236.614 70.901 242.402 70.2957 246.172 68.5988Z" fill="#97E95C"/>
<path d="M231.918 69.993C236.385 68.0456 240.982 66.412 245.676 65.1042C241.087 66.701 236.613 68.6102 232.285 70.8185L231.891 69.993H231.918Z" fill="#263238"/>
<path d="M228.754 56.2899C230.545 52.5252 230.932 48.2443 229.845 44.2194C227.134 46.3222 224.897 48.9724 223.278 51.9973C221.669 55.0192 220.546 58.2753 219.949 61.6464C219.498 63.4339 219.517 65.3074 220.004 67.0854C223.095 64.343 227.057 60.0688 228.754 56.2899Z" fill="#97E95C"/>
<path d="M218.976 66.7645C221.055 62.3461 223.443 58.0797 226.121 53.9969C223.713 58.2221 221.605 62.611 219.811 67.1313L218.976 66.7645Z" fill="#263238"/>
<path d="M187.241 108.314C189.035 104.553 189.422 100.274 188.332 96.2527C185.622 98.3499 183.387 100.998 181.774 104.022C180.158 107.041 179.032 110.298 178.436 113.671C177.985 115.458 178.004 117.332 178.491 119.11C181.554 116.367 185.516 112.093 187.241 108.314Z" fill="#97E95C"/>
<path d="M177.436 118.779C179.517 114.362 181.904 110.096 184.581 106.012C182.178 110.238 180.072 114.627 178.28 119.146L177.436 118.779Z" fill="#263238"/>
<path d="M311.404 186.543C313.195 182.781 313.579 178.502 312.486 174.482C309.776 176.579 307.54 179.227 305.928 182.251C304.32 185.274 303.194 188.529 302.589 191.9C302.137 193.687 302.159 195.562 302.653 197.339C305.744 194.596 309.698 190.322 311.404 186.543Z" fill="#97E95C"/>
<path d="M301.617 197.008C303.702 192.593 306.089 188.327 308.762 184.241C306.362 188.469 304.257 192.858 302.461 197.375L301.617 197.008Z" fill="#263238"/>
<path d="M79.1841 225.956C75.4235 230.294 72.9012 235.862 72.9195 241.548C77.3557 239.84 81.3813 237.215 84.7332 233.844C88.0707 230.473 90.8565 226.598 92.9881 222.36C94.1622 220.095 95.1986 217.646 95.0794 215.123C89.9155 217.527 82.9538 221.617 79.1841 225.956Z" fill="#97E95C"/>
<path d="M96.2259 215.857C91.7365 220.908 86.9035 225.643 81.7615 230.028C86.6847 225.418 91.2819 220.471 95.5196 215.224L96.2259 215.82V215.857Z" fill="#263238"/>
<path d="M126.705 238.017C123.236 240.017 120.597 243.192 119.266 246.969C122.552 246.785 125.761 245.909 128.686 244.401C131.61 242.889 134.278 240.926 136.592 238.586C137.924 237.419 138.932 235.927 139.518 234.256C135.537 234.733 130.08 235.953 126.705 238.017Z" fill="#97E95C"/>
<path d="M140.124 235.1C136.063 237.445 131.846 239.507 127.503 241.273C131.703 239.239 135.758 236.916 139.637 234.32L140.124 235.1Z" fill="#263238"/>
<path d="M36.8181 137.041C34.7202 133.623 31.4657 131.072 27.646 129.85C27.9317 133.143 28.9134 136.339 30.526 139.224C32.1171 142.104 34.1505 144.716 36.5521 146.965C37.7635 148.244 39.2824 149.192 40.9639 149.717C40.3769 145.819 39.0011 140.389 36.8181 137.041Z" fill="#97E95C"/>
<path d="M40.1383 150.414C37.6801 146.417 35.5011 142.256 33.6169 137.958C35.7687 142.097 38.2052 146.081 40.9088 149.882L40.1383 150.396V150.414Z" fill="#263238"/>
<path d="M49.063 89.4379C46.9608 86.024 43.7078 83.4737 39.8909 82.247C40.1619 85.5299 41.1246 88.7183 42.7159 91.6026C44.3069 94.4826 46.3404 97.0948 48.742 99.3438C49.9533 100.623 51.4722 101.57 53.1537 102.095C52.5851 98.2157 51.2184 92.7858 49.063 89.4379Z" fill="#97E95C"/>
<path d="M52.3557 102.802C49.8929 98.8093 47.7108 94.6504 45.8252 90.3551C47.9918 94.495 50.4436 98.4792 53.1629 102.279L52.4016 102.783L52.3557 102.802Z" fill="#263238"/>
<path d="M136.125 37.6888C133.152 35.0105 129.32 33.4818 125.32 33.3779C126.506 36.4507 128.332 39.2363 130.676 41.5503C133.018 43.8622 135.708 45.7934 138.647 47.2737C140.172 48.1729 141.903 48.6656 143.673 48.7045C141.995 45.1091 139.142 40.2937 136.125 37.6888Z" fill="#97E95C"/>
<path d="M143.068 49.5759C139.577 46.445 136.31 43.0736 133.291 39.4866C136.524 42.8568 139.99 45.9953 143.664 48.8788L143.068 49.5759Z" fill="#263238"/>
<path d="M243.851 53.1438C246.958 50.595 249.045 47.014 249.73 43.0545C246.515 43.7656 243.488 45.1539 240.852 47.1269C238.216 49.1097 235.91 51.4963 234.019 54.1986C232.897 55.5677 232.151 57.2051 231.854 58.9498C235.642 57.8308 240.833 55.7579 243.851 53.1438Z" fill="#97E95C"/>
<path d="M231.056 58.2252C234.679 55.2435 238.503 52.5159 242.503 50.062C238.688 52.7574 235.065 55.7149 231.661 58.9131L231.056 58.2252Z" fill="#263238"/>
<path d="M303.286 84.7876C306.391 82.2366 308.477 78.6567 309.166 74.6983C305.953 75.4173 302.928 76.8049 300.287 78.7707C297.648 80.7415 295.336 83.1156 293.436 85.8057C292.313 87.1719 291.564 88.8057 291.262 90.5477C295.068 89.4837 300.26 87.3833 303.286 84.7876Z" fill="#97E95C"/>
<path d="M290.491 89.8781C294.11 86.8913 297.935 84.1635 301.938 81.715C298.12 84.4222 294.497 87.3952 291.097 90.6119L290.491 89.924V89.8781Z" fill="#263238"/>
<path d="M168.741 53.1071C168.867 49.1186 167.566 45.2159 165.072 42.1006C163.487 44.9896 162.531 48.1809 162.265 51.4653C162.008 54.7442 162.265 58.0432 163.027 61.2428C163.312 62.9914 164.049 64.6353 165.164 66.0123C166.842 62.3709 168.695 57.0878 168.741 53.1071Z" fill="#97E95C"/>
<path d="M164.118 66.0674C164.264 61.3804 164.739 56.7095 165.54 52.0891C165.046 56.7311 164.878 61.4019 165.035 66.0674H164.118Z" fill="#263238"/>
<path d="M134.474 91.8135C133.34 88.4565 133.497 84.7974 134.914 81.5499C137.031 83.5633 138.684 86.0141 139.757 88.7316C140.831 91.4266 141.451 94.2812 141.591 97.1792C141.78 98.741 141.546 100.325 140.912 101.765C138.491 99.142 135.519 95.198 134.474 91.8135Z" fill="#97E95C"/>
<path d="M140.995 101.82C139.965 97.8337 138.643 93.9281 137.042 90.1349C138.926 93.8197 140.542 97.6361 141.875 101.554L140.958 101.82H140.995Z" fill="#263238"/>
<path d="M180.894 96.5187C182.384 92.5716 182.358 88.2121 180.82 84.2831C178.203 86.5806 176.121 89.4233 174.721 92.6114C173.338 95.7774 172.483 99.1484 172.189 102.591C171.893 104.446 172.102 106.347 172.795 108.094C175.766 105.067 179.49 100.454 180.894 96.5187Z" fill="#97E95C"/>
<path d="M171.712 107.819C173.453 103.204 175.522 98.7194 177.904 94.4C175.797 98.8501 174.019 103.448 172.584 108.158L171.667 107.865L171.712 107.819Z" fill="#263238"/>
<path d="M179.343 77.0096C181.248 72.0065 181.219 66.473 179.261 61.4904C175.947 64.4128 173.308 68.0215 171.529 72.0659C169.777 76.079 168.693 80.3514 168.319 84.7142C167.947 87.0528 168.214 89.4482 169.089 91.6483C172.85 87.8602 177.564 81.9993 179.343 77.0096Z" fill="#97E95C"/>
<path d="M167.823 91.3732C169.985 85.5129 172.569 79.8173 175.555 74.3314C172.848 79.9376 170.555 85.7346 168.695 91.6759L167.823 91.3732Z" fill="#263238"/>
<path d="M138.124 117.128C139.164 106.24 142.039 95.6064 146.626 85.6773C142.639 95.7528 140.381 106.43 139.949 117.257L138.115 117.128H138.124Z" fill="#263238"/>
<path d="M164.063 77.2115C160.797 69.1217 151.69 66.1407 145.975 60.1605C152.02 66.0032 161.32 68.6998 164.916 76.8629L164.063 77.2115Z" fill="#263238"/>
<path d="M173.088 56.1981C180.265 52.4506 188.334 50.7468 196.413 51.2727C188.42 51.0657 180.522 53.048 173.574 57.0053L173.134 56.1981H173.088Z" fill="#263238"/>
<path d="M180.646 34.873C181.047 29.2168 179.338 23.6127 175.849 19.1428C173.368 23.0749 171.786 27.5067 171.217 32.1214C170.659 36.7087 170.857 41.3564 171.804 45.8795C172.29 48.3193 173.006 50.8233 174.684 52.6944C177.344 47.7782 180.362 40.4588 180.646 34.873Z" fill="#97E95C"/>
<path d="M174.446 53.2172C176.593 46.024 176.97 38.4186 175.546 31.0482C177.273 38.4302 177.194 46.1197 175.317 53.4648L174.4 53.2172H174.446Z" fill="#263238"/>
<path d="M65.6094 205.52C62.889 206.286 60.5392 208.014 58.9963 210.381C61.2918 210.822 63.6543 210.775 65.9305 210.244C68.1963 209.711 70.3634 208.823 72.3509 207.611C73.4714 207.049 74.4213 206.197 75.1026 205.144C72.2776 204.796 68.306 204.686 65.6094 205.52Z" fill="#97E95C"/>
<path d="M75.3411 205.41C71.5847 205.593 67.9214 206.641 64.6372 208.474C67.8475 206.333 71.5124 204.97 75.3411 204.493L75.4236 205.41H75.3411Z" fill="#263238"/>
<path d="M64.151 213.225C51.7684 212.5 39.3505 212.629 26.9856 213.61C39.3445 212.318 51.7779 211.883 64.1969 212.308V213.225H64.151Z" fill="#263238"/>
<path d="M78.3861 215.224C72.395 216.097 66.7985 218.731 62.3074 222.791C66.6596 218.453 72.201 215.504 78.2302 214.316L78.3861 215.233V215.224Z" fill="#263238"/>
<path d="M115.414 204.236C114.258 200.614 114.49 196.691 116.065 193.23C118.315 195.429 120.053 198.097 121.156 201.044C122.268 203.964 122.888 207.048 122.99 210.17C123.162 211.847 122.88 213.539 122.174 215.068C119.615 212.198 116.487 207.859 115.414 204.236Z" fill="#97E95C"/>
<path d="M112.754 212.931C110.569 211.471 108.998 209.257 108.342 206.713C110.508 206.979 112.593 207.701 114.46 208.831C116.313 209.949 117.97 211.362 119.367 213.014C120.185 213.835 120.765 214.862 121.046 215.986C118.45 215.499 114.891 214.435 112.754 212.931Z" fill="#97E95C"/>
<path d="M124.916 206.181C125.667 202.923 127.294 199.932 129.621 197.531C129.92 200.287 129.784 203.073 129.218 205.786C128.642 208.566 127.75 211.272 126.558 213.848C126.032 215.222 125.226 216.472 124.191 217.517C123.895 213.723 124.139 209.906 124.916 206.181Z" fill="#97E95C"/>
<path d="M201.916 194.046C202.669 190.786 204.296 187.793 206.621 185.387C206.928 188.158 206.792 190.96 206.218 193.688C205.641 196.468 204.749 199.173 203.558 201.75C203.03 203.123 202.224 204.372 201.191 205.419C200.901 201.613 201.145 197.785 201.916 194.046Z" fill="#97E95C"/>
<path d="M196.908 202.145C196.64 200.136 196.919 198.092 197.715 196.229C198.487 197.731 199.013 199.348 199.275 201.017C199.547 202.717 199.624 204.444 199.504 206.162C199.494 207.05 199.304 207.927 198.945 208.739C197.959 206.648 197.274 204.428 196.908 202.145Z" fill="#97E95C"/>
<path d="M125.787 220.471C121.845 215.863 119.406 210.16 118.798 204.126C119.688 210.031 122.368 215.521 126.475 219.856L125.787 220.471Z" fill="#263238"/>
<path d="M114.598 229.047C112.807 230.617 111.545 232.702 110.982 235.016C110.419 237.33 110.583 239.762 111.452 241.979C111.561 242.342 111.808 242.648 112.139 242.832C112.754 243.089 113.396 242.511 113.772 241.97C116.047 238.714 115.698 232.78 114.598 229.047Z" fill="#97E95C"/>
<path d="M68.8289 154.523C64.741 159.455 59.1634 162.928 52.9336 164.42C58.9929 162.666 64.3196 158.994 68.1134 153.954L68.8289 154.523Z" fill="#263238"/>
<path d="M79.1016 168.722C79.5235 163.512 78.1844 158.632 75.7079 156C74.3718 159.466 73.7479 163.166 73.8735 166.878C74.0477 170.272 75.7079 175.353 77.2855 177.362C78.0621 174.52 78.6685 171.635 79.1016 168.722Z" fill="#97E95C"/>
<path d="M90.0164 87.741C84.7975 87.5851 79.9821 89.1444 77.4873 91.7951C81.0335 92.9537 84.7772 93.3842 88.4938 93.0609C91.8784 92.7032 96.8588 90.7954 98.785 89.1077C95.8919 88.4778 92.9639 88.0215 90.0164 87.741Z" fill="#97E95C"/>
<path d="M142.013 73.882C141.554 68.6814 139.445 64.0862 136.51 61.9583C135.77 65.5898 135.77 69.3332 136.51 72.9648C137.253 76.2851 139.738 81.0087 141.646 82.7239C141.939 79.7862 142.062 76.8339 142.013 73.882Z" fill="#97E95C"/>
<path d="M133.868 131.776C136.446 127.236 137.317 122.265 136.143 118.816C133.473 121.397 131.348 124.488 129.897 127.906C128.631 131.061 127.989 136.362 128.585 138.857C130.48 136.6 132.244 134.236 133.868 131.776Z" fill="#97E95C"/>
<path d="M138.408 160.769C140.986 156.183 141.857 151.258 140.683 147.809C138.013 150.39 135.888 153.481 134.437 156.899C133.171 160.054 132.529 165.355 133.125 167.85C135.023 165.595 136.787 163.231 138.408 160.769Z" fill="#97E95C"/>
<path d="M154.074 152.56C156.652 148.02 157.523 143.049 156.349 139.6C153.679 142.181 151.554 145.272 150.103 148.69C148.828 151.845 148.195 157.146 148.782 159.641C150.685 157.388 152.453 155.024 154.074 152.56Z" fill="#97E95C"/>
<path d="M192.276 205.456C190.203 200.659 186.773 196.972 183.288 195.834C183.744 199.52 184.939 203.077 186.801 206.291C188.552 209.207 192.405 212.904 194.753 213.931C194.099 211.059 193.272 208.228 192.276 205.456Z" fill="#97E95C"/>
<path d="M148.048 211.941C150.626 207.4 151.506 202.429 150.332 198.98C147.654 201.554 145.528 204.647 144.086 208.07C142.811 211.225 142.169 216.527 142.765 219.012C144.666 216.763 146.43 214.401 148.048 211.941Z" fill="#97E95C"/>
<path d="M86.008 129.914C87.3655 124.264 87.448 118.22 85.687 113.405C82.9865 117.268 80.9355 121.547 79.615 126.071C78.2647 130.653 77.4642 135.38 77.2303 140.151C77.0927 142.682 77.111 145.305 77.964 147.397C80.9358 142.655 84.6597 135.555 86.008 129.914Z" fill="#97E95C"/>
<path d="M77.7256 148.506C77.8897 141.316 79.777 134.27 83.2289 127.961C80.0794 134.344 78.5068 141.39 78.6428 148.506H77.7256Z" fill="#263238"/>
<path d="M107.985 136.995C109.819 132.593 110.369 127.75 109.003 123.714C106.083 126.447 103.689 129.693 101.94 133.29C100.239 136.788 99.0529 140.514 98.4181 144.351C98.0787 146.369 97.8769 148.479 98.5648 150.231C101.94 146.718 106.187 141.389 107.985 136.995Z" fill="#97E95C"/>
<path d="M98.2712 151.148C99.0786 145.26 101.558 139.727 105.416 135.207C101.856 139.832 99.6953 145.379 99.1885 151.194L98.2712 151.102V151.148Z" fill="#263238"/>
<path d="M88.0536 149.68C85.7088 148.362 83.8936 146.271 82.9172 143.764C85.2595 144.073 87.5274 144.8 89.6129 145.911C91.6251 146.995 93.4772 148.353 95.1161 149.946C96.014 150.701 96.7026 151.674 97.1157 152.771C93.9515 152.223 90.8934 151.18 88.0536 149.68Z" fill="#97E95C"/>
<path d="M97.0604 153.56C94.8355 150.936 91.9178 148.991 88.6404 147.947C92.0806 148.725 95.2331 150.454 97.7391 152.936L97.0604 153.56Z" fill="#263238"/>
<path d="M286.822 137.463C296.483 136.511 306.084 135.038 315.586 133.051C306.134 135.339 296.566 137.115 286.923 138.371L286.822 137.454V137.463Z" fill="#263238"/>
<path d="M301.14 161.577C303.745 164.943 307.322 167.456 311.229 167.997C310.534 164.419 309.141 161.012 307.129 157.972C305.198 155.076 302.813 152.508 300.067 150.368C298.739 149.148 297.085 148.339 295.307 148.039C296.389 152.34 298.535 158.201 301.14 161.577Z" fill="#97E95C"/>
<path d="M296.04 147.185C299.06 151.242 301.796 155.502 304.231 159.935C301.545 155.675 298.569 151.606 295.325 147.754L296.04 147.185Z" fill="#263238"/>
<path d="M251.17 238.466C255.463 241.97 260.728 244.098 265.846 243.603C263.912 239.277 261.144 235.375 257.701 232.119C254.405 229.001 250.626 226.437 246.511 224.525C244.346 223.507 242.035 222.69 239.779 222.975C242.475 228.194 246.859 234.954 251.17 238.466Z" fill="#97E95C"/>
<path d="M240.384 221.837C245.427 226.056 250.177 230.612 254.601 235.476C249.974 230.838 245.034 226.523 239.815 222.562L240.384 221.837Z" fill="#263238"/>
<path d="M316.045 225.13C322.025 224.937 327.758 223.066 331.436 219.324C326.705 217.33 321.652 216.212 316.522 216.022C311.662 215.856 306.804 216.422 302.112 217.701C299.654 218.361 297.196 219.242 295.646 220.975C301.571 223.076 310.074 225.314 316.045 225.13Z" fill="#97E95C"/>
<path d="M295.279 219.691C302.384 219.547 309.492 219.853 316.558 220.608C309.488 220.154 302.395 220.154 295.325 220.608V219.691H295.279Z" fill="#263238"/>
<path d="M299.929 234.862C303.818 238.118 308.505 240.172 312.945 239.879C311.077 235.945 308.509 232.384 305.368 229.368C302.381 226.516 298.979 224.132 295.279 222.296C293.353 221.324 291.298 220.462 289.345 220.718C291.922 225.387 296.04 231.606 299.929 234.862Z" fill="#97E95C"/>
<path d="M289.886 219.645C294.457 223.58 298.774 227.802 302.809 232.284C298.568 228.029 294.062 224.046 289.317 220.361L289.895 219.654L289.886 219.645Z" fill="#263238"/>
<path d="M236.055 160.953C237.119 155.991 239.549 151.487 243.236 149.029C244.183 153.278 244.348 157.663 243.723 161.971C243.125 166.055 241.913 170.026 240.127 173.748C239.21 175.702 238.091 177.619 236.412 178.646C235.559 173.344 234.991 165.915 236.055 160.953Z" fill="#97E95C"/>
<path d="M236.596 178.921C238.073 173.097 239.176 167.184 239.898 161.219C239.477 167.232 238.674 173.212 237.495 179.123L236.578 178.921H236.596Z" fill="#263238"/>
<path d="M223.104 173.078C223.856 169.584 225.562 166.41 228.157 164.649C228.825 167.642 228.943 170.731 228.506 173.766C228.079 176.629 227.226 179.411 225.974 182.021C225.447 183.397 224.536 184.594 223.351 185.47C222.755 181.801 222.352 176.564 223.104 173.078Z" fill="#97E95C"/>
<path d="M223.351 185.699C224.433 181.61 225.254 177.455 225.809 173.262C225.56 177.504 225.039 181.726 224.25 185.901L223.333 185.699H223.351Z" fill="#263238"/>
<path d="M284.731 183.434C288.849 180.838 293.564 179.499 297.746 180.343C295.465 183.84 292.569 186.895 289.198 189.359C285.994 191.682 282.46 193.512 278.714 194.789C276.761 195.458 274.706 195.981 272.872 195.523C275.908 191.404 280.622 186.002 284.731 183.434Z" fill="#97E95C"/>
<path d="M272.771 195.844C277.759 192.956 282.556 189.751 287.134 186.25C282.734 189.999 278.099 193.464 273.257 196.623L272.771 195.844Z" fill="#263238"/>
<path d="M183.471 166.594C185.241 162.063 188.24 158.183 192.111 156.385C192.353 160.553 191.834 164.73 190.579 168.712C189.395 172.48 187.651 176.048 185.406 179.297C184.232 181.003 182.884 182.645 181.141 183.36C181.104 178.251 181.737 171.125 183.471 166.594Z" fill="#97E95C"/>
<path d="M181.215 183.681C183.509 178.396 185.467 172.97 187.076 167.437C185.755 173.066 184.079 178.604 182.058 184.021L181.215 183.681Z" fill="#263238"/>
<path d="M262.452 228.496C266.488 229.863 270.854 229.973 274.376 228.239C271.816 225.647 268.772 223.584 265.415 222.167C262.204 220.824 258.797 220.006 255.325 219.746C253.543 219.472 251.719 219.714 250.07 220.443C253.372 223.415 258.38 227.13 262.452 228.496Z" fill="#97E95C"/>
<path d="M250.189 219.343C254.953 221.054 259.592 223.092 264.075 225.442C259.477 223.381 254.743 221.64 249.905 220.232L250.189 219.361V219.343Z" fill="#263238"/>
<path d="M70.4064 201.264C71.0183 201.882 71.6844 202.444 72.3968 202.943C76.9828 205.869 92.3553 215.389 98.9959 216.637C106.893 218.123 135.776 232.67 142.463 237.733C149.149 242.796 162.531 263.268 162.228 266.827C161.926 270.385 162.228 288.5 162.228 288.5C162.228 288.5 154.891 308.991 151.277 310.77C147.663 312.55 127.255 331.554 127.255 331.554C127.255 331.554 103.545 330.068 102.325 331.554C101.106 333.04 87.7326 344.019 87.7326 344.019H239.788L212.427 331.554L200.265 292.05L188.406 269.78L191.157 255.829L201.485 240.117L225.195 227.652L252.253 219.636L295.93 221.094L302.718 219.343C302.718 219.343 254.381 217.554 255.298 216.967C256.215 216.38 284.85 200.219 284.85 200.219L260.902 210.308L239.806 218.434C239.806 218.434 261.086 195.578 265.956 184.002C265.956 184.002 242.851 214.582 232.203 220.81L194.817 232.394L194.202 229.129L209.713 206.566L235.853 201.521L235.248 199.439C235.248 199.439 214.876 201.815 213.968 201.815C213.06 201.815 221.875 192.019 234.33 184.002C246.786 175.986 271.578 161.843 270.368 161.843L261.388 165.594C261.388 165.594 222.177 179.251 201.201 206.263L186.911 225.525L184.489 200.907L186.92 188.432L233.101 149.543L240.393 145.984L287.217 139.151C287.217 139.151 306.671 129.355 307.276 128.465L316.632 113.716C316.632 113.716 304.24 128.218 304.24 127.869C304.24 127.52 285.997 136.188 285.997 136.188L241.916 140.04C241.916 140.04 261.37 120.155 261.682 120.449C261.994 120.742 274.752 77.4041 274.752 77.4041L269.79 88.7775C269.79 88.7775 260.471 117.761 258.948 117.761C257.426 117.761 203.622 162.888 203.622 162.888L181.426 181.297L175.317 189.322L165.897 152.808C165.897 152.808 173.207 127.3 173.813 127.3C174.418 127.3 201.182 106.81 201.788 106.81C202.393 106.81 199.036 104.141 198.743 104.434C198.449 104.728 175.638 119.284 175.638 119.284C175.638 119.284 166.824 71.1854 165.916 71.4789C165.008 71.7724 162.247 72.3961 162.247 72.6713C162.247 72.9464 170.759 111.561 169.236 121.357C167.713 131.153 158.312 148.396 158.312 148.396L158.009 168.281L166.264 190.845L145.288 159.375L141.032 114.845C141.032 114.845 124.614 91.098 124.916 90.7953C125.219 90.4927 121.568 91.7126 121.568 91.7126L136.776 114.872L139.527 167.153L162.935 207.822C162.935 207.822 132.208 169.134 131.291 169.437C130.374 169.74 122.779 151.322 122.779 151.322L125.21 126.09L122.779 125.493L117.918 154.587L122.119 170.033L109.351 161.714C109.351 161.714 93.8412 150.139 94.7584 131.134H92.6305C92.6305 131.134 92.0159 151.918 102.05 161.118C102.05 161.118 77.8542 148.277 71.0393 139.105C62.6468 127.869 59.9044 118.183 59.9044 118.183L57.4004 110.754C57.4004 110.754 59.2348 139.105 77.4231 150.689C95.6114 162.274 126.953 179.783 127.283 180.04C127.613 180.297 163.467 221.012 163.467 221.012L165.595 237.632L153.735 226.057L112.69 214.775C112.69 214.775 99.0143 198.146 92.6305 187.167L99.1885 202.255L108.141 215.151C108.141 215.151 78.6522 203.869 71.663 198.531" fill="#263238"/>
<path opacity="0.3" d="M165.613 237.714C166.402 237.934 174.189 255.031 174.189 255.031L168.208 227.79L163.485 221.094L165.613 237.714Z" fill="black"/>
<path opacity="0.3" d="M162.87 207.731C162.87 207.731 177.977 220.205 177.876 220.168C177.775 220.131 189.332 234.183 189.332 234.183L191.166 255.829V234.183L186.91 225.543L179.325 218.104L162.87 207.731Z" fill="black"/>
<path opacity="0.3" d="M162.265 266.817L181.912 294.013L187.929 324.244L212.427 331.536L191.148 320.575L184.214 293.481L162.265 266.817Z" fill="black"/>
<path opacity="0.3" d="M152.313 309.917L162.265 329.931L177.005 344.001L160.706 331.536L152.313 309.917Z" fill="black"/>
<path opacity="0.3" d="M188.406 269.78L177.949 258.911L188.993 266.817L188.406 269.78Z" fill="black"/>
<path opacity="0.3" d="M127.301 331.536L121.036 341.396L116.056 344.001H122.807C122.963 344.001 127.301 331.536 127.301 331.536Z" fill="black"/>
<path opacity="0.3" d="M166.218 190.808L179.701 199.76L184.462 200.907C184.462 200.907 178.83 201.824 178.894 201.824C178.958 201.824 166.218 190.808 166.218 190.808Z" fill="black"/>
</svg>
