<svg width="77" height="86" viewBox="0 0 77 86" fill="none" xmlns="http://www.w3.org/2000/svg">
<path d="M17.0205 4.82196C12.1951 6.35564 12.6824 11.0992 14.4334 13.2049C9.0668 14.3568 3.05029 19.4696 2.01048 25.9491C0.8044 33.4647 6.73606 35.5066 10.7793 35.174C14.3957 34.8764 18.1126 31.3737 19.8047 29.8136C20.659 32.8219 21.6152 38.5452 27.8502 39.0979C32.4734 39.5078 37.2328 35.1291 38.2641 32.9129C41.0806 34.6941 45.209 37.6699 49.9104 37.2831C55.0248 36.8624 56.5345 32.2387 56.9534 29.9545C60.6859 31.0683 69.9228 32.2618 71.2002 21.6781C72.0662 14.5024 66.5061 13.3021 63.9069 12.6871C64.0125 11.0207 65.2507 6.89303 62.2414 5.71971C58.2041 4.14553 50.91 6.6519 48.6732 8.96723C48.3063 7.45812 48.6658 2.75484 43.753 2.26759C37.8797 1.68507 33.985 7.45221 31.3144 10.3953C28.2084 8.04583 23.0523 2.90487 17.0205 4.82196Z" fill="#EFB2C2"/>
<path d="M39.2232 39.9365C37.4622 32.6928 34.9235 27.5023 33.2024 28.7095C33.2701 29.5328 34.2159 32.1784 34.2159 32.1784C34.2159 32.1784 36.8792 37.998 40.6745 57.5781C42.499 66.9906 43.5167 83.2754 45.6285 82.3913C47.0052 81.8149 44.6973 62.2203 44.6102 61.1618C44.5406 60.315 47.3478 56.0819 48.7601 54.0712C49.7632 54.4623 52.3479 55.1969 54.6625 55.0065C57.5556 54.7685 62.0537 51.9119 61.9667 50.8534C61.8796 49.7949 59.4352 51.0617 56.9908 52.3285C55.0352 53.3419 51.3541 53.1474 49.7579 52.9235C50.8666 51.6482 53.2779 48.7975 54.0529 47.597C55.0217 46.0965 53.9658 46.5386 51.5214 47.8053C49.5659 48.8187 45.3029 54.8293 43.6257 58.0458L39.2232 39.9365Z" fill="#B5DAE2"/>
</svg>
