<svg width="55" height="84" viewBox="0 0 55 84" fill="none" xmlns="http://www.w3.org/2000/svg">
<path d="M13.1 21.1252C9.36389 19.1583 4.39192 13.3068 7.4958 8.58625C11.3756 2.68558 28.1883 -4.32145 29.0505 3.42318C29.5432 7.84866 28.4757 13.5035 28.1883 15.2245C31.6371 11.0449 41.7246 3.71819 47.5875 6.3735C54.9161 9.69264 55.8163 17.4266 54.485 20.3876C52.3295 25.1819 39.2531 23.3379 32.4993 23.7067C38.5346 28.6239 49.3119 37.7208 44.5699 45.8342C41.1373 51.7072 30.6478 49.7823 26.0328 45.8342C21.6159 42.0557 22.055 38.2771 22.8384 36.5846C21.4252 39.1932 18.053 43.1899 13.1001 41.7775C6.63364 39.9336 -2.41938 27.3946 0.598308 23.7067C4.0973 19.4306 10.6572 20.3876 13.1 21.1252Z" fill="#F9A092"/>
<path d="M21.7222 55.0543C20.4288 33.665 24.3079 23.1318 24.3081 28.5006C24.3081 34.4013 24.3088 58.0043 25.6021 65.0114C26.2744 68.6541 27.6136 74.2311 27.7573 75.3375C28.907 73.0018 31.8101 68.773 34.2241 69.068C36.6374 69.3632 36.9536 71.0348 36.8101 72.0182C40.5462 71.0348 47.587 71.4286 45.8628 76.444C43.7075 82.7126 36.3805 83.0826 34.2241 83.0826C31.3802 83.0826 31.3498 81.1153 31.6372 80.5006C30.6313 80.5006 28.7922 80.2793 29.4819 79.3942C30.3449 78.287 35.946 72.0199 34.2241 72.0182C32.4999 72.0182 29.4819 77.5492 29.0503 79.025C28.6192 80.5002 27.9041 80.4919 27.3257 81.9762C26.8943 83.0819 25.1101 82.6254 24.3081 83.0826C21.7222 84.5573 21.1181 83.7459 18.7046 83.4508C15.687 83.082 9.22048 79.3943 11.8071 76.444C14.4 73.4872 19.1352 78.6563 19.1353 76.0748C19.1357 73.5072 24.2539 72.7643 24.3081 72.7565C23.4459 70.2979 22.1854 62.7148 21.7222 55.0543ZM15.2554 77.9196C14.0364 77.9197 14.825 79.3939 16.5493 80.1315C17.9287 80.7214 19.1358 80.6235 19.5669 80.5006C18.4173 79.3942 16.9797 77.9196 15.2554 77.9196ZM41.5483 77.7809C43.8683 75.7958 41.117 72.9887 38.1011 74.8317C36.118 76.0437 34.6549 78.5177 34.6548 79.6237C35.0858 80.7294 38.9632 79.9925 41.5483 77.7809ZM23.8774 77.1813C23.8774 77.1528 23.8683 74.9711 22.5835 75.3375C21.2911 75.7069 22.5837 79.0246 23.4458 79.3942C24.308 79.763 23.8774 77.1813 23.8774 77.1813Z" fill="#BACAC0"/>
</svg>
