<svg width="375" height="127" viewBox="0 0 375 127" fill="none" xmlns="http://www.w3.org/2000/svg">
<path d="M-27 17.182C-25.3431 15.8049 -23.6804 14.454 -22.0006 13.1687C-18.2453 10.3096 -14.9372 7.77837 -10.8322 6.57177C-7.66746 5.64058 -4.7607 3.45033 -1.64754 2.1388C0.0208385 1.44369 1.71215 0.748587 3.32893 0.13217C5.31837 -0.615399 7.26194 1.99454 8.98765 3.29295C11.3784 5.10286 13.6431 7.41114 16.0568 9.19482C18.2469 10.808 19.9726 12.9851 22.0595 14.8606C23.682 16.3164 25.3045 17.3918 26.8525 19.1099C30.1376 22.756 33.9158 25.1298 37.3501 28.3168C44.8778 35.3073 52.354 42.5338 59.9448 49.3668C63.5568 52.6194 67.0598 56.2392 70.7578 59.2426C74.2722 62.0886 78.1537 64.6068 81.4618 68.0561C84.9762 71.7152 88.4793 74.9809 92.332 77.5515C95.4165 79.6106 98.4895 82.2074 101.671 83.7419C106.482 86.0633 111.567 91.0734 116.664 88.1355C118.636 86.9945 120.866 86.483 122.73 84.9354C124.283 83.6501 125.831 82.4829 127.414 81.2894C130.808 78.7319 134.443 77.5909 137.946 75.558C140.411 74.1285 143.157 72.8956 145.388 70.4824C146.368 69.4201 146.718 68.0299 147.796 67.1511C148.764 66.3642 149.848 65.4855 150.846 64.8297C153.294 63.2165 155.547 60.9738 157.995 59.3475C160.093 57.9573 162.266 57.0524 164.382 55.7015C166.142 54.5867 167.925 53.2621 169.725 52.3702C171.015 51.7276 172.363 51.9768 173.716 51.9636C177.07 51.9243 180.274 54.5343 183.439 56.331C185.945 57.7475 188.416 59.8066 190.812 61.6821C192.217 62.7837 193.725 63.4657 195.147 64.4756C196.568 65.4986 197.755 67.2036 199.148 68.3053C205.111 73.0399 211.165 77.0663 217.26 81.3025C218.659 82.273 219.937 83.519 221.29 84.6075C222.408 85.5125 223.681 85.8141 224.839 86.5486C226.599 87.6634 228.336 89.0274 230.102 89.9061C231.702 90.7061 233.313 91.0734 234.735 89.9061C235.881 88.9618 236.879 87.7552 238.18 87.1256C241.827 85.3813 245.146 82.4042 248.747 80.4238C250.862 79.2565 252.989 78.4565 255.082 77.3679C256.67 76.5285 258.281 74.8498 259.841 73.8006C262.787 71.8202 266.119 69.7217 268.635 66.4429C270.212 64.3838 271.542 63.0592 273.388 61.6821C273.996 61.223 274.575 60.4099 275.211 60.0951C275.842 59.7804 276.427 60.0951 277.052 59.9509C277.533 59.8459 277.929 59.3344 278.37 59.2033C278.8 59.0721 279.03 59.5574 279.397 59.5049C280.308 59.3606 281.14 59.0197 282.068 59.0197C283.582 59.0328 284.843 59.1246 286.254 58.3639C287.807 57.5245 289.321 56.6852 290.858 55.7146C292.732 54.5474 294.085 52.6457 295.863 51.2817C297.875 49.7341 299.824 47.9766 301.619 45.7732C302.634 44.5273 303.706 44.1732 304.789 43.2027C305.747 42.3502 306.515 41.2091 307.53 40.5009C312.437 37.091 317.448 33.6285 322.551 31.0317C325.039 29.7595 327.482 28.2513 329.895 26.625C331.925 25.261 334 23.1626 336.093 22.1789C338.077 21.2346 340.032 21.051 341.992 20.0149C343.311 19.3198 344.584 17.864 345.937 17.5624C347.324 17.2476 348.844 18.323 350.145 18.9001C351.504 19.5165 352.719 20.6707 354.078 21.3396C357.914 23.2019 362.007 25.0643 365.78 27.4644C368.6 29.2611 371.37 31.2022 374.076 33.458C375.297 34.481 376.501 35.6089 377.739 36.5795C379.11 37.6549 380.566 37.7992 381.965 38.7041C383.799 39.8976 385.531 41.537 387.365 42.7174C389.097 43.8453 390.857 44.3437 392.508 45.7995C395.507 48.4619 398.752 50.062 401.733 52.8162C402.157 53.2096 402.576 53.6031 403 53.9965V220.796C398.511 221.098 394.016 221.216 389.515 221.124C367.127 220.665 344.945 214.921 322.568 214.435C310.213 214.173 297.898 217.413 285.629 219.275C274.988 220.888 264.313 221.911 253.695 223.944C238.456 226.856 222.993 230.449 207.639 230.921C193.289 231.367 179.025 229.859 164.732 227.892C151.27 226.042 137.808 224.337 124.369 222.029C106.264 218.921 88.1926 214.921 70.1156 211.34C53.5064 208.048 36.9029 204.402 20.414 199.707C4.59024 195.195 -11.1533 189.923 -27 185.595V17.182Z" fill="#345B5C"/>
</svg>
