<svg width="375" height="145" viewBox="0 0 375 145" fill="none" xmlns="http://www.w3.org/2000/svg">
<path d="M584 17.8684C581.646 16.4384 579.284 15.0284 576.897 13.6984C571.561 10.7284 566.86 8.08843 561.028 6.83843C556.531 5.86843 552.401 3.58843 547.977 2.22843C545.607 1.49843 543.203 0.778434 540.906 0.138434C538.079 -0.641566 535.318 2.06843 532.866 3.42843C529.469 5.30843 526.251 7.71843 522.821 9.56843C519.709 11.2484 517.257 13.5184 514.292 15.4684C511.987 16.9884 509.681 18.0984 507.482 19.8884C502.814 23.6884 497.445 26.1484 492.566 29.4684C481.87 36.7384 471.247 44.2584 460.461 51.3584C455.329 54.7384 450.351 58.5084 445.097 61.6284C440.103 64.5884 434.588 67.2084 429.888 70.7884C424.894 74.5884 419.917 77.9984 414.442 80.6684C410.06 82.8084 405.693 85.5184 401.172 87.1084C394.337 89.5184 387.111 94.7384 379.869 91.6784C377.067 90.4884 373.898 89.9584 371.25 88.3584C369.043 87.0284 366.843 85.7984 364.595 84.5584C359.772 81.8984 354.607 80.7084 349.63 78.5984C346.127 77.1084 342.225 75.8384 339.056 73.3184C337.663 72.2084 337.166 70.7684 335.635 69.8584C334.258 69.0384 332.718 68.1284 331.301 67.4484C327.822 65.7684 324.621 63.4384 321.142 61.7484C318.161 60.2984 315.073 59.3584 312.067 57.9584C309.566 56.7984 307.033 55.4284 304.475 54.4884C302.642 53.8184 300.728 54.0784 298.805 54.0584C294.039 54.0184 289.486 56.7384 284.989 58.6084C281.429 60.0884 277.918 62.2284 274.513 64.1784C272.517 65.3184 270.374 66.0284 268.354 67.0884C266.334 68.1484 264.639 69.9184 262.668 71.0684C254.196 75.9884 245.593 80.1784 236.934 84.5784C234.946 85.5884 233.129 86.8784 231.207 88.0184C229.618 88.9584 227.81 89.2684 226.164 90.0384C223.663 91.1984 221.195 92.6084 218.686 93.5284C216.413 94.3584 214.124 94.7484 212.104 93.5284C210.474 92.5384 209.057 91.2884 207.208 90.6384C202.026 88.8184 197.31 85.7284 192.194 83.6684C189.188 82.4484 186.166 81.6284 183.192 80.4884C180.936 79.6184 178.646 77.8684 176.431 76.7784C172.243 74.7184 167.51 72.5284 163.934 69.1184C161.694 66.9784 159.804 65.6084 157.181 64.1684C156.317 63.6884 155.495 62.8484 154.59 62.5184C153.694 62.1884 152.863 62.5184 151.975 62.3684C151.291 62.2584 150.729 61.7284 150.102 61.5884C149.491 61.4584 149.165 61.9584 148.644 61.8984C147.348 61.7484 146.167 61.3884 144.847 61.3984C142.697 61.4184 140.905 61.5184 138.901 60.7184C136.693 59.8384 134.542 58.9684 132.359 57.9684C129.695 56.7484 127.773 54.7784 125.247 53.3584C122.388 51.7484 119.618 49.9184 117.068 47.6284C115.626 46.3384 114.103 45.9584 112.563 44.9484C111.203 44.0584 110.111 42.8684 108.669 42.1384C101.696 38.5984 94.5763 34.9884 87.326 32.2884C83.7905 30.9684 80.3202 29.3884 76.8906 27.6984C74.0068 26.2784 71.0578 24.0984 68.0844 23.0684C65.2658 22.0884 62.4878 21.8984 59.7018 20.8184C57.8281 20.0984 56.0197 18.5784 54.0971 18.2684C52.1257 17.9484 49.9669 19.0584 48.1177 19.6684C46.187 20.3084 44.46 21.5184 42.5293 22.1984C37.0794 24.1384 31.2629 26.0784 25.9026 28.5684C21.8946 30.4284 17.96 32.4584 14.1149 34.8084C12.3797 35.8684 10.669 37.0384 8.90937 38.0484C6.9624 39.1684 4.89323 39.3184 2.90552 40.2584C0.298695 41.4984 -2.1615 43.1984 -4.76833 44.4284C-7.22853 45.5984 -9.72945 46.1184 -12.0756 47.6384C-16.3361 50.4084 -20.947 52.0784 -25.1831 54.9384C-25.7859 55.3484 -26.3806 55.7584 -26.9834 56.1684V229.698C-20.6048 230.018 -14.2181 230.128 -7.82321 230.038C23.9882 229.558 55.5064 223.578 87.3016 223.088C104.857 222.818 122.355 226.188 139.788 228.128C154.908 229.808 170.077 230.868 185.164 232.978C206.817 236.008 228.787 239.738 250.603 240.238C270.993 240.698 291.262 239.138 311.57 237.088C330.698 235.158 349.826 233.388 368.921 230.988C394.647 227.758 420.324 223.588 446.009 219.868C469.609 216.448 493.201 212.658 516.63 207.758C539.114 203.058 561.484 197.568 584 193.078V17.8684Z" fill="#456E6B"/>
<path d="M188.023 87.0884C189.008 87.0884 190.059 86.9784 191.045 87.0684C191.868 87.1384 192.251 87.6184 192.853 87.7984C194.214 88.2084 195.232 87.8084 196.43 86.8784C196.755 86.6284 197.081 86.3584 197.399 86.0984C195.68 85.2284 193.953 84.3884 192.177 83.6684C189.171 82.4484 186.149 81.6284 183.176 80.4884C180.919 79.6184 178.63 77.8684 176.414 76.7784C172.227 74.7184 167.494 72.5284 163.918 69.1184C161.677 66.9784 159.787 65.6084 157.164 64.1684C156.301 63.6884 155.478 62.8484 154.574 62.5184C153.678 62.1884 152.847 62.5184 151.959 62.3684C151.274 62.2584 150.712 61.7284 150.085 61.5884C149.474 61.4584 149.148 61.9584 148.627 61.8984C147.332 61.7484 146.15 61.3884 144.831 61.3984C142.68 61.4184 140.888 61.5184 138.884 60.7184C138.159 60.4284 137.442 60.1384 136.725 59.8384C136.888 60.6784 136.921 61.6884 137.377 62.3484C137.963 63.1984 138.705 63.6184 139.601 64.3684C141.075 65.6084 141.507 66.0484 143.373 65.9984C145.018 65.9484 145.93 66.1284 147.275 66.6984C150.093 67.8784 152.415 68.5484 153.466 72.3884C154.223 75.1484 154.395 76.8884 156.073 78.8184C156.586 79.4084 156.887 80.1084 157.36 80.7084C158.345 81.9484 159.347 82.5284 160.569 83.4284C162.142 84.5884 162.907 85.2284 164.863 85.2884C166.158 85.3284 167.453 85.2484 168.748 85.2684C170.679 85.2984 172.251 84.9684 174.043 84.1084C175.697 83.3184 175.99 83.4084 177.164 85.0184C179.485 88.2084 180.398 88.3684 183.697 87.3084C185.082 86.8584 186.63 87.0884 188.023 87.0884Z" fill="#699597"/>
<path d="M-21.7619 66.0184C-18.8455 63.4284 -15.3426 61.3885 -12.0352 59.3485C-6.87039 56.1685 -2.88683 50.9884 1.97653 47.4484C4.52634 45.5884 6.8399 44.5484 9.79702 43.9284C11.3611 43.5984 12.5668 43.8984 14.1146 43.0784C15.695 42.2384 17.2183 40.8285 18.5788 39.4385C20.7294 37.2385 22.7904 34.6385 25.1121 32.7185C27.4338 30.7985 30.2036 30.2984 32.8267 29.3284C34.0324 28.8884 35.3032 27.8684 36.5252 27.2084C37.7553 26.5484 38.9528 26.2984 40.0933 25.3984C42.8549 23.2284 45.3232 22.8685 48.4758 21.9385C50.7731 21.2585 53.4451 20.6184 55.3188 18.6284C54.9115 18.4684 54.496 18.3384 54.0805 18.2684C52.1091 17.9484 49.9503 19.0584 48.1011 19.6684C46.1704 20.3084 44.4434 21.5184 42.5127 22.1984C37.0628 24.1384 31.2463 26.0785 25.886 28.5685C21.878 30.4285 17.9434 32.4585 14.0983 34.8085C12.3631 35.8685 10.6524 37.0384 8.89278 38.0484C6.9458 39.1684 4.87663 39.3184 2.88892 40.2584C0.282094 41.4984 -2.1781 43.1984 -4.78493 44.4284C-7.24512 45.5984 -9.74605 46.1184 -12.0922 47.6384C-16.3527 50.4084 -20.9636 52.0785 -25.1997 54.9385C-25.8025 55.3485 -26.3972 55.7584 -27 56.1684V68.9184C-25.1182 68.3584 -23.3504 67.4284 -21.7619 66.0184Z" fill="#699597"/>
<path d="M260.819 80.8583C263.605 81.5183 266.089 83.0383 268.924 81.9083C271.45 80.8983 273.551 78.7183 275.637 76.7783C277.747 74.8183 280.109 72.0383 282.455 70.6183C284.256 69.5283 286.211 69.7483 288.036 68.7783C291.416 66.9783 294.365 63.8583 297.314 61.2083C299.514 59.2283 301.428 56.5983 303.481 54.2283C301.958 53.9183 300.385 54.0883 298.805 54.0683C294.039 54.0283 289.486 56.7483 284.989 58.6183C281.429 60.0983 277.918 62.2383 274.513 64.1883C272.517 65.3283 270.374 66.0383 268.354 67.0983C266.334 68.1583 264.639 69.9283 262.668 71.0783C254.196 75.9983 245.593 80.1883 236.934 84.5883C234.946 85.5983 233.129 86.8883 231.207 88.0283C229.618 88.9683 227.81 89.2783 226.164 90.0483C223.663 91.2083 221.195 92.6183 218.686 93.5383C217.822 93.8583 216.951 94.1083 216.095 94.2283C216.226 94.4983 216.372 94.7483 216.576 94.9383C219.069 97.2183 226.229 93.2483 228.616 91.9183C229.227 91.5783 229.7 90.9783 230.368 90.9083C230.873 90.8583 230.946 91.5883 231.516 91.7283C233.251 92.1683 235.133 91.2783 236.787 90.7583C240.99 89.4383 244.933 87.5483 248.884 85.5083C253.112 83.3283 255.98 79.7083 260.819 80.8583Z" fill="#699597"/>
</svg>
