<svg width="375" height="141" viewBox="0 0 375 141" fill="none" xmlns="http://www.w3.org/2000/svg">
<path d="M-23.9784 66.9763C-22.131 65.4654 -20.197 64.1003 -18.3424 62.669C-16.5167 61.2774 -14.0198 60.5484 -12.0353 59.9653C-9.16321 59.1171 -6.29111 58.5207 -3.40457 57.7918C1.84892 56.4665 5.73853 50.2904 10.5663 47.441C13.2363 45.8639 15.8198 43.7301 18.3238 42.1397C18.8001 43.2795 19.3846 42.5506 20.0774 42.7626C20.4743 42.8819 20.7774 43.3856 21.1743 43.6241C23.3103 44.8567 25.7494 45.6916 27.9576 46.6591C30.2741 47.6663 32.4967 49.1507 34.7843 50.2905C37.3822 51.5893 39.5832 53.8025 42.1161 55.1014C43.8119 55.9628 45.3274 57.9508 47.016 58.9978C48.1345 59.7002 49.2242 60.5219 50.2922 61.4099C52.4499 63.1858 54.5354 64.9087 56.823 66.2606C59.7312 67.9835 63.0796 69.5871 66.2836 68.7522C68.1166 68.2618 69.9206 66.0353 71.5876 64.8292C73.2979 63.5834 75.1164 62.5762 76.805 61.2376C78.4143 59.9653 79.872 58.3484 81.5678 57.3809C83.1554 56.4797 83.7977 56.652 85.3492 57.3809C87.2471 58.2821 89.1738 59.2761 90.9996 60.5882C92.3996 61.5822 93.8356 62.0461 95.2356 62.987C96.3108 63.716 97.2345 64.763 98.3747 65.2798C103.462 67.5594 108.11 71.6016 113.284 73.5631C114.9 74.1727 116.278 74.8354 117.844 73.7619C119.208 72.8209 120.327 71.5353 121.554 70.263C124.592 67.1353 127.68 64.1268 131.094 62.0195C135.885 59.0773 140.59 55.658 145.584 53.5375C149.56 51.8411 153.363 48.1302 157.036 45.2808C161.308 41.9675 164.909 36.9047 168.972 33.1143C170.776 31.4311 172.725 29.6022 174.644 28.2636C176.672 26.8456 178.44 25.0696 180.381 23.4395C183.152 21.1202 186.14 18.9997 188.997 16.9322C191.292 15.2755 193.912 14.2285 196.069 12.1478C198.025 10.2658 199.966 9.00675 202.117 7.68143C204.563 6.18382 207.334 5.12355 209.651 3.2416C212.544 0.869275 215.041 -0.0982113 218.289 0.00781427C219.494 0.0475739 220.829 0.339159 221.969 0.975312C222.748 1.39941 223.376 2.06206 224.184 2.43315C225.137 2.87051 225.815 3.1886 226.724 3.87777C230.398 6.62118 234.266 8.70193 237.946 11.4718C240.327 13.2478 242.586 15.3683 244.866 17.396C246.808 19.1189 248.994 20.0467 250.906 21.8358C254.442 25.1491 257.914 28.3564 261.673 31.1529C265.332 33.8698 269.005 36.5336 272.685 39.2108C278.877 43.7169 284.621 48.9651 290.741 53.5772C293.252 55.4725 295.511 58.534 298.087 60.0183C299.653 60.9195 302.186 61.0123 303.997 60.6545C306.054 60.2436 308.312 58.7195 310.297 57.2087C311.329 56.4135 312.469 55.7376 313.45 54.8098C314.338 53.9749 314.988 52.7953 316.077 52.5303C318.495 51.9339 321.143 53.4315 323.322 54.7966C326.151 56.5592 328.706 59.0508 331.268 61.3966C333.151 63.1063 334.962 64.4714 336.99 65.7039C338.224 66.4461 339.162 67.7052 340.382 68.5136C342.619 69.998 344.777 72.1053 347.1 73.4041C349.547 74.7691 351.993 75.8692 354.49 77.0089C355.486 77.4595 356.518 77.9897 357.614 77.6583C358.74 77.3137 359.209 75.8824 360.234 75.3523C360.963 74.9812 361.627 75.4185 362.348 75.233C362.933 75.0739 363.337 74.4908 363.929 74.345C364.484 74.2125 364.932 74.4378 365.509 74.2125C366.137 73.9739 366.404 73.6161 367.09 73.5631C368.309 73.4703 369.06 73.0992 370.214 72.7281C370.892 72.5161 371.636 72.7944 372.35 72.5956C372.985 72.4101 373.49 71.986 374.183 71.9329C381.241 71.4691 387.533 68.2221 393.761 63.1196C394.844 62.2316 395.637 60.7605 396.669 59.8063C397.333 59.1834 398.076 58.852 398.762 58.2689C400.357 56.9038 401.706 54.9689 403.258 53.564C404.153 52.7556 405.069 51.9869 406 51.2314V162.532C398.726 162.214 391.293 163.102 384.07 164.016C374.465 165.222 364.982 167.382 355.334 167.979C348.428 168.403 341.565 168.549 334.674 169.397C328.792 170.113 322.933 171.054 317.044 171.61C303.903 172.843 290.741 174.287 277.585 174.99C262.214 175.812 246.793 175.891 231.408 176.116C212.523 176.381 193.623 176.792 174.76 178.542C159.252 179.973 143.809 182.557 128.402 185.566C114.583 188.256 100.792 190.986 86.8357 191C71.3134 191.026 55.8849 189.409 40.4563 186.706C23.0072 183.644 5.6808 178.78 -11.6168 174.155C-15.7445 173.055 -19.8723 171.915 -24 170.722V66.9763H-23.9784Z" fill="#4B7674"/>
<path d="M74.364 137.144C69.876 137.144 66.552 135.872 64.392 133.328C63.624 132.416 63 131.204 62.52 129.692C62.04 128.18 61.8 126.344 61.8 124.184C61.8 122.024 62.148 120.092 62.844 118.388C63.564 116.66 64.536 115.328 65.76 114.392C68.136 112.64 71.004 111.764 74.364 111.764C75.444 111.764 76.5 111.848 77.532 112.016C78.564 112.16 79.332 112.316 79.836 112.484L80.592 112.736L80.484 113.096C78.612 112.448 76.572 112.124 74.364 112.124C71.82 112.124 69.696 112.952 67.992 114.608C66.696 115.832 65.784 117.632 65.256 120.008C64.944 121.352 64.788 122.996 64.788 124.94C64.788 126.884 65.064 128.684 65.616 130.34C66.168 131.972 66.792 133.184 67.488 133.976C68.208 134.768 69.072 135.404 70.08 135.884C71.088 136.34 71.892 136.604 72.492 136.676C73.092 136.748 73.8 136.784 74.616 136.784C75.456 136.784 76.572 136.688 77.964 136.496V129.08H73.608V128.72H82.5V129.08H80.952V136.172C79.128 136.82 76.932 137.144 74.364 137.144ZM85.1789 125.012C85.1789 120.644 86.2349 117.332 88.3469 115.076C90.4829 112.796 93.2189 111.656 96.5549 111.656C99.8909 111.656 102.543 112.64 104.511 114.608C106.503 116.576 107.499 119.72 107.499 124.04C107.499 128.36 106.443 131.624 104.331 133.832C102.219 136.04 99.3989 137.144 95.8709 137.144C92.8229 137.144 90.3269 136.268 88.3829 134.516C87.3749 133.604 86.5829 132.344 86.0069 130.736C85.4549 129.104 85.1789 127.196 85.1789 125.012ZM96.4469 112.016C94.0229 112.016 92.0309 113.096 90.4709 115.256C88.9349 117.416 88.1669 120.584 88.1669 124.76C88.1669 128.936 88.8989 131.984 90.3629 133.904C91.8269 135.824 93.7709 136.784 96.1949 136.784C98.6429 136.784 100.635 135.704 102.171 133.544C103.731 131.36 104.511 128.204 104.511 124.076C104.511 119.924 103.767 116.876 102.279 114.932C100.815 112.988 98.8709 112.016 96.4469 112.016ZM110.738 125.012C110.738 120.644 111.794 117.332 113.906 115.076C116.042 112.796 118.778 111.656 122.114 111.656C125.45 111.656 128.102 112.64 130.07 114.608C132.062 116.576 133.058 119.72 133.058 124.04C133.058 128.36 132.002 131.624 129.89 133.832C127.778 136.04 124.958 137.144 121.43 137.144C118.382 137.144 115.886 136.268 113.942 134.516C112.934 133.604 112.142 132.344 111.566 130.736C111.014 129.104 110.738 127.196 110.738 125.012ZM122.006 112.016C119.582 112.016 117.59 113.096 116.03 115.256C114.494 117.416 113.726 120.584 113.726 124.76C113.726 128.936 114.458 131.984 115.922 133.904C117.386 135.824 119.33 136.784 121.754 136.784C124.202 136.784 126.194 135.704 127.73 133.544C129.29 131.36 130.07 128.204 130.07 124.076C130.07 119.924 129.326 116.876 127.838 114.932C126.374 112.988 124.43 112.016 122.006 112.016ZM139.896 111.836C140.952 111.788 141.984 111.764 142.992 111.764C144.024 111.764 145.104 111.872 146.232 112.088C147.384 112.304 148.512 112.712 149.616 113.312C150.744 113.888 151.692 114.644 152.46 115.58C153.252 116.492 153.888 117.704 154.368 119.216C154.848 120.728 155.088 122.564 155.088 124.724C155.088 126.884 154.728 128.828 154.008 130.556C153.312 132.26 152.352 133.568 151.128 134.48C148.752 136.256 145.884 137.144 142.524 137.144C141.348 137.144 140.112 137.096 138.816 137H137.016V111.836H139.896ZM140.004 136.712C140.508 136.76 141.144 136.784 141.912 136.784C142.68 136.784 143.256 136.772 143.64 136.748C144.024 136.724 144.552 136.628 145.224 136.46C145.896 136.268 146.52 136.016 147.096 135.704C147.672 135.392 148.272 134.936 148.896 134.336C149.544 133.712 150.096 132.98 150.552 132.14C151.584 130.172 152.1 127.604 152.1 124.436C152.1 122.18 151.824 120.236 151.272 118.604C150.72 116.948 150.084 115.724 149.364 114.932C148.668 114.14 147.816 113.516 146.808 113.06C145.8 112.58 144.996 112.304 144.396 112.232C143.796 112.16 143.1 112.124 142.308 112.124C141.516 112.124 140.748 112.16 140.004 112.232V136.712ZM170.456 137H169.988L173.12 111.8H174.308L181.868 135.092L189.392 111.8H190.58L193.712 137H190.724L188.24 116.84L181.724 137H179.456L172.868 117.092L170.456 137ZM197.327 125.012C197.327 120.644 198.383 117.332 200.495 115.076C202.631 112.796 205.367 111.656 208.703 111.656C212.039 111.656 214.691 112.64 216.659 114.608C218.651 116.576 219.647 119.72 219.647 124.04C219.647 128.36 218.591 131.624 216.479 133.832C214.367 136.04 211.547 137.144 208.019 137.144C204.971 137.144 202.475 136.268 200.531 134.516C199.523 133.604 198.731 132.344 198.155 130.736C197.603 129.104 197.327 127.196 197.327 125.012ZM208.595 112.016C206.171 112.016 204.179 113.096 202.619 115.256C201.083 117.416 200.315 120.584 200.315 124.76C200.315 128.936 201.047 131.984 202.511 133.904C203.975 135.824 205.919 136.784 208.343 136.784C210.791 136.784 212.783 135.704 214.319 133.544C215.879 131.36 216.659 128.204 216.659 124.076C216.659 119.924 215.915 116.876 214.427 114.932C212.963 112.988 211.019 112.016 208.595 112.016ZM223.606 112.088C226.39 111.896 228.85 111.8 230.986 111.8C236.914 111.8 239.878 113.78 239.878 117.74C239.878 119.42 239.47 120.92 238.654 122.24C237.838 123.56 236.434 124.436 234.442 124.868L241.642 137H238.294L231.238 125.084H226.594V137H223.606V112.088ZM230.986 112.16C229.594 112.16 228.13 112.244 226.594 112.412V124.724H231.922C235.306 124.58 236.998 122.276 236.998 117.812C236.998 115.988 236.494 114.596 235.486 113.636C234.478 112.652 232.978 112.16 230.986 112.16ZM245.515 137H245.047V111.8H246.271L261.247 135.092V111.8H261.715V137H259.087L245.515 116.12V137ZM266.567 112.16V111.8H272.975V112.16H271.211V136.64H272.975V137H266.567V136.64H268.223V112.16H266.567ZM278.316 137H277.848V111.8H279.072L294.048 135.092V111.8H294.516V137H291.888L278.316 116.12V137ZM311.212 137.144C306.724 137.144 303.4 135.872 301.24 133.328C300.472 132.416 299.848 131.204 299.368 129.692C298.888 128.18 298.648 126.344 298.648 124.184C298.648 122.024 298.996 120.092 299.692 118.388C300.412 116.66 301.384 115.328 302.608 114.392C304.984 112.64 307.852 111.764 311.212 111.764C312.292 111.764 313.348 111.848 314.38 112.016C315.412 112.16 316.18 112.316 316.684 112.484L317.44 112.736L317.332 113.096C315.46 112.448 313.42 112.124 311.212 112.124C308.668 112.124 306.544 112.952 304.84 114.608C303.544 115.832 302.632 117.632 302.104 120.008C301.792 121.352 301.636 122.996 301.636 124.94C301.636 126.884 301.912 128.684 302.464 130.34C303.016 131.972 303.64 133.184 304.336 133.976C305.056 134.768 305.92 135.404 306.928 135.884C307.936 136.34 308.74 136.604 309.34 136.676C309.94 136.748 310.648 136.784 311.464 136.784C312.304 136.784 313.42 136.688 314.812 136.496V129.08H310.456V128.72H319.348V129.08H317.8V136.172C315.976 136.82 313.78 137.144 311.212 137.144Z" fill="white"/>
<path d="M348.78 134C348.488 123.561 338.473 123.758 334 126.757C339.306 121.79 346.665 125.377 349.681 127.792C355.446 121.205 363.629 124.672 367 127.229C355.853 120.534 349.701 128.653 348.78 134Z" fill="#050B0B"/>
<path d="M269 117.607C269.14 117.521 269.289 117.438 269.448 117.36C277.207 113.245 285.647 117.207 288.95 119.755C302.91 110.485 310.133 114.46 312 117.607C303.52 110.375 292.533 118.856 288.1 124C284.836 115.887 273.747 115.232 269.448 117.36C269.299 117.439 269.149 117.521 269 117.607Z" fill="#021713"/>
<path d="M211 107.607C211.14 107.521 211.289 107.438 211.448 107.36C219.207 103.245 227.647 107.207 230.95 109.755C244.91 100.485 252.133 104.46 254 107.607C245.52 100.375 234.533 108.856 230.1 114C226.836 105.887 215.747 105.232 211.448 107.36C211.299 107.439 211.149 107.521 211 107.607Z" fill="#021713"/>
</svg>
