<svg width="375" height="184" viewBox="0 0 375 184" fill="none" xmlns="http://www.w3.org/2000/svg">
<path d="M403 76.0396C401.154 74.3196 399.222 72.7696 397.358 71.1496C395.535 69.5596 393.035 68.7396 391.052 68.0696C388.179 67.1096 385.307 66.4296 382.423 65.6096C377.171 64.1096 373.284 57.0995 368.457 53.8595C365.785 52.0695 363.199 49.6496 360.699 47.8496C360.229 49.1496 359.639 48.3196 358.945 48.5596C358.549 48.6996 358.24 49.2695 357.844 49.5295C355.706 50.9195 353.269 51.8695 351.056 52.9695C348.74 54.1195 346.521 55.7996 344.228 57.0996C341.625 58.5696 339.429 61.0895 336.895 62.5495C335.203 63.5295 333.684 65.7796 331.993 66.9796C330.875 67.7696 329.78 68.7196 328.719 69.7096C326.557 71.7296 324.476 73.6696 322.189 75.2096C319.276 77.1696 315.928 78.9895 312.723 78.0295C310.888 77.4795 309.088 74.9496 307.42 73.5796C305.705 72.1696 303.888 71.0195 302.202 69.4995C300.597 68.0495 299.141 66.2296 297.438 65.1196C295.855 64.0896 295.208 64.2896 293.654 65.1196C291.756 66.1396 289.824 67.2796 288.001 68.7596C286.602 69.8896 285.163 70.4196 283.764 71.4896C282.686 72.3196 281.769 73.5096 280.622 74.0896C275.537 76.6796 270.887 81.2596 265.715 83.4896C264.099 84.1896 262.723 84.9396 261.152 83.7196C259.787 82.6596 258.669 81.1895 257.442 79.7495C254.403 76.1995 251.319 72.7796 247.902 70.3996C243.109 67.0596 238.402 63.1796 233.414 60.7696C229.441 58.8496 225.634 54.6296 221.964 51.3996C217.693 47.6396 214.092 41.8896 210.033 37.5996C208.233 35.6896 206.284 33.6196 204.363 32.0896C202.339 30.4796 200.567 28.4596 198.624 26.6196C195.855 23.9896 192.862 21.5796 190.007 19.2296C187.708 17.3396 185.093 16.1595 182.937 13.7996C180.982 11.6595 179.039 10.2396 176.895 8.73955C174.452 7.02955 171.677 5.83955 169.361 3.68955C166.466 0.999549 163.972 -0.100449 160.721 0.0195511C159.517 0.0595511 158.187 0.399548 157.04 1.10955C156.26 1.58955 155.63 2.33955 154.821 2.76955C153.869 3.26955 153.193 3.62956 152.281 4.39956C148.606 7.50956 144.742 9.87956 141.055 13.0096C138.676 15.0296 136.417 17.4296 134.135 19.7296C132.197 21.6896 130.007 22.7395 128.092 24.7795C124.555 28.5395 121.086 32.1795 117.325 35.3595C113.667 38.4395 109.992 41.4595 106.311 44.4995C100.125 49.6095 94.3747 55.5695 88.2572 60.7995C85.746 62.9495 83.4871 66.4296 80.9128 68.1096C79.3476 69.1296 76.8135 69.2396 75.0017 68.8296C72.9435 68.3596 70.6845 66.6396 68.7008 64.9096C67.6688 64.0096 66.5279 63.2396 65.5475 62.1796C64.6588 61.2196 64.0109 59.8996 62.9159 59.5896C60.5021 58.9096 57.8533 60.6195 55.6689 62.1595C52.8424 64.1595 50.2853 66.9896 47.7225 69.6496C45.842 71.5996 44.0245 73.1396 42.0007 74.5396C40.768 75.3896 39.8277 76.8096 38.6123 77.7196C36.3705 79.3996 34.2205 81.7896 31.8928 83.2696C29.4447 84.8296 26.9965 86.0696 24.5025 87.3696C23.5107 87.8896 22.4729 88.4796 21.3779 88.1096C20.2541 87.7196 19.7783 86.0995 18.7577 85.4995C18.0296 85.0695 17.3645 85.5796 16.6421 85.3596C16.0573 85.1896 15.6503 84.5096 15.0655 84.3396C14.5093 84.1796 14.0621 84.4396 13.4888 84.1896C12.8639 83.9096 12.5887 83.5096 11.9121 83.4596C10.6909 83.3596 9.93987 82.9296 8.78173 82.5096C8.1052 82.2596 7.35987 82.5896 6.64893 82.3596C6.01253 82.1496 5.508 81.6596 4.81427 81.6096C-2.24347 81.0896 -8.53867 77.3996 -14.7651 71.5996C-15.8487 70.5896 -16.6456 68.9196 -17.6719 67.8396C-18.3369 67.1396 -19.0823 66.7596 -19.7588 66.0996C-21.3527 64.5596 -22.7057 62.3496 -24.2595 60.7596C-25.1539 59.8396 -26.0769 58.9696 -27 58.1196V184.44C-19.7301 184.08 -12.294 185.09 -5.06427 186.12C4.5448 187.48 14.0277 189.94 23.6712 190.62C30.5741 191.1 37.4427 191.27 44.3284 192.23C50.2051 193.05 56.0703 194.11 61.9584 194.74C75.0992 196.14 88.2629 197.78 101.415 198.58C116.786 199.51 132.209 199.61 147.591 199.85C166.477 200.15 185.374 200.62 204.237 202.6C219.745 204.22 235.185 207.15 250.597 210.57C264.42 213.63 278.208 216.72 292.163 216.74C307.689 216.77 323.117 214.93 338.54 211.87C355.992 208.4 373.313 202.88 390.616 197.63C394.744 196.38 398.872 195.08 403 193.73V76.0396Z" fill="#5F8887"/>
<path d="M156.277 13.7496C157.538 11.8696 158.45 9.34965 159.677 7.31965C161.231 4.75965 163.341 2.47964 165.542 0.969639C164.034 0.249639 162.492 -0.0603521 160.726 0.00964794C159.522 0.0496479 158.192 0.389644 157.045 1.09964C156.266 1.57964 155.635 2.32965 154.827 2.75965C153.875 3.25965 153.198 3.61964 152.287 4.38964C148.612 7.49964 144.747 9.86964 141.061 12.9996C138.682 15.0196 136.423 17.4196 134.141 19.7196C132.203 21.6796 130.013 22.7296 128.098 24.7696C124.56 28.5296 121.092 32.1696 117.331 35.3496C113.673 38.4296 109.998 41.4496 106.317 44.4896C100.131 49.5996 94.3801 55.5596 88.2626 60.7896C85.7514 62.9396 83.4925 66.4196 80.9182 68.0996C80.4595 68.3996 79.9091 68.6097 79.3301 68.7597C79.4562 68.7797 79.5938 68.7896 79.7543 68.7896C81.2507 68.7396 82.1107 69.5897 83.4351 70.1697C85.4074 71.0197 86.3821 69.8496 88.2741 68.5696C90.5674 67.0096 92.8149 65.3596 95.0738 63.7196C96.6505 62.5796 98.1813 62.6196 99.735 61.2296C103.588 57.7896 107.383 50.8996 111.832 50.4296C112.578 50.3496 113.426 50.7396 114.143 50.3796C114.86 50.0196 115.84 48.9596 116.557 48.4296C117.755 47.5496 118.54 45.8796 119.698 44.8996C120.467 44.2496 121.258 44.0496 122.049 43.5296C123.23 42.7496 124.245 41.3896 125.409 40.5196C126.819 39.4596 128.493 39.3096 129.732 37.6596C130.494 36.6396 131.085 35.1896 131.847 34.1296C133.516 31.8196 134.961 29.7896 136.818 27.9896C141.198 23.7196 146.284 23.0796 150.871 19.5296C152.9 17.9296 154.592 16.2596 156.277 13.7496Z" fill="#64A09C"/>
<path d="M55.6743 62.1397C52.8478 64.1397 50.2907 66.9697 47.7279 69.6297C45.8474 71.5797 44.0299 73.1197 42.0061 74.5197C40.7734 75.3697 39.8331 76.7897 38.6177 77.6997C36.3759 79.3797 34.2259 81.7697 31.8982 83.2497C29.6221 84.6997 27.3402 85.8797 25.0239 87.0797C25.7062 86.8697 26.3541 86.5397 26.6293 86.4097C27.5179 85.9997 28.4295 86.5797 29.2953 86.2497C30.2413 85.8997 31.2331 85.2797 32.1677 84.8397C33.3889 84.2597 34.3979 82.9497 35.5561 82.4897C37.1442 81.8597 39.0935 82.4597 40.6014 81.1997C41.2951 80.6197 41.685 80.0597 42.4074 79.5597C43.1126 79.0797 43.8293 78.7397 44.523 78.2097C46.3003 76.8497 47.5387 76.1097 48.8574 73.5997C49.6945 72.0097 50.4914 70.7497 51.5693 69.6897C52.5783 68.6997 53.9945 67.9197 54.9233 66.7397C56.0011 65.3697 56.5687 62.7797 57.6695 61.5997C58.7073 60.4897 60.0603 59.9397 61.2357 59.4497C59.3093 59.6797 57.3542 60.9497 55.6743 62.1397Z" fill="#64A09C"/>
<path d="M292.719 72.4097C294.405 69.8397 296.079 67.3497 298.189 66.0297C298.275 65.9797 298.361 65.9297 298.453 65.8797C298.126 65.6097 297.793 65.3497 297.449 65.1297C295.867 64.0997 295.219 64.2997 293.665 65.1297C291.767 66.1497 289.835 67.2897 288.012 68.7697C286.613 69.8997 285.174 70.4297 283.775 71.4997C282.697 72.3297 281.78 73.5197 280.633 74.0997C275.548 76.6897 270.898 81.2697 265.727 83.4997C265.107 83.7697 264.528 84.0397 263.955 84.2097C264.976 86.0397 265.469 86.8897 267.349 87.1897C271.007 87.7797 274.384 84.8597 277.755 82.7697C278.415 82.3597 279.355 81.6297 280.066 81.5497C280.966 81.4497 281.877 82.4897 282.783 82.5997C284.469 82.7997 285.61 81.4497 286.934 79.7997C288.115 78.3297 289.417 77.2497 290.638 75.8797C291.567 74.8397 291.894 73.6697 292.719 72.4097Z" fill="#64A09C"/>
<path d="M346.858 67.1296C348.108 66.1296 349.754 66.3896 351.078 65.8496C355.263 64.1396 357.161 59.7996 359.621 54.3696C360.475 52.4896 361.398 50.7596 362.401 49.1496C361.828 48.6996 361.261 48.2596 360.699 47.8496C360.229 49.1496 359.638 48.3196 358.944 48.5596C358.549 48.6996 358.239 49.2696 357.843 49.5296C355.705 50.9196 353.268 51.8696 351.055 52.9696C348.739 54.1196 346.52 55.7996 344.227 57.0996C341.624 58.5696 339.428 61.0896 336.894 62.5496C335.203 63.5296 333.683 65.7796 331.992 66.9796C330.874 67.7696 329.779 68.7196 328.718 69.7096C326.557 71.7296 324.475 73.6696 322.188 75.2096C319.373 77.0996 316.145 78.8696 313.032 78.1096C313.462 78.3296 313.88 78.5996 314.282 79.0896C314.981 79.9396 315.365 81.6896 315.927 82.5896C317.274 84.7496 321.299 82.6096 322.801 81.7196C326.322 79.6496 329.613 75.8696 333.161 74.3196C336.808 72.7196 340.586 72.3496 344.135 69.9296C345.196 69.2196 345.895 67.9096 346.858 67.1296Z" fill="#64A09C"/>
</svg>
