<svg width="375" height="208" viewBox="0 0 375 208" fill="none" xmlns="http://www.w3.org/2000/svg">
<path d="M403 53.272C402.731 53.6943 402.473 54.1503 402.14 54.3614C401.475 54.7921 400.626 54.5894 399.927 54.8428C396.934 55.9406 393.666 59.2341 391.035 61.548C389.028 63.3214 387.251 65.9731 384.7 65.0949C381.392 63.9548 379.012 59.0737 376.106 56.5909C371.387 52.5458 367.345 58.1616 362.661 60.163C361.927 60.4755 361.205 60.4164 360.471 60.6444C359.967 60.7964 360.334 61.6747 359.502 61.6747C359.227 61.6747 357.484 60.5937 357.152 60.4248C354.893 59.251 352.686 57.942 350.427 56.7598C345.68 54.277 340.789 51.0088 336.621 46.7357C334.122 44.1684 331.266 41.863 328.555 39.7686C326.967 38.5441 325.229 37.6068 323.607 36.4751C321.973 35.3351 320.872 33.2323 319.296 32.0247C315.426 29.069 311.355 26.5862 307.634 23.2082C304.825 20.6579 301.878 18.4537 298.937 16.2412C297.355 15.0505 296.34 13.1588 294.872 11.8498C293.244 10.3889 291.289 9.67951 289.649 8.10031C287.66 6.18332 285.705 4.08055 283.767 2.30712C279.674 -1.43396 275.167 0.314127 270.753 1.0995C267.743 1.63153 264.429 4.30012 261.711 6.234C259.642 7.70341 257.526 8.64923 255.548 10.448C253.737 12.0947 252.022 13.6739 250.027 14.8309C246.501 16.8746 243.182 20.2187 239.559 21.7979C237.311 22.7775 235.11 23.6642 232.891 24.4834C229.801 25.6235 226.584 28.5623 223.643 30.4539C220.289 32.6158 216.792 34.5497 213.604 37.1423C210.136 39.9629 206.426 42.015 202.763 44.2022C199.656 46.0601 196.451 49.286 193.125 50.0883C190.729 50.6626 188.396 50.443 186.074 51.6337C183.322 53.044 180.707 55.1383 178.07 56.954C175.152 58.9639 171.941 59.6564 168.977 61.6071C166.879 62.9836 164.597 63.7099 162.47 65.0358C160.853 66.0407 159.529 67.5101 157.964 68.6079C154.507 71.0316 150.614 71.9014 146.962 73.4553C143.82 74.7896 140.804 75.9888 137.628 76.9684C132.807 78.4547 127.503 77.9818 122.86 75.803C119.712 74.3251 117.155 72.1295 114.208 70.0267C111.594 68.1604 109.295 64.0815 106.296 63.8704C102.673 63.617 99.365 63.769 96.0398 65.8971C93.1961 67.7212 91.8775 69.292 88.9822 67.375C80.7437 61.9365 79.0638 58.2883 70.8367 65.3482C69.4493 66.5389 67.9128 68.2279 66.491 69.1738C64.7825 70.3138 63.6703 68.8191 62.1223 67.6621C58.7569 65.1624 55.8158 62.3672 52.6625 59.5043C46.9924 54.353 40.4853 50.5697 34.517 46.1783C27.9353 41.3309 21.3766 36.5005 14.8006 31.6531C13.0864 30.3948 10.9307 29.3561 9.43436 27.5911C8.27053 26.223 8.43679 25.8008 6.92896 25.5306C3.27693 24.8634 -0.524171 28.7734 -3.91821 30.4962C-6.36628 31.746 -8.91755 33.0887 -11.2338 34.8199C-13.8767 36.796 -16.5599 38.1219 -19.3118 39.794C-21.8631 41.3394 -24.4487 42.5808 -27 44.0333V206.614C-15.9694 207.391 -4.95592 208.025 6.10338 207.999C23.7845 207.957 41.4312 207.856 59.0952 206.581C78.0261 205.212 96.9972 203.008 115.905 201.007C134.699 199.022 153.526 196.632 172.348 195.484C193.229 194.209 214.029 191.126 234.915 190.181C259.9 189.049 284.937 188.627 309.933 188.255C331.02 187.934 351.774 185.519 372.78 183.028C382.859 181.837 392.927 180.444 402.983 178.898V53.272H403Z" fill="#608A8A"/>
<path d="M364.5 62.0001C362.5 61.2001 361 61.6668 360.5 62.0001H360C360.167 61.6667 360.8 61.0001 362 61.0001C363.2 61.0001 365.833 59.0001 367 58.0001C372.2 54.0001 374.833 55.6667 375.5 57.0001L373.5 56.5001L372.5 57.0001V58.0001L370.5 58.5001H368.5V60.0001H367V61.0001H366C366.333 61.6667 366.5 62.8001 364.5 62.0001Z" fill="#6997C6"/>
<path d="M394 60.0001L388.5 64.5001C387.278 65.5001 384 66.0001 385 66.0001C386 66.0001 389 65.0001 393.5 63.5001C398 62.0001 400.5 60.0001 399 60.0001C397.8 60.0001 397.167 59.3334 397 59.0001L402.5 56.5001C402.5 56.0001 402.2 55.1001 401 55.5001C399.8 55.9001 398.833 56.3334 398.5 56.5001L396 58.0001L394 60.0001Z" fill="#6997C6"/>
<path d="M263.5 9.99999C264.287 8.68864 265.812 7.44894 267.659 6.33374C272.318 3.52066 272.12 0.0596487 266.974 1.8312C266.574 1.969 266.317 2.10962 265.954 2.32744L264 3.49999L261 5.49999L257.5 7.49999C256.5 8.16666 254.5 9.59999 254.5 9.99999C254.5 10.4 250.833 12.8333 249 14C247.333 15.3333 243.9 18.1 243.5 18.5C243 19 239 21.5 238.5 21.5C238.1 21.5 234.667 23.1667 233 24L229.955 25.384C228.326 26.1243 226.817 27.0975 225.429 28.2261C222.931 30.2576 219.715 32.6962 218.5 33C217.107 33.3481 212.585 36.751 209.677 39.0561C208.889 39.6803 208.202 40.441 207.338 40.9545C205.339 42.1433 202.608 42.0535 198 46C193.78 49.6138 188.368 51.2812 185.111 51.4893C184.389 51.5354 183.673 51.7135 183.068 52.1094L181.563 53.0931C178.94 54.8087 179.949 56.8221 182.5 55C186 52.5 188 54 192.5 55C197 56 198.5 53.5 204 50.5C205.268 49.8083 209.883 45.5 211.327 45.5H212H227C237 45.5 232.5 42 237.5 37C237.858 36.6422 238.189 36.2685 238.495 35.8827C243.029 30.1704 246.445 22.5441 253.12 19.607C254.038 19.2031 254.924 18.729 255.725 18.1253C258.003 16.4077 261.509 13.3186 263.5 9.99999Z" fill="#80A3A3"/>
<path d="M84.4751 75.1312L80.2252 76.1937C79.5093 76.3727 78.7651 76.0304 78.4351 75.3703C78.1684 74.8369 77.6232 74.5 77.0269 74.5H74.2475C73.751 74.5 73.2571 74.564 72.7675 74.646C71.785 74.8107 70.1103 75 68 75C66.0393 75 66.4717 67.9423 67.9865 66.6974C68.7403 66.0779 69.4382 65.4868 69.9999 65C76.4999 59 81.4999 65.5 83.4999 67.5C84.5659 68.566 86.7269 68.8034 88.5927 68.7446C90.1817 68.6944 91.6248 67.9343 92.9841 67.11C95.8621 65.3647 98.6768 64.7755 100.984 64.7429C103.269 64.7106 103.987 67.2647 102.5 69C101.5 70.1667 99.2999 72.9 98.4999 74.5C97.8788 75.7423 95.0071 76.2611 92.74 76.4311C91.5975 76.5167 90.4665 76.2333 89.4417 75.7209L89.3278 75.6639C87.8256 74.9128 86.1044 74.7239 84.4751 75.1312Z" fill="#80A3A3"/>
<path d="M-5.34058e-05 28C-0.58647 27.4136 1.657 27.1496 3.81573 27.0504C4.6212 27.0134 4.80756 26.275 4.04432 26.0149C4.00379 26.0011 3.98147 25.9902 3.94239 25.9727C2.68581 25.4098 0.220385 26.332 -1.59805 27.2368C-2.54965 27.7103 -3.39418 28.363 -4.24005 29.0066C-5.27684 29.7955 -6.22686 30.3709 -7.34753 30.903C-9.06669 31.7193 -10.7581 32.6036 -12.2852 33.7393C-15.0811 35.8187 -17.3071 37.2295 -21 39L-25.3357 41.5292C-26.3663 42.1303 -27 43.2337 -27 44.4268C-27 45.6974 -26.0076 46.7703 -25.2076 45.7831C-25.1382 45.6974 -25.0688 45.6033 -25 45.5C-24 44 -20 41 -19.5 41C-19 41 -15.5 41 -14 37C-12.5 33 -8 36.5 -7.5 33.5C-7 30.5 0.999947 29 -5.34058e-05 28Z" fill="#80A3A3"/>
</svg>
