<svg width="12" height="12" viewBox="0 0 12 12" fill="none" xmlns="http://www.w3.org/2000/svg">
<g opacity="0.5">
<path d="M5.8576 11.7246C5.47944 11.7246 5.11677 11.5744 4.84937 11.307C4.58197 11.0396 4.43176 10.6769 4.43176 10.2988V1.44511C4.43176 1.06184 4.58401 0.694278 4.85502 0.423268C5.12603 0.152258 5.4936 0 5.87687 0C6.26013 0 6.6277 0.152258 6.89871 0.423268C7.16972 0.694278 7.32197 1.06184 7.32197 1.44511V10.2988C7.32074 10.4889 7.28173 10.677 7.20722 10.8519C7.13271 11.0269 7.02417 11.1853 6.88793 11.3179C6.75169 11.4506 6.59046 11.5548 6.41358 11.6247C6.2367 11.6945 6.04772 11.7285 5.8576 11.7246Z" fill="white"/>
<path d="M10.2988 7.30269H1.44511C1.06184 7.30269 0.694278 7.15044 0.423268 6.87943C0.152258 6.60842 0 6.24085 0 5.85758C0 5.47432 0.152258 5.10675 0.423268 4.83574C0.694278 4.56473 1.06184 4.41248 1.44511 4.41248H10.2988C10.6821 4.41248 11.0496 4.56473 11.3206 4.83574C11.5916 5.10675 11.7439 5.47432 11.7439 5.85758C11.7439 6.24085 11.5916 6.60842 11.3206 6.87943C11.0496 7.15044 10.6821 7.30269 10.2988 7.30269Z" fill="white"/>
</g>
</svg>
