<svg width="344" height="339" viewBox="0 0 344 339" fill="none" xmlns="http://www.w3.org/2000/svg">
<path d="M332.865 129.886C332.865 129.217 332.819 128.538 332.783 127.859C336.81 126.268 340.478 123.885 343.569 120.852C339.912 119.227 335.863 118.698 331.911 119.329C331.792 118.559 331.664 117.797 331.517 117.036C332.371 115.835 333.155 114.586 333.865 113.294C336.071 109.293 337.447 104.888 337.91 100.343C334.39 101.436 331.224 103.446 328.738 106.167C328.692 106.039 328.646 105.91 328.609 105.782C328.719 105.58 328.848 105.397 328.958 105.195C330.286 102.777 331.116 100.116 331.398 97.3711C329.561 97.9267 327.882 98.9107 326.5 100.242C326.49 100.2 326.475 100.16 326.454 100.123L326.5 100.077C329.483 96.6383 331.742 92.6326 333.14 88.2999C329.731 88.5673 326.443 89.6904 323.583 91.5652C323.583 91.4918 323.675 91.4276 323.711 91.3542C325.902 87.3501 327.262 82.9452 327.71 78.4032C323.825 79.6176 320.371 81.9226 317.759 85.0438C317.089 84.1266 316.41 83.2736 315.695 82.4206C316.126 82.1363 316.566 81.8519 316.979 81.5034C319.175 79.8694 321.014 77.803 322.381 75.4315C319.157 75.0321 315.898 75.8176 313.209 77.6419C312.852 77.8804 312.485 78.1464 312.118 78.4399C312.044 78.3574 311.971 78.2932 311.888 78.2106C312.851 76.2984 313.664 74.3143 314.319 72.2762C315.729 67.9239 316.247 63.3319 315.842 58.7749C311.173 61.1688 307.633 65.7274 305.596 70.8271C305.404 71.3132 305.23 71.8452 305.064 72.3771C304.542 72.0011 304.019 71.6342 303.478 71.2765C303.478 71.0655 303.478 70.8546 303.478 70.6436C303.303 70.7262 303.138 70.8362 302.973 70.9279L302.817 70.8271C304.789 67.0317 306.015 62.894 306.431 58.6373C303.739 59.4526 301.253 60.835 299.139 62.6914C299.163 62.6559 299.184 62.6192 299.203 62.5813C296.033 62.187 292.827 62.9455 290.169 64.7184L289.16 64.3699C289.923 62.7663 290.582 61.1149 291.132 59.4261C292.537 55.0728 293.055 50.4818 292.655 45.9248C287.986 48.3279 284.4 52.8772 282.409 57.9861C281.902 59.298 281.497 60.6473 281.199 62.0218L278.264 61.2697C278.264 60.9854 278.337 60.7102 278.364 60.4259C278.748 55.8659 278.215 51.2752 276.796 46.9245C273.256 50.1821 270.849 54.4849 269.926 59.206L269.082 58.9859C269.242 56.4193 268.915 53.8457 268.119 51.4005C266.267 53.074 264.931 55.2407 264.267 57.6467C263.35 57.3716 262.432 57.0872 261.515 56.7845C262.362 55.7767 263.1 54.6822 263.717 53.5193C261.587 53.2713 259.43 53.5876 257.461 54.4365C257.507 54.0604 257.571 53.6935 257.599 53.3175C257.842 50.5655 257.53 47.7926 256.682 45.1635C254.435 47.2335 252.94 49.9926 252.435 53.0056C251.6 52.5746 250.784 52.0884 249.986 51.639L252.306 53.7119L249.867 51.5473L249.426 51.2629L249.481 51.2079L249.867 51.5473L249.995 51.6298L249.5 51.1896C250.576 50.0036 251.501 48.6879 252.251 47.2731C250.155 47.0383 248.034 47.3544 246.097 48.1903L245.941 48.0527C246.179 47.3648 246.427 46.6769 246.629 45.9798C247.902 41.5808 248.283 36.9716 247.748 32.4234C243.877 34.7133 240.806 38.1401 238.952 42.2376L238.035 41.4579C238.126 39.3613 238.055 37.2608 237.824 35.1751C237.326 30.6374 235.923 26.2458 233.696 22.2607C231.034 25.8738 229.519 30.204 229.349 34.6889C229.364 33.6504 229.315 32.612 229.202 31.5796C228.908 28.8356 228.059 26.18 226.707 23.7741C225.163 25.8342 224.246 28.2959 224.066 30.8642L223.974 30.8091C224.065 30.1579 224.176 29.5067 224.24 28.8463C224.701 24.2943 224.239 19.6961 222.882 15.3266C220.265 17.5915 218.249 20.4682 217.012 23.7007C217.012 23.6182 217.012 23.5356 217.012 23.4531C216.517 18.9148 215.114 14.5227 212.885 10.5388C210.492 13.7509 209.026 17.5579 208.647 21.5453L207.647 21.0408C208.346 18.6241 208.588 16.0985 208.363 13.5931C206.394 14.6711 204.748 16.254 203.593 18.1791C202.258 14.3099 200.218 10.7212 197.576 7.59451C196.856 9.05095 196.32 10.5915 195.981 12.1806C195.911 8.17715 194.747 4.2691 192.614 0.880523C190.081 4.67475 188.343 8.9432 187.505 13.428C187.505 13.5839 187.46 13.749 187.432 13.9049C186.414 11.4404 184.918 9.20208 183.029 7.31934C182.298 9.13384 181.739 11.0133 181.36 12.9327L180.159 12.8043C180.355 10.8572 180.266 8.89186 179.893 6.9708C177.622 8.45591 175.553 10.2286 173.738 12.2448C173.823 7.9224 172.65 3.66847 170.363 6.47575e-07C167.828 3.79339 166.09 8.06217 165.254 12.5475C165.254 12.6575 165.254 12.7676 165.254 12.8776L165.162 12.8776C164.144 10.4773 162.671 8.29696 160.824 6.45717C159.866 8.83906 159.198 11.3272 158.833 13.8682L157.641 14.0884C158.174 11.4597 158.19 8.75239 157.687 6.1178C153.929 8.63787 150.729 11.9034 148.286 15.7118C148.12 15.9686 147.983 16.2438 147.818 16.5006L145.681 17.1427C145.058 15.7698 144.183 14.5255 143.103 13.4738C142.518 15.0206 142.133 16.6357 141.957 18.28C140.966 18.601 139.976 18.9404 138.985 19.2798C139.076 16.4585 138.586 13.6487 137.545 11.0249C134.313 14.2461 131.776 18.0949 130.088 22.3341C130.088 22.3983 130.088 22.4717 130.015 22.5451C129.678 19.0908 128.507 15.77 126.603 12.8685C124.128 16.7022 122.458 20.9993 121.696 25.4985C121.692 25.5657 121.692 25.6331 121.696 25.7003L121.585 25.7003C121.77 23.7112 121.484 21.7066 120.751 19.8485C118.811 21.7918 117.288 24.1108 116.275 26.6633C116.101 27.0761 115.963 27.498 115.816 27.9199L115.587 28.0116C116.245 24.1224 115.846 20.1278 114.431 16.4456C111.217 19.6591 108.692 23.4949 107.011 27.7181C106.436 29.1555 105.946 30.6256 105.543 32.1207L105.094 32.3134C103.942 27.7368 101.374 23.6409 97.7563 20.6097C96.5113 25.0145 96.1651 29.6248 96.7382 34.1661C96.7382 34.2487 96.7382 34.3312 96.7841 34.4138C94.8301 31.5787 92.2012 29.2745 89.1345 27.709C88.8629 31.6416 89.2883 35.5913 90.3911 39.3759L88.841 40.2381C86.889 38.0009 84.2389 36.4884 81.3199 35.9455C81.5478 36.9465 81.8544 37.9279 82.2371 38.8806C81.6235 38.2204 80.9613 37.6072 80.2559 37.0462C79.3882 40.0846 78.9649 43.2328 78.9994 46.3925C78.4674 46.7594 77.9446 47.1355 77.4309 47.5115C76.4882 44.0924 74.7033 40.9641 72.2395 38.4128C70.7044 42.1527 69.8592 46.1396 69.7447 50.1806C69.6839 47.8041 68.9836 45.488 67.7177 43.4758C66.8942 44.6979 66.2169 46.0124 65.6998 47.3923C65.2555 46.3273 64.7152 45.305 64.0855 44.338C61.5544 48.1311 59.8138 52.3954 58.9675 56.8763C58.7002 58.3142 58.5104 59.7655 58.3988 61.2238C58.1695 61.0863 57.9494 60.9579 57.7201 60.8386C57.7201 60.9579 57.7201 61.0863 57.7201 61.2055C55.2915 58.6411 52.2431 56.7458 48.869 55.7022C49.3163 60.2474 50.6765 64.6555 52.868 68.6624C53.3174 69.4879 53.7852 70.2859 54.308 71.0655L53.9687 71.5241C51.9601 67.1761 48.6017 63.5925 44.393 61.3064C44.038 65.8696 44.6026 70.4576 46.0531 74.7986C46.6532 76.6083 47.3796 78.3737 48.2269 80.0817C48.1169 80.2652 47.9976 80.4486 47.8784 80.632C47.6583 80.4669 47.4289 80.3018 47.1996 80.1551C44.5015 78.3574 41.2408 77.6042 38.0275 78.0363C39.4298 80.3982 41.3031 82.4463 43.5308 84.0532C44.0811 84.4568 44.6406 84.8329 45.2185 85.1906C44.6131 86.2362 44.0078 87.2818 43.384 88.3366C40.6737 84.8536 36.9551 82.2913 32.7352 80.9989C33.2277 85.5248 34.6284 89.9048 36.8535 93.8766C36.8535 93.95 36.936 94.0142 36.9819 94.0875C34.1058 92.2382 30.8085 91.1465 27.3971 90.914C28.8316 95.2348 31.1282 99.2195 34.1477 102.627C34.5146 103.049 34.9182 103.434 35.3034 103.837L35.3034 103.92C33.7121 102.047 31.613 100.674 29.259 99.9669C29.5607 102.712 30.4157 105.367 31.7722 107.772C32.0748 108.323 32.4142 108.855 32.7536 109.377L32.7536 109.478C30.0963 106.415 26.6125 104.183 22.7193 103.049C23.2262 107.584 24.6358 111.972 26.8651 115.954C27.446 116.987 28.0574 117.996 28.6995 118.981C28.3418 119.898 27.9932 120.898 27.6539 121.861C24.0766 121.506 20.4692 122.104 17.1977 123.594C19.5867 125.926 22.3333 127.862 25.3333 129.327C25.0307 130.437 24.7371 131.556 24.4711 132.684C22.5984 132.966 20.8175 133.682 19.2706 134.775C20.607 135.67 22.0568 136.382 23.5815 136.894C23.5264 137.178 23.4806 137.462 23.4255 137.747C19.3107 135.217 14.466 134.142 9.66736 134.692C11.8632 138.655 14.851 142.124 18.4451 144.883C19.6814 145.831 20.974 146.704 22.3157 147.497L22.2607 148.662C19.0335 148.758 15.9494 150.015 13.5747 152.202C16.0246 153.357 18.6906 153.982 21.3985 154.036C21.6737 154.036 21.9396 154.036 22.2148 154.036C22.2148 155.119 22.279 156.21 22.3432 157.302C18.5451 156.349 14.5536 156.505 10.8414 157.751C13.7463 161.201 17.3347 164.012 21.3801 166.006L21.6094 166.107C18.1931 166.236 14.866 167.234 11.942 169.005C15.4979 171.754 19.5914 173.726 23.9575 174.793C24.3611 174.894 24.783 174.958 25.1957 175.05L25.1957 175.132C22.9491 174.601 20.5988 174.706 18.4084 175.435C20.1643 177.521 22.3312 179.222 24.7738 180.434C25.5267 180.804 26.2982 181.134 27.0852 181.424L27.0852 181.479C23.0282 180.293 18.706 180.369 14.6937 181.7C17.5986 185.15 21.187 187.96 25.2324 189.954C27.2956 190.979 29.4438 191.823 31.6529 192.477L32.5701 194.311C27.8546 194.655 23.3823 196.537 19.8392 199.668C23.8362 201.68 28.2105 202.833 32.6802 203.052C34.3344 203.132 35.9921 203.101 37.6423 202.961C37.8257 203.236 38 203.511 38.1835 203.777C38.1192 203.832 38.0367 203.878 37.9725 203.924C35.3154 205.873 33.434 208.7 32.6618 211.903C35.3342 211.442 37.8805 210.426 40.1371 208.922C40.5407 208.666 40.9167 208.372 41.302 208.088C42.0082 209.005 42.7328 209.922 43.4666 210.784C39.4574 212.151 35.9454 214.68 33.3773 218.049C37.6907 219.24 42.2067 219.509 46.631 218.837L46.8786 218.792C44.1148 220.872 41.9089 223.604 40.4581 226.744C44.93 226.972 49.3997 226.254 53.5743 224.634C54.4915 224.267 55.4729 223.855 56.3993 223.414L56.6011 223.57C53.7191 224.302 51.167 225.982 49.3551 228.34C51.9607 229.062 54.6895 229.224 57.3623 228.817C58.4486 228.654 59.5216 228.411 60.5726 228.092C56.2565 229.419 52.4628 232.061 49.722 235.65C54.0367 236.834 58.5519 237.1 62.9757 236.43C65.5493 236.048 68.0782 235.408 70.5243 234.522C67.6775 238.581 66.2229 243.453 66.3785 248.408C70.443 246.455 74.0593 243.682 76.9998 240.264C77.9422 239.169 78.824 238.024 79.6414 236.833L80.5586 237.182C80.1462 237.577 79.7572 237.997 79.3938 238.438C77.2607 240.97 76.0854 244.171 76.0734 247.482C78.6279 246.391 80.9247 244.775 82.815 242.74C83.8906 241.563 84.8548 240.289 85.695 238.934L86.2912 239.117C85.6415 239.712 85.0288 240.346 84.4568 241.016C80.9622 245.207 78.6417 250.527 78.7059 255.874C82.862 254.134 86.6104 251.548 89.7124 248.28C91.3788 246.544 92.886 244.663 94.2159 242.657C94.0513 243.364 93.9348 244.081 93.8674 244.804C93.5195 248.098 94.3338 251.411 96.1696 254.168C97.5953 251.815 98.5312 249.197 98.9212 246.473C99.1302 245.107 99.2253 243.727 99.2055 242.346C100.618 242.593 102.031 242.795 103.452 242.978C101.091 247.484 100.276 252.64 101.132 257.654C104.885 255.125 108.076 251.85 110.506 248.032L110.634 247.812C110.326 251.309 110.883 254.827 112.257 258.057C115.396 254.768 117.83 250.873 119.412 246.611C119.779 245.693 120.081 244.712 120.329 243.749L120.531 243.749C119.212 246.398 118.775 249.4 119.283 252.316C121.552 250.787 123.481 248.808 124.952 246.501C125.553 245.557 126.089 244.573 126.557 243.556C124.657 247.725 124.068 252.373 124.869 256.883C128.618 254.347 131.809 251.069 134.243 247.253C135.419 245.427 136.447 243.51 137.316 241.52L138.159 241.346C139.335 245.722 141.822 249.633 145.286 252.554C146.516 248.295 146.903 243.836 146.424 239.429C147.056 239.273 147.698 239.126 148.331 238.961C149.461 241.76 151.491 244.103 154.101 245.62C154.37 242.962 154.124 240.278 153.376 237.714C164.337 234.962 175.288 232.32 186.524 232.146C187.927 232.146 189.322 232.146 190.725 232.201C190.063 234.647 189.861 237.194 190.129 239.713C192.902 238.092 195.021 235.551 196.118 232.531C196.714 232.577 197.31 232.641 197.907 232.706C197.907 232.843 197.861 232.972 197.842 233.109C197.301 237.653 197.675 242.26 198.943 246.656C202.694 243.443 205.29 239.092 206.336 234.265C207.317 236.721 208.527 239.08 209.95 241.309C212.381 245.128 215.572 248.406 219.324 250.94C220.125 246.433 219.54 241.789 217.645 237.622C218.115 238.635 218.651 239.615 219.25 240.557C220.72 242.867 222.65 244.849 224.919 246.381C225.437 243.131 224.812 239.802 223.148 236.962L223.561 237.035C223.9 238.273 224.276 239.502 224.735 240.704C226.326 244.964 228.762 248.858 231.898 252.151C233.241 248.932 233.776 245.433 233.458 241.96L233.586 242.18C236.019 245.996 239.209 249.271 242.96 251.802C243.705 247.687 243.272 243.446 241.713 239.566C242.841 239.649 243.96 239.713 245.079 239.75C245.079 240.034 245.125 240.319 245.171 240.603C245.559 243.33 246.495 245.951 247.922 248.307C249.616 245.791 250.438 242.788 250.261 239.759C250.83 239.759 251.408 239.759 251.976 239.676C252.738 240.594 253.536 241.511 254.37 242.428C257.474 245.693 261.222 248.279 265.377 250.023C265.335 245.849 264.114 241.773 261.855 238.264L262.543 238.09C264.113 239.546 265.918 240.727 267.881 241.584C267.901 239.925 267.589 238.278 266.963 236.741C267.505 236.549 268.046 236.338 268.578 236.127C271.17 238.774 274.206 240.947 277.548 242.547C277.704 239.166 277.053 235.795 275.649 232.715C276.958 231.957 278.236 231.149 279.483 230.293C279.979 230.385 280.456 230.495 280.951 230.569C285.375 231.24 289.891 230.971 294.205 229.78C292.404 227.374 290.092 225.397 287.436 223.992L288.353 223.121C290.441 223.257 292.537 223.04 294.553 222.479C293.79 221.438 292.86 220.53 291.802 219.791L292.187 219.397C295.828 220.579 299.655 221.083 303.478 220.883C302.137 217.966 300.137 215.401 297.635 213.389L297.929 213.05C302.157 213.619 306.456 213.326 310.568 212.188C308.691 209.678 306.258 207.637 303.459 206.226C304.377 205.079 305.211 203.914 306.073 202.75C307.257 202.795 308.44 202.795 309.632 202.75C314.103 202.532 318.478 201.376 322.473 199.356C319.509 196.71 315.854 194.961 311.934 194.311C312.631 193.238 313.319 192.147 313.989 191.055C315.025 190.642 316.053 190.193 317.052 189.688C321.095 187.691 324.683 184.88 327.591 181.434C325.158 180.597 322.582 180.254 320.015 180.425C320.492 179.507 320.932 178.59 321.382 177.673C322.295 176.931 323.136 176.105 323.895 175.206C323.51 175.07 323.118 174.957 322.721 174.866C323.042 174.16 323.344 173.435 323.638 172.72C326.042 171.7 328.305 170.374 330.37 168.776C329.013 167.942 327.555 167.286 326.032 166.822C327.032 164.144 327.93 161.42 328.728 158.678C330.107 157.53 331.381 156.262 332.535 154.889C331.683 154.595 330.809 154.368 329.921 154.211C330.049 153.688 330.168 153.165 330.288 152.642C332.323 152.408 334.306 151.841 336.158 150.964C334.819 149.613 333.183 148.595 331.379 147.992C331.685 146.323 331.945 144.647 332.159 142.966C335.438 140.306 338.177 137.043 340.23 133.353C340.001 133.353 339.763 133.307 339.524 133.289C340.253 132.926 340.958 132.516 341.634 132.06C339.058 130.326 335.953 129.556 332.865 129.886ZM245.996 48.2545L245.84 48.3187L245.895 48.1628L245.996 48.2545ZM69.7172 51.96C69.7172 52.5287 69.7722 53.0974 69.7997 53.6569L69.4604 53.9595C69.5337 53.611 69.598 53.2625 69.6346 52.9323C69.6713 52.6021 69.6988 52.281 69.7172 51.96ZM62.3061 227.542L62.3611 227.542L61.7741 227.698L62.3061 227.542ZM217.141 236.604C216.994 236.301 216.847 236.008 216.691 235.687L216.801 235.687C216.911 236.044 217.021 236.319 217.141 236.604Z" fill="#6BAC4F"/>
<g opacity="0.3">
<path d="M332.865 129.886C332.865 129.217 332.819 128.538 332.783 127.859C336.81 126.268 340.478 123.885 343.569 120.852C339.912 119.227 335.863 118.698 331.911 119.329C331.792 118.559 331.664 117.797 331.517 117.036C332.371 115.835 333.155 114.586 333.865 113.294C336.071 109.293 337.447 104.888 337.91 100.343C334.39 101.436 331.224 103.446 328.738 106.167C328.692 106.039 328.646 105.91 328.609 105.782C328.719 105.58 328.848 105.397 328.958 105.195C330.286 102.777 331.116 100.116 331.398 97.3711C329.561 97.9267 327.882 98.9107 326.5 100.242C326.49 100.2 326.475 100.16 326.454 100.123L326.5 100.077C329.483 96.6383 331.742 92.6326 333.14 88.2999C329.731 88.5673 326.443 89.6904 323.583 91.5652C323.583 91.4918 323.675 91.4276 323.711 91.3542C325.902 87.3501 327.262 82.9452 327.71 78.4032C323.825 79.6176 320.371 81.9226 317.759 85.0438C317.089 84.1266 316.41 83.2736 315.695 82.4206C316.126 82.1363 316.566 81.8519 316.979 81.5034C319.175 79.8694 321.014 77.803 322.381 75.4315C319.157 75.0321 315.898 75.8176 313.209 77.6419C312.852 77.8804 312.485 78.1464 312.118 78.4399C312.044 78.3574 311.971 78.2932 311.888 78.2106C312.851 76.2984 313.664 74.3143 314.319 72.2762C315.729 67.9239 316.247 63.3319 315.842 58.7749C311.173 61.1688 307.633 65.7274 305.596 70.8271C305.404 71.3132 305.23 71.8452 305.064 72.3771C304.542 72.0011 304.019 71.6342 303.478 71.2765C303.478 71.0655 303.478 70.8546 303.478 70.6436C303.303 70.7262 303.138 70.8362 302.973 70.9279L302.817 70.8271C304.789 67.0317 306.015 62.894 306.431 58.6373C303.739 59.4526 301.253 60.835 299.139 62.6914C299.163 62.6559 299.184 62.6192 299.203 62.5813C296.033 62.187 292.827 62.9455 290.169 64.7184L289.16 64.3699C289.923 62.7663 290.582 61.1149 291.132 59.4261C292.537 55.0728 293.055 50.4818 292.655 45.9248C287.986 48.3279 284.4 52.8772 282.409 57.9861C281.902 59.298 281.497 60.6473 281.199 62.0218L278.264 61.2697C278.264 60.9854 278.337 60.7102 278.364 60.4259C278.748 55.8659 278.215 51.2752 276.796 46.9245C273.256 50.1821 270.849 54.4849 269.926 59.206L269.082 58.9859C269.242 56.4193 268.915 53.8457 268.119 51.4005C266.267 53.074 264.931 55.2407 264.267 57.6467C263.35 57.3716 262.432 57.0872 261.515 56.7845C262.362 55.7767 263.1 54.6822 263.717 53.5193C261.587 53.2713 259.43 53.5876 257.461 54.4365C257.507 54.0604 257.571 53.6935 257.599 53.3175C257.842 50.5655 257.53 47.7926 256.682 45.1635C254.435 47.2335 252.94 49.9926 252.435 53.0056C251.6 52.5746 250.784 52.0884 249.986 51.639L252.306 53.7119L249.867 51.5473L249.426 51.2629L249.481 51.2079L249.867 51.5473L249.995 51.6298L249.5 51.1896C250.576 50.0036 251.501 48.6879 252.251 47.2731C250.155 47.0383 248.034 47.3544 246.097 48.1903L245.941 48.0527C246.179 47.3648 246.427 46.6769 246.629 45.9798C247.902 41.5808 248.283 36.9716 247.748 32.4234C243.877 34.7133 240.806 38.1401 238.952 42.2376L238.035 41.4579C238.126 39.3613 238.055 37.2608 237.824 35.1751C237.326 30.6374 235.923 26.2458 233.696 22.2607C231.034 25.8738 229.519 30.204 229.349 34.6889C229.364 33.6504 229.315 32.612 229.202 31.5796C228.908 28.8356 228.059 26.18 226.707 23.7741C225.163 25.8342 224.246 28.2959 224.066 30.8642L223.974 30.8091C224.065 30.1579 224.176 29.5067 224.24 28.8463C224.701 24.2943 224.239 19.6961 222.882 15.3266C220.265 17.5915 218.249 20.4682 217.012 23.7007C217.012 23.6182 217.012 23.5356 217.012 23.4531C216.517 18.9148 215.114 14.5227 212.885 10.5388C210.492 13.7509 209.026 17.5579 208.647 21.5453L207.647 21.0408C208.346 18.6241 208.588 16.0985 208.363 13.5931C206.394 14.6711 204.748 16.254 203.593 18.1791C202.258 14.3099 200.218 10.7212 197.576 7.59451C196.856 9.05095 196.32 10.5915 195.981 12.1806C195.912 8.17715 194.747 4.2691 192.614 0.880523C190.081 4.67475 188.343 8.9432 187.505 13.428C187.505 13.5839 187.46 13.749 187.432 13.9049C186.414 11.4404 184.918 9.20208 183.029 7.31934C182.298 9.13384 181.739 11.0133 181.36 12.9327L180.159 12.8043C180.355 10.8572 180.266 8.89186 179.893 6.9708C177.622 8.45591 175.553 10.2286 173.738 12.2448C173.823 7.9224 172.65 3.66847 170.363 6.47575e-07C167.828 3.79339 166.09 8.06217 165.254 12.5475C165.254 12.6575 165.254 12.7676 165.254 12.8776L165.162 12.8776C164.144 10.4773 162.671 8.29696 160.824 6.45717C159.866 8.83906 159.198 11.3272 158.833 13.8682L157.641 14.0884C158.174 11.4597 158.19 8.75239 157.687 6.1178C153.929 8.63787 150.729 11.9034 148.286 15.7118C148.12 15.9686 147.983 16.2438 147.818 16.5006L145.681 17.1427C145.058 15.7698 144.183 14.5255 143.103 13.4738C142.518 15.0206 142.133 16.6357 141.957 18.28C140.966 18.601 139.976 18.9404 138.985 19.2798C139.076 16.4585 138.586 13.6487 137.545 11.0249C134.313 14.2461 131.776 18.0949 130.088 22.3341C130.088 22.3983 130.088 22.4717 130.015 22.5451C129.678 19.0908 128.507 15.77 126.603 12.8685C124.128 16.7022 122.458 20.9993 121.696 25.4985C121.692 25.5657 121.692 25.6331 121.696 25.7003L121.585 25.7003C121.77 23.7112 121.484 21.7066 120.751 19.8485C118.811 21.7918 117.288 24.1108 116.275 26.6633C116.101 27.0761 115.963 27.498 115.816 27.9199L115.587 28.0116C116.245 24.1224 115.846 20.1278 114.431 16.4456C111.217 19.6591 108.692 23.4949 107.011 27.7181C106.436 29.1555 105.946 30.6256 105.543 32.1207L105.094 32.3134C103.942 27.7368 101.374 23.6409 97.7563 20.6097C96.5113 25.0145 96.1651 29.6248 96.7382 34.1661C96.7382 34.2487 96.7382 34.3312 96.7841 34.4138C94.8301 31.5787 92.2012 29.2745 89.1345 27.709C88.8629 31.6416 89.2883 35.5913 90.3911 39.3759L88.841 40.2381C86.889 38.0009 84.2389 36.4884 81.3199 35.9455C81.5478 36.9465 81.8544 37.9279 82.2371 38.8806C81.6235 38.2204 80.9613 37.6072 80.2559 37.0462C79.3882 40.0846 78.9649 43.2328 78.9994 46.3925C78.4674 46.7594 77.9446 47.1355 77.4309 47.5115C76.4882 44.0924 74.7033 40.9641 72.2395 38.4128C70.7044 42.1527 69.8592 46.1396 69.7447 50.1806C69.6839 47.8041 68.9836 45.488 67.7177 43.4758C66.8942 44.6979 66.2169 46.0124 65.6998 47.3923C65.2555 46.3273 64.7152 45.305 64.0855 44.338C61.5544 48.1311 59.8138 52.3954 58.9675 56.8763C58.7002 58.3142 58.5104 59.7655 58.3988 61.2238C58.1695 61.0863 57.9494 60.9579 57.7201 60.8386C57.7201 60.9579 57.7201 61.0863 57.7201 61.2055C55.2915 58.6411 52.2431 56.7458 48.869 55.7022C49.3163 60.2474 50.6765 64.6555 52.868 68.6624C53.3174 69.4879 53.7852 70.2859 54.308 71.0655L53.9687 71.5241C51.9601 67.1761 48.6017 63.5925 44.393 61.3064C44.038 65.8696 44.6026 70.4576 46.0531 74.7986C46.6532 76.6083 47.3796 78.3737 48.2269 80.0817C48.1169 80.2652 47.9976 80.4486 47.8784 80.632C47.6583 80.4669 47.4289 80.3018 47.1996 80.1551C44.5015 78.3574 41.2408 77.6042 38.0275 78.0363C39.4298 80.3982 41.3031 82.4463 43.5308 84.0532C44.0811 84.4568 44.6406 84.8329 45.2185 85.1906C44.6131 86.2362 44.0078 87.2818 43.384 88.3366C40.6737 84.8536 36.9551 82.2913 32.7352 80.9989C33.2277 85.5248 34.6284 89.9048 36.8535 93.8766C36.8535 93.95 36.936 94.0142 36.9819 94.0875C34.1058 92.2382 30.8085 91.1465 27.3971 90.914C28.8316 95.2348 31.1282 99.2195 34.1477 102.627C34.5146 103.049 34.9182 103.434 35.3034 103.837L35.3034 103.92C33.7121 102.047 31.613 100.674 29.259 99.9669C29.5607 102.712 30.4157 105.367 31.7722 107.772C32.0748 108.323 32.4142 108.855 32.7536 109.377L32.7536 109.478C30.0963 106.415 26.6125 104.183 22.7193 103.049C23.2262 107.584 24.6358 111.972 26.8651 115.954C27.446 116.987 28.0574 117.996 28.6995 118.981C28.3418 119.898 27.9932 120.898 27.6539 121.861C24.0766 121.506 20.4692 122.104 17.1977 123.594C19.5867 125.926 22.3333 127.862 25.3333 129.327C25.0307 130.437 24.7371 131.556 24.4711 132.684C22.5984 132.966 20.8175 133.682 19.2706 134.775C20.6071 135.67 22.0568 136.382 23.5815 136.894C23.5264 137.178 23.4806 137.462 23.4255 137.747C19.3107 135.217 14.466 134.142 9.66736 134.692C11.8632 138.655 14.851 142.124 18.4451 144.883C19.6814 145.831 20.974 146.704 22.3157 147.497L22.2607 148.662C19.0335 148.758 15.9494 150.015 13.5747 152.202C16.0246 153.357 18.6906 153.982 21.3985 154.036C21.6737 154.036 21.9396 154.036 22.2148 154.036C22.2148 155.119 22.279 156.21 22.3432 157.302C18.5451 156.349 14.5536 156.505 10.8414 157.751C13.7463 161.201 17.3347 164.012 21.3801 166.006L21.6094 166.107C18.1931 166.236 14.866 167.234 11.942 169.005C15.4979 171.754 19.5914 173.726 23.9575 174.793C24.3611 174.894 24.783 174.958 25.1957 175.05L25.1957 175.132C22.9491 174.601 20.5988 174.706 18.4084 175.435C20.1643 177.521 22.3312 179.222 24.7738 180.434C25.5267 180.804 26.2982 181.134 27.0852 181.424L27.0852 181.479C23.0282 180.293 18.706 180.369 14.6937 181.7C17.5986 185.15 21.187 187.96 25.2324 189.954C27.2956 190.979 29.4438 191.823 31.6529 192.477L32.5701 194.311C27.8546 194.655 23.3823 196.537 19.8392 199.668C23.8362 201.68 28.2105 202.833 32.6802 203.052C34.3344 203.132 35.9921 203.101 37.6423 202.961C37.8257 203.236 38 203.511 38.1835 203.777C38.1192 203.832 38.0367 203.878 37.9725 203.924C35.3154 205.873 33.434 208.7 32.6618 211.903C35.3342 211.442 37.8805 210.426 40.1371 208.922C40.5407 208.666 40.9167 208.372 41.302 208.088C42.0082 209.005 42.7328 209.922 43.4666 210.784C39.4574 212.151 35.9454 214.68 33.3773 218.049C37.6907 219.24 42.2067 219.509 46.631 218.837L46.8786 218.792C44.1148 220.872 41.9089 223.604 40.4581 226.744C44.93 226.972 49.3997 226.254 53.5743 224.634C54.4915 224.267 55.4729 223.855 56.3993 223.414L56.6011 223.57C53.7191 224.302 51.167 225.982 49.3551 228.34C51.9607 229.062 54.6895 229.224 57.3623 228.817C58.4486 228.654 59.5216 228.411 60.5726 228.092C56.2565 229.419 52.4628 232.061 49.722 235.65C54.0367 236.834 58.5519 237.1 62.9757 236.43C65.5493 236.048 68.0782 235.408 70.5243 234.522C67.6775 238.581 66.2229 243.453 66.3785 248.408C70.443 246.455 74.0593 243.682 76.9998 240.264C77.9422 239.169 78.824 238.024 79.6414 236.833L80.5586 237.182C80.1462 237.577 79.7572 237.997 79.3938 238.438C77.2607 240.97 76.0854 244.171 76.0734 247.482C78.6279 246.391 80.9247 244.775 82.815 242.74C83.8906 241.563 84.8548 240.289 85.695 238.934L86.2912 239.117C85.6415 239.712 85.0288 240.346 84.4568 241.016C80.9622 245.207 78.6417 250.527 78.7059 255.874C82.862 254.134 86.6104 251.548 89.7124 248.28C91.3788 246.544 92.886 244.663 94.2159 242.657C94.0513 243.364 93.9348 244.081 93.8674 244.804C93.5195 248.098 94.3338 251.411 96.1696 254.168C97.5953 251.815 98.5312 249.197 98.9212 246.473C99.1302 245.107 99.2253 243.727 99.2055 242.346C100.618 242.593 102.031 242.795 103.452 242.978C101.091 247.484 100.276 252.64 101.132 257.654C104.885 255.125 108.076 251.85 110.506 248.032L110.634 247.812C110.326 251.309 110.883 254.827 112.257 258.057C115.396 254.768 117.83 250.873 119.412 246.611C119.779 245.693 120.081 244.712 120.329 243.749L120.531 243.749C119.212 246.398 118.775 249.4 119.283 252.316C121.552 250.787 123.481 248.808 124.952 246.501C125.553 245.557 126.089 244.573 126.557 243.556C124.657 247.725 124.068 252.373 124.869 256.883C128.618 254.347 131.809 251.069 134.243 247.253C135.419 245.427 136.447 243.51 137.316 241.52L138.159 241.346C139.335 245.722 141.822 249.633 145.286 252.554C146.516 248.295 146.903 243.836 146.424 239.429C147.056 239.273 147.698 239.126 148.331 238.961C149.461 241.76 151.491 244.103 154.101 245.62C154.37 242.962 154.124 240.278 153.376 237.714C164.337 234.962 175.288 232.32 186.524 232.146C187.927 232.146 189.322 232.146 190.725 232.201C190.063 234.647 189.861 237.194 190.129 239.713C192.902 238.092 195.021 235.551 196.118 232.531C196.714 232.577 197.31 232.641 197.907 232.706C197.907 232.843 197.861 232.972 197.842 233.109C197.301 237.653 197.675 242.26 198.943 246.656C202.694 243.443 205.29 239.092 206.336 234.265C207.317 236.721 208.527 239.08 209.95 241.309C212.381 245.128 215.572 248.406 219.324 250.94C220.125 246.433 219.54 241.789 217.645 237.622C218.115 238.635 218.651 239.615 219.25 240.557C220.72 242.867 222.65 244.849 224.919 246.381C225.437 243.131 224.812 239.802 223.148 236.962L223.561 237.035C223.9 238.273 224.276 239.502 224.735 240.704C226.326 244.964 228.762 248.858 231.898 252.151C233.241 248.932 233.776 245.433 233.458 241.96L233.586 242.18C236.019 245.996 239.209 249.271 242.96 251.802C243.705 247.687 243.272 243.446 241.713 239.566C242.841 239.649 243.96 239.713 245.079 239.75C245.079 240.034 245.125 240.319 245.171 240.603C245.559 243.33 246.495 245.951 247.922 248.307C249.616 245.791 250.438 242.788 250.261 239.759C250.83 239.759 251.408 239.759 251.976 239.676C252.738 240.594 253.536 241.511 254.37 242.428C257.474 245.693 261.222 248.279 265.377 250.023C265.335 245.849 264.114 241.773 261.855 238.264L262.543 238.09C264.113 239.546 265.918 240.727 267.881 241.584C267.901 239.925 267.589 238.278 266.963 236.741C267.505 236.549 268.046 236.338 268.578 236.127C271.17 238.774 274.206 240.947 277.548 242.547C277.704 239.166 277.053 235.795 275.649 232.715C276.958 231.957 278.236 231.149 279.483 230.293C279.979 230.385 280.456 230.495 280.951 230.569C285.375 231.24 289.891 230.971 294.205 229.78C292.404 227.374 290.092 225.397 287.436 223.992L288.353 223.121C290.441 223.257 292.537 223.04 294.553 222.479C293.79 221.438 292.86 220.53 291.802 219.791L292.187 219.397C295.828 220.579 299.655 221.083 303.478 220.883C302.137 217.966 300.137 215.401 297.635 213.389L297.929 213.05C302.157 213.619 306.456 213.326 310.568 212.188C308.691 209.678 306.258 207.637 303.459 206.226C304.377 205.079 305.211 203.914 306.073 202.75C307.257 202.795 308.44 202.795 309.632 202.75C314.103 202.532 318.478 201.376 322.473 199.356C319.509 196.71 315.854 194.961 311.934 194.311C312.631 193.238 313.319 192.147 313.989 191.055C315.025 190.642 316.053 190.193 317.052 189.688C321.095 187.691 324.683 184.88 327.591 181.434C325.158 180.597 322.582 180.254 320.015 180.425C320.492 179.507 320.932 178.59 321.382 177.673C322.295 176.931 323.136 176.105 323.895 175.206C323.51 175.07 323.118 174.957 322.721 174.866C323.042 174.16 323.344 173.435 323.638 172.72C326.042 171.7 328.305 170.374 330.37 168.776C329.013 167.942 327.555 167.286 326.032 166.822C327.032 164.144 327.93 161.42 328.728 158.678C330.107 157.53 331.381 156.262 332.535 154.889C331.683 154.595 330.809 154.368 329.921 154.211C330.049 153.688 330.169 153.165 330.288 152.642C332.323 152.408 334.306 151.841 336.158 150.964C334.819 149.613 333.183 148.595 331.379 147.992C331.685 146.323 331.945 144.647 332.159 142.966C335.438 140.306 338.177 137.043 340.23 133.353C340.001 133.353 339.763 133.307 339.524 133.289C340.253 132.926 340.958 132.516 341.634 132.06C339.058 130.326 335.953 129.556 332.865 129.886ZM245.996 48.2545L245.84 48.3187L245.895 48.1628L245.996 48.2545ZM69.7172 51.96C69.7172 52.5287 69.7722 53.0974 69.7997 53.6569L69.4604 53.9595C69.5337 53.611 69.5979 53.2625 69.6346 52.9323C69.6713 52.6021 69.6988 52.281 69.7172 51.96ZM62.3061 227.542L62.3611 227.542L61.7741 227.698L62.3061 227.542ZM217.141 236.604C216.994 236.301 216.847 236.008 216.691 235.687L216.801 235.687C216.911 236.044 217.021 236.319 217.141 236.604Z" fill="black"/>
</g>
<path d="M280.291 198.65C286.096 195.091 291.159 190.065 293.645 184.433C288.182 185.287 282.907 187.077 278.053 189.725C273.123 192.394 268.544 195.666 264.423 199.466C262.212 201.484 260.066 203.713 259.066 206.235C265.478 204.859 274.512 202.208 280.291 198.65Z" fill="#6BAC4F"/>
<path d="M260.13 194.32C263.9 192.009 267.184 188.753 268.798 185.093C265.264 185.653 261.851 186.813 258.709 188.524C255.508 190.259 252.535 192.385 249.857 194.852C248.389 196.043 247.202 197.543 246.381 199.246C250.509 198.375 256.361 196.604 260.13 194.32Z" fill="#6BAC4F"/>
<path d="M254.058 180.911C254.198 178.313 253.559 175.732 252.224 173.5C251.34 175.473 250.797 177.582 250.619 179.737C250.439 181.923 250.532 184.122 250.894 186.286C251.01 187.419 251.377 188.512 251.967 189.487C253.098 186.752 253.804 183.859 254.058 180.911Z" fill="#6BAC4F"/>
<path d="M264.606 179.645C267.11 175.976 268.78 171.684 268.761 167.721C265.746 169.677 263.087 172.134 260.901 174.986C258.684 177.876 256.836 181.031 255.397 184.378C254.547 186.066 254.074 187.919 254.012 189.808C257.47 187.267 262.102 183.296 264.606 179.645Z" fill="#6BAC4F"/>
<path d="M226.459 192.348C230.578 190.725 234.384 188.083 236.604 184.754C233.012 184.685 229.434 185.235 226.028 186.377C222.57 187.537 219.27 189.123 216.205 191.101C214.551 192.016 213.123 193.288 212.022 194.825C216.287 194.66 222.35 193.963 226.459 192.348Z" fill="#6BAC4F"/>
<path d="M235.072 97.8756C233.32 93.8123 230.559 90.0976 227.166 87.988C227.209 91.5817 227.873 95.141 229.129 98.5085C230.389 101.924 232.071 105.169 234.137 108.167C235.109 109.789 236.427 111.176 237.998 112.23C237.677 107.974 236.787 101.939 235.072 97.8756Z" fill="#6BAC4F"/>
<path d="M230.972 108.928C228.651 106.888 225.779 105.58 222.717 105.167C223.919 107.453 225.505 109.517 227.404 111.267C229.328 113.053 231.466 114.594 233.77 115.853C234.922 116.573 236.218 117.034 237.567 117.201C235.801 114.125 233.577 111.335 230.972 108.928Z" fill="#6BAC4F"/>
<path d="M243.492 106.718C243.886 104.536 243.461 102.286 242.3 100.398C241.182 101.827 240.39 103.483 239.979 105.25C239.574 107.014 239.457 108.832 239.631 110.634C239.657 111.608 239.942 112.558 240.456 113.386C241.889 111.38 242.92 109.115 243.492 106.718Z" fill="#6BAC4F"/>
<path d="M276.805 227.863C279.263 231.348 282.721 234.008 286.601 234.705C286.063 231.1 284.816 227.636 282.932 224.515C281.128 221.535 278.858 218.862 276.209 216.599C274.932 215.325 273.314 214.446 271.55 214.068C272.503 218.425 274.356 224.377 276.805 227.863Z" fill="#6BAC4F"/>
<path d="M284.4 206.171C286.229 204.009 287.141 201.218 286.94 198.393C284.686 199.463 282.664 200.965 280.988 202.814C279.388 204.585 278.087 206.605 277.135 208.794C276.55 209.884 276.292 211.12 276.392 212.353C279.098 210.876 282.602 208.473 284.4 206.171Z" fill="#6BAC4F"/>
<path d="M243.62 195.329C245.45 193.168 246.362 190.376 246.161 187.551C243.901 188.633 241.878 190.151 240.208 192.018C238.609 193.792 237.306 195.811 236.347 197.998C235.769 199.091 235.515 200.325 235.613 201.557C238.291 200.035 241.823 197.631 243.62 195.329Z" fill="#6BAC4F"/>
<path d="M204.355 173.518C208.326 171.684 211.692 168.629 213.05 164.823C209.295 164.697 205.554 165.321 202.043 166.657C198.718 167.962 195.625 169.792 192.88 172.078C191.356 173.142 190.172 174.623 189.468 176.343C194.018 176.178 200.383 175.38 204.355 173.518Z" fill="#6BAC4F"/>
<path d="M252.105 131.161C254.218 130.269 255.899 128.587 256.792 126.474C254.77 126.42 252.756 126.763 250.866 127.483C249.064 128.18 247.386 129.161 245.895 130.391C245.076 130.967 244.439 131.766 244.061 132.693C246.811 132.658 249.534 132.14 252.105 131.161Z" fill="#6BAC4F"/>
<path d="M284.822 92.7851C286.444 91.1617 287.371 88.9712 287.408 86.6765C285.513 87.3802 283.777 88.4526 282.299 89.8317C280.886 91.1604 279.696 92.7091 278.777 94.4177C278.231 95.2589 277.938 96.2396 277.933 97.2427C280.475 96.1759 282.807 94.6666 284.822 92.7851Z" fill="#6BAC4F"/>
<path d="M308.935 137.169C310.556 135.546 311.481 133.354 311.512 131.06C309.618 131.769 307.882 132.845 306.404 134.225C304.99 135.554 303.801 137.103 302.881 138.811C302.342 139.632 302.046 140.589 302.028 141.572C304.568 140.515 306.905 139.025 308.935 137.169Z" fill="#6BAC4F"/>
<path d="M131.913 207.381C133.54 205.761 134.469 203.569 134.5 201.273C132.606 201.982 130.87 203.057 129.391 204.437C127.975 205.764 126.786 207.313 125.869 209.023C125.325 209.862 125.035 210.84 125.034 211.839C127.572 210.77 129.901 209.261 131.913 207.381Z" fill="#6BAC4F"/>
<path d="M212.674 94.6562C215.862 94.8466 218.999 93.7834 221.415 91.6936C218.927 90.3762 216.202 89.5656 213.398 89.3088C210.72 89.0639 208.019 89.2528 205.4 89.8683C204.037 90.0886 202.764 90.6931 201.731 91.611C204.804 93.0235 209.39 94.592 212.674 94.6562Z" fill="#6BAC4F"/>
<path d="M245.106 183.855C246.935 181.689 247.847 178.895 247.647 176.068C245.386 177.136 243.36 178.641 241.685 180.498C240.087 182.286 238.783 184.317 237.824 186.515C237.241 187.606 236.987 188.842 237.09 190.074C239.768 188.551 243.327 186.157 245.106 183.855Z" fill="#6BAC4F"/>
<path d="M235.164 225.505C235.411 224.337 235.42 223.131 235.188 221.96C234.956 220.789 234.489 219.676 233.816 218.691C232.521 220.369 231.585 222.295 231.064 224.35C230.571 226.302 230.416 228.325 230.605 230.33C230.61 231.381 230.93 232.406 231.523 233.274C232.999 231.119 234.742 227.927 235.164 225.505Z" fill="#6BAC4F"/>
<path d="M203.658 216.398C204.167 215.315 204.45 214.141 204.49 212.945C204.529 211.75 204.324 210.559 203.887 209.445C202.23 210.769 200.868 212.425 199.888 214.306C198.953 216.092 198.332 218.025 198.053 220.021C197.822 221.049 197.905 222.123 198.292 223.103C200.218 221.369 202.685 218.663 203.658 216.398Z" fill="#6BAC4F"/>
<path d="M282.896 212.197C291.325 209.61 300.075 206.831 306.376 200.796C310.458 196.889 313.228 191.862 315.933 186.919C303.305 193.158 292.014 201.801 282.694 212.362" fill="#6BAC4F"/>
<path d="M274.283 113.138C282.363 109.625 290.793 105.892 296.342 99.1964C299.965 94.858 300.332 88.9786 302.478 83.7689C282.428 93.1611 282.116 101.856 274.099 113.321" fill="#6BAC4F"/>
<path d="M205.721 71.4507C208.877 63.1958 212.078 54.6199 211.225 45.9339C210.656 40.3114 206.712 35.9363 204.483 30.7632C197.145 51.6573 203.162 57.9677 205.749 71.7167" fill="#6BAC4F"/>
<path d="M216.04 77.2751C224.808 78.1923 233.944 79.0636 242.107 75.9726C247.39 73.9731 250.6 69.0293 255.021 65.5439C232.944 63.8746 228.422 71.304 215.783 77.3484" fill="#6BAC4F"/>
<path d="M202.373 131.225C207.394 130.698 212.431 132.055 216.508 135.032C213.076 137.348 209.178 138.882 205.088 139.526C201.016 140.164 196.867 140.127 192.807 139.416C190.583 139.187 188.461 138.367 186.662 137.041C190.991 134.537 197.411 131.638 202.373 131.225Z" fill="#6BAC4F"/>
<path d="M262.497 153.495C267.147 151.485 272.38 151.282 277.172 152.927C274.584 156.16 271.319 158.787 267.606 160.622C263.904 162.433 259.933 163.629 255.847 164.162C253.655 164.605 251.385 164.457 249.271 163.731C252.618 160.035 257.883 155.33 262.497 153.495Z" fill="#6BAC4F"/>
<path d="M245.418 153.715C246.671 151.436 248.723 149.701 251.178 148.845C251.159 150.981 250.667 153.086 249.738 155.009C248.806 156.919 247.567 158.664 246.069 160.173C245.326 161.055 244.355 161.718 243.263 162.09C243.483 159.512 244.143 155.944 245.418 153.715Z" fill="#6BAC4F"/>
<path d="M201.383 124.08C204.303 122.466 207.718 121.992 210.968 122.75C209.479 125.051 207.5 126.993 205.171 128.437C202.856 129.874 200.322 130.921 197.668 131.537C196.254 131.973 194.75 132.02 193.311 131.675C195.302 129.033 198.466 125.612 201.383 124.08Z" fill="#6BAC4F"/>
<path d="M169.427 131.996C170.439 128.143 172.845 124.803 176.178 122.622C176.938 125.801 176.985 129.109 176.316 132.308C175.649 135.491 174.466 138.543 172.812 141.342C172.025 142.92 170.832 144.26 169.354 145.222C168.703 141.324 168.354 135.784 169.427 131.996Z" fill="#6BAC4F"/>
<path d="M147.937 117.944C145.456 114.832 144.22 110.91 144.47 106.938C147.469 108.236 150.146 110.178 152.312 112.624C154.469 115.073 156.205 117.862 157.448 120.879C158.241 122.453 158.599 124.211 158.485 125.97C154.963 124.145 150.312 121.072 147.937 117.944Z" fill="#6BAC4F"/>
<path d="M315.851 110.882C319.217 106.149 321.134 100.27 320.437 94.4911C316.068 96.5748 312.208 99.5896 309.128 103.324C306.074 107.033 303.65 111.22 301.955 115.715C301.038 118.119 300.258 120.705 300.698 123.255C305.761 120.375 312.485 115.624 315.851 110.882Z" fill="#6BAC4F"/>
<path d="M282.281 132.886C291.086 133.243 300.258 133.537 308.211 129.941C313.356 127.612 317.639 123.796 321.831 120.035C307.847 121.72 294.325 126.116 282.024 132.977" fill="#6BAC4F"/>
<path d="M2.38477 134.096C2.38477 136.545 10.3003 141.966 12.3732 143.342C19.4908 148.056 21.105 149.157 29.1765 152.064C37.248 154.972 47.1539 153.073 55.1611 150.019L55.4821 149.808C36.9545 149.175 20.7565 136.784 2.38477 134.096Z" fill="#6BAC4F"/>
<path d="M48.603 105.351C44.4939 100.068 36.0831 93.1702 31.176 88.6392C30.6807 95.6559 35.918 105.094 39.5318 110.918C43.1456 116.743 49.4652 120.787 55.7756 123.172C54.4915 116.467 52.7213 110.634 48.603 105.351Z" fill="#6BAC4F"/>
<path d="M58.9676 106.782C60.802 99.2331 60.5819 91.6661 60.3618 84.2275C55.9316 86.5205 52.593 91.2441 51.1896 96.1512C49.9298 100.869 50.0411 105.849 51.5107 110.506C52.8406 114.945 54.6108 119.357 54.6108 119.357C56.3767 115.28 57.833 111.077 58.9676 106.782Z" fill="#6BAC4F"/>
<path d="M63.4252 109.533C64.0122 106.782 64.0306 103.966 65.2596 101.278C63.9935 102.42 62.8416 103.683 61.8201 105.048C60.7353 106.524 59.9728 108.212 59.5821 110.001C59.4035 111.248 59.4035 112.515 59.5821 113.762C59.7472 115.541 59.5821 117.605 59.7288 119.384C61.3261 116.249 62.566 112.945 63.4252 109.533Z" fill="#6BAC4F"/>
<path d="M274.705 71.3774C276.365 65.8007 276.282 59.6187 273.723 54.3906C270.269 57.7635 267.59 61.8479 265.872 66.3602C264.176 70.8528 263.231 75.594 263.075 80.3936C262.974 82.9709 263.075 85.6675 264.313 87.9514C268.211 83.613 273.045 76.9449 274.705 71.3774Z" fill="#6BAC4F"/>
<path d="M106.901 221.892C103.044 220.413 98.7863 220.361 94.8946 221.745C91.0428 223.133 87.8302 225.879 85.8601 229.468C89.8654 230.196 93.9649 230.243 97.9856 229.605C101.966 228.835 105.837 226.854 108.13 223.561L106.901 221.892Z" fill="#6BAC4F"/>
<path d="M99.7833 184.378C99.6471 184.328 99.4976 184.328 99.3614 184.378C97.8469 184.951 96.5594 186 95.6925 187.368C94.8318 188.733 94.46 190.35 94.6378 191.954L94.9863 192.385C97.1727 190.388 98.8652 187.911 99.9301 185.148C100.003 184.882 100.058 184.497 99.7833 184.378Z" fill="#6BAC4F"/>
<path d="M55.2987 180.094C50.0522 175.875 40.2381 171.051 34.4321 167.74C35.597 174.674 42.9163 182.681 47.8051 187.551C52.6938 192.422 59.793 194.889 66.4978 195.806C63.682 189.624 60.5818 184.35 55.2987 180.094Z" fill="#6BAC4F"/>
<path d="M71.1664 182.608C70.4602 174.885 67.8186 167.767 65.2045 160.769C61.7283 164.318 60.0957 169.822 60.3525 174.894C60.6832 179.777 62.3945 184.466 65.2871 188.414C67.9837 192.229 71.093 195.861 71.093 195.861C71.4429 191.451 71.4674 187.021 71.1664 182.608Z" fill="#6BAC4F"/>
<path d="M45.5854 203.694C37.8717 195.77 29.7727 187.597 19.8485 184.68C13.428 182.8 6.64978 183.277 1.36077e-06 183.763C13.6152 193.756 29.2788 200.601 45.8606 203.804" fill="#6BAC4F"/>
<path d="M45.2092 202.639C43.7967 193.862 42.2466 184.772 37.6789 180.186C34.7163 177.205 30.6714 176.334 26.6724 175.499C30.8182 187.533 37.1836 196.861 45.3101 202.805" fill="#6BAC4F"/>
<path d="M28.8737 202.401C23.132 202.74 17.3811 204.823 13.2811 208.822C17.5994 210.805 22.2875 211.855 27.0393 211.903C31.795 211.949 36.528 211.243 41.0635 209.812C43.5032 209.069 45.9889 208.097 47.7132 206.253C42.4576 204.199 34.6155 202.108 28.8737 202.401Z" fill="#6BAC4F"/>
<path d="M191.238 28.8463C198.576 25.8195 204.813 21.0408 210.913 16.3264C206.437 13.9325 200.567 13.96 195.669 15.7394C190.956 17.5643 186.854 20.6834 183.837 24.7372C180.883 28.5803 178.214 32.772 178.214 32.772C182.649 31.7964 187.003 30.484 191.238 28.8463Z" fill="#6BAC4F"/>
<path d="M90.0242 69.9373C80.1183 62.352 69.7355 54.5557 57.4081 52.0976C49.4192 50.5016 41.1551 51.2721 33.047 52.0976C50.8621 61.632 70.3178 67.7158 90.391 70.0291" fill="#6BAC4F"/>
<path d="M94.0141 89.0888C88.0705 89.1438 82.0353 91.0057 77.6418 94.9131C81.9984 97.1763 86.7834 98.4953 91.6844 98.7837C96.5885 99.0689 101.507 98.5798 106.259 97.3345C108.809 96.6924 111.423 95.8119 113.294 93.9958C107.882 91.6203 99.9484 89.0337 94.0141 89.0888Z" fill="#6BAC4F"/>
<path d="M70.6894 120.558C70.5243 116.477 69.4237 112.303 67.2958 109.387C66.2043 112.513 65.6311 115.797 65.5989 119.109C65.5617 122.476 65.925 125.835 66.6812 129.116C66.9626 130.831 67.6068 132.466 68.5707 133.913C69.6805 130.143 70.8912 124.64 70.6894 120.558Z" fill="#6BAC4F"/>
<path d="M127.135 50.3824C128.119 47.3083 127.916 43.9772 126.566 41.0452C124.67 42.9136 123.205 45.1737 122.273 47.6675C121.353 50.1421 120.844 52.7511 120.769 55.3904C120.623 56.8099 120.864 58.2425 121.466 59.5362C123.594 57.1239 126.236 53.4459 127.135 50.3824Z" fill="#6BAC4F"/>
<path d="M121.338 44.4297C121.236 42.0856 120.272 39.8615 118.632 38.1835C117.8 39.8999 117.358 41.7794 117.339 43.6868C117.335 45.6015 117.645 47.5039 118.256 49.3185C118.515 50.3266 119.037 51.2478 119.769 51.9876C120.776 49.5935 121.309 47.0268 121.338 44.4297Z" fill="#6BAC4F"/>
<path d="M182.855 40.9168C184.429 39.18 185.304 36.9225 185.313 34.5789C183.492 35.2643 181.838 36.3306 180.461 37.7066C179.101 39.0724 177.971 40.6489 177.114 42.3752C176.588 43.2675 176.309 44.2837 176.306 45.3194C178.748 44.279 180.97 42.7851 182.855 40.9168Z" fill="#6BAC4F"/>
<path d="M98.6553 22.7468C94.5779 18.3875 89.0707 15.6372 83.1361 14.9964C84.4067 19.6606 86.6827 23.9902 89.8042 27.6814C92.9482 31.3873 96.6638 34.5673 100.811 37.1012C103.03 38.4954 105.47 39.7611 108.148 39.8528C106.213 34.3771 102.746 26.9201 98.6553 22.7468Z" fill="#6BAC4F"/>
<path d="M115.523 31.3686C115.829 27.7082 114.767 24.0643 112.542 21.1417C110.907 23.6722 109.849 26.531 109.442 29.5159C109.039 32.4851 109.129 35.5003 109.708 38.4403C109.916 40.0536 110.549 41.5825 111.542 42.8705C113.285 39.6877 115.293 34.9824 115.523 31.3686Z" fill="#6BAC4F"/>
<path d="M98.7011 42.0541C96.6006 41.5418 94.7431 40.3164 93.4454 38.5871C95.2002 38.2247 97.0105 38.2247 98.7653 38.5871C100.521 38.9412 102.212 39.5598 103.782 40.4215C104.651 40.8127 105.403 41.4226 105.965 42.1917C103.555 42.5821 101.095 42.5355 98.7011 42.0541Z" fill="#6BAC4F"/>
<path d="M103.443 99.6642C99.922 101.375 97.1442 104.31 95.6284 107.919C98.8782 107.97 102.102 107.329 105.085 106.039C108.048 104.755 110.788 103.009 113.202 100.866C114.575 99.8149 115.644 98.4193 116.302 96.8209C112.377 97.041 106.91 97.8756 103.443 99.6642Z" fill="#6BAC4F"/>
<path d="M44.824 122.512C40.9071 121.94 36.9147 122.789 33.5698 124.906C36.2197 126.774 39.237 128.056 42.4209 128.666C45.6104 129.274 48.8754 129.38 52.0975 128.978C53.8474 128.883 55.5436 128.34 57.0229 127.401C53.6843 125.374 48.7222 122.989 44.824 122.512Z" fill="#6BAC4F"/>
<path d="M48.9791 137.811C45.9063 135.33 42.0484 134.029 38.101 134.142C39.3541 137.085 41.2318 139.72 43.6042 141.865C46.0141 144.024 48.7547 145.783 51.7215 147.075C53.2745 147.892 55.0123 148.293 56.7662 148.24C55.0052 144.773 52.0517 140.205 48.9791 137.811Z" fill="#6BAC4F"/>
<path d="M55.2987 160.429C54.1935 162.986 54.0759 165.862 54.9685 168.501C56.766 167.059 58.225 165.24 59.2427 163.172C60.2512 161.126 60.9203 158.93 61.2239 156.669C61.4764 155.447 61.394 154.179 60.9854 153C58.8941 154.935 56.2984 157.87 55.2987 160.429Z" fill="#6BAC4F"/>
<path d="M43.9161 154.99C39.0273 156.77 34.4596 159.668 31.7172 163.319C35.9398 163.395 40.1475 162.797 44.1821 161.548C48.2703 160.291 52.1981 158.561 55.8857 156.394C57.8395 155.397 59.5639 154.004 60.9487 152.303C55.9407 152.45 48.8048 153.211 43.9161 154.99Z" fill="#6BAC4F"/>
<path d="M51.0704 216.499C46.4018 220.085 42.5495 224.863 40.9811 229.926C45.6375 228.707 50.0474 226.69 54.0147 223.965C58.0106 221.233 61.6416 218.003 64.8194 214.352C66.5254 212.426 68.1489 210.316 68.7359 208.06C63.2968 209.803 55.739 212.921 51.0704 216.499Z" fill="#6BAC4F"/>
<path d="M64.2139 220.819C62.6599 223.949 62.3328 227.548 63.2967 230.908C65.622 229.199 67.5521 227.009 68.9559 224.487C70.3364 221.985 71.2998 219.274 71.8084 216.462C72.1928 214.969 72.1674 213.401 71.735 211.922C69.0568 214.16 65.6723 217.7 64.2139 220.819Z" fill="#6BAC4F"/>
<path d="M151.239 35.4594C148.652 30.132 144.22 25.9244 138.765 23.6182C138.575 28.4243 139.448 33.2131 141.324 37.6423C143.198 42.098 145.781 46.2208 148.974 49.8504C150.689 51.8132 152.642 53.721 155.128 54.5832C154.954 48.7498 153.881 40.6783 151.239 35.4594Z" fill="#6BAC4F"/>
<path d="M146.341 54.3814C143.175 52.0234 139.274 50.8692 135.334 51.1253C136.722 54.0184 138.722 56.5752 141.195 58.6189C143.688 60.671 146.489 62.3149 149.496 63.4893C151.082 64.2306 152.833 64.5467 154.578 64.4065C152.661 61.0862 149.515 56.6469 146.341 54.3814Z" fill="#6BAC4F"/>
<path d="M160.191 161.255C162.696 157.091 165.54 153.14 168.693 149.441C171.949 145.772 175.114 142.104 179.315 139.444C183.039 137.123 189.285 137.105 193.504 136.389L207.757 134.555L193.614 137.096C189.652 138.013 183.387 138.315 180.039 140.645C178.125 141.981 176.389 143.556 174.875 145.332C170.094 150.567 165.975 156.371 162.612 162.612L160.218 161.255L160.191 161.255Z" fill="#263238"/>
<path d="M160.273 130.152C157.155 125.089 153.874 120.115 150.432 115.229C154.578 119.51 158.601 123.943 162.502 128.529L160.273 130.152Z" fill="#263238"/>
<path d="M124.209 95.3533L90.2169 93.1886L124.282 92.6016L124.209 95.3533Z" fill="#263238"/>
<path d="M71.2214 198.081C69.066 192.046 65.7182 183.681 64.113 177.563C66.1951 183.479 70.2767 191.587 72.9091 197.375L71.2214 198.081Z" fill="#263238"/>
<path d="M243.153 122.035C253.242 121.301 264.019 120.485 272.293 114.138C275.796 111.386 280.217 106.525 283.455 103.37L294.462 92.3082L283.959 103.847C280.749 107.25 276.686 112.184 273.155 115.202C268.993 118.556 264.137 120.941 258.938 122.182C253.828 123.42 248.635 124.287 243.4 124.777L243.153 122.026L243.153 122.035Z" fill="#263238"/>
<path d="M208.253 80.8522C207.262 78.5316 207.721 75.835 208.638 73.4686C210.606 68.7551 213.942 64.7394 218.214 61.9393C222.503 59.1408 227.259 57.134 232.256 56.0141C224.802 64.3607 217.021 72.42 208.913 80.1918" fill="#6BAC4F"/>
<path d="M193.889 98.5635L203.722 70.5519C203.722 70.5519 206.07 73.9272 205.63 74.2941L196.925 100.893L193.889 98.5635Z" fill="#263238"/>
<path d="M120.98 91.4551C108.499 82.1721 95.4453 73.6833 81.8978 66.0392C95.9239 72.8977 109.504 80.6329 122.558 89.1988L120.989 91.4551L120.98 91.4551Z" fill="#263238"/>
<path d="M59.6463 127.923C52.0885 120.806 43.9437 113.111 40.8527 102.874C44.5215 112.89 52.914 119.88 60.8662 126.548L59.6463 127.923Z" fill="#263238"/>
<path d="M75.8992 145.103C60.1507 152.22 39.4676 156.577 24.8197 144.874C35.7253 152.872 50.5016 152.065 62.673 147.79C66.8015 146.319 70.8331 144.588 74.7435 142.608L75.8992 145.103Z" fill="#263238"/>
<path d="M95.5459 209.922C70.3501 210.922 44.5123 208.033 24.0034 192.046C39.2383 203.052 58.2338 207.574 76.7981 207.739C83.0076 207.831 89.2263 207.547 95.445 207.18L95.5642 209.931L95.5459 209.922Z" fill="#263238"/>
<path d="M44.1362 203.337C40.8003 199.066 38.6094 194.015 37.7708 188.661C38.8888 193.883 41.3231 198.733 44.8425 202.75L44.1362 203.327L44.1362 203.337Z" fill="#263238"/>
<path d="M66.4153 195.366C60.8335 190.828 54.8986 186.743 48.6672 183.149C55.2235 186.224 61.5234 189.819 67.5068 193.898L66.4153 195.366Z" fill="#263238"/>
<path d="M122.255 221.818C111.639 221.762 101.13 223.95 91.4185 228.239C100.902 223.055 111.372 219.93 122.145 219.067L122.255 221.818Z" fill="#263238"/>
<path d="M159.375 69.6897C156.35 58.3286 151.473 47.5441 144.938 37.7708C152.299 47.1326 158.066 57.6442 162.007 68.8826L159.375 69.6897Z" fill="#263238"/>
<path d="M160.127 74.0556C161.649 68.6716 163.475 63.4343 165.364 58.2062C170.757 43.0997 178.269 25.0307 195.43 20.7656C178.489 25.5076 171.702 43.5216 166.703 58.674C164.951 63.9204 163.264 69.2035 161.897 74.5234L160.127 74.0556Z" fill="#263238"/>
<path d="M119.769 90.758C119.769 85.2548 120.081 77.4768 119.934 72.0744C119.934 59.527 113.826 48.0894 105.965 38.6054C102.031 33.7809 97.6646 29.2957 93.317 24.8472C97.8297 29.1581 102.352 33.4782 106.488 38.1835C114.853 47.5115 121.503 59.1968 121.998 71.9919C122.347 77.4952 122.356 85.2181 122.521 90.7764L119.769 90.758Z" fill="#263238"/>
<path d="M237.457 128.373C241.566 116.284 233.889 103.865 229.156 93.0419C233.504 101.233 239.346 109.909 240.621 119.283C241.114 122.591 240.93 125.964 240.08 129.198L237.457 128.373Z" fill="#263238"/>
<path d="M237.824 170.317C241.936 164.511 245.465 158.315 248.362 151.817C245.737 158.461 242.462 164.83 238.585 170.831L237.824 170.317Z" fill="#263238"/>
<path d="M222.424 127.437C223.019 124.904 224.532 122.682 226.67 121.2C227.221 123.262 227.312 125.419 226.936 127.52C226.55 129.609 225.828 131.622 224.799 133.482C224.311 134.526 223.551 135.419 222.598 136.068C222.112 133.537 221.791 129.923 222.424 127.437Z" fill="#6BAC4F"/>
<path d="M219.544 145.461C221.953 138.766 223.698 131.85 224.754 124.814C223.99 131.92 222.531 138.933 220.397 145.754L219.525 145.461L219.544 145.461Z" fill="#263238"/>
<path d="M280.841 130.648C293.333 145.855 316.988 149.441 333.746 138.902C317.034 150.45 292.471 147.644 278.777 132.418L280.841 130.583L280.841 130.648Z" fill="#263238"/>
<path d="M281.391 213.508L298.039 201.273L281.951 214.233L281.391 213.508Z" fill="#263238"/>
<path d="M199.769 223.735C208.024 220.727 216.645 217.507 222.635 211.17C226.515 207.051 229.055 201.896 231.477 196.824C219.182 203.694 208.343 212.894 199.567 223.91" fill="#6BAC4F"/>
<path d="M198.329 225.13L214.325 212.068L198.925 225.827L198.329 225.13Z" fill="#263238"/>
<path d="M203.135 74.0556C206.068 64.2706 206.844 53.9658 205.409 43.8518C207.461 53.9919 207.289 64.4562 204.905 74.5233L203.135 74.0556Z" fill="#263238"/>
<path d="M71.3406 69.332C64.5258 69.387 57.5825 71.0747 52.5653 74.6243C57.6904 76.7194 63.1397 77.911 68.6715 78.1464C74.2719 78.4055 79.8827 77.9649 85.374 76.8347C88.309 76.2477 91.2992 75.4498 93.4546 73.7988C87.2451 71.6342 78.1463 69.2861 71.3406 69.332Z" fill="#6BAC4F"/>
<path d="M97.8665 56.1608C96.3531 52.015 93.4639 48.1719 93.5098 43.7693C91.7813 45.9405 90.3756 48.3502 89.3365 50.9235C88.298 53.5169 88.262 56.404 89.2356 59.0225C90.1972 60.9696 91.5129 62.7207 93.1154 64.1864C95.3717 66.5253 97.1144 69.4695 99.3708 71.8084C99.5359 66.5345 99.6918 61.1229 97.8665 56.1608Z" fill="#6BAC4F"/>
<path d="M79.6231 185.735C79.2838 182.919 78.4032 180.232 78.7059 177.324C77.8729 178.8 77.1878 180.355 76.6605 181.966C76.1046 183.706 75.9264 185.544 76.1377 187.359C76.3636 188.598 76.7619 189.798 77.3209 190.927C78.0547 192.559 78.55 194.596 79.2838 196.219C79.7926 192.748 79.9065 189.231 79.6231 185.735Z" fill="#6BAC4F"/>
<path d="M97.1419 178.471C97.417 175.536 96.775 172.408 98.0591 169.748C96.3866 170.589 94.8424 171.664 93.473 172.94C92.0992 174.216 91.2436 175.953 91.0699 177.82C91.0901 179.261 91.3793 180.686 91.9229 182.021C92.6109 184.066 92.8402 186.331 93.5097 188.377C95.1424 185.231 96.8025 181.984 97.1419 178.471Z" fill="#6BAC4F"/>
<path d="M85.1079 54.6474C82.3104 47.3097 77.6051 40.981 72.964 34.7806C70.2124 39.0182 69.8822 44.7507 71.5057 49.6211C73.2285 54.3973 76.2999 58.5712 80.3476 61.6366C84.2366 64.7184 88.52 67.5434 88.52 67.5434C87.7332 63.1596 86.5921 58.8468 85.1079 54.6474Z" fill="#6BAC4F"/>
<path d="M260.754 105.296C267.615 99.7926 274.705 93.9316 278.309 86.0344C280.648 80.8888 281.354 75.193 282.024 69.598C272.623 80.0854 265.354 92.304 260.625 105.571" fill="#6BAC4F"/>
<path d="M185.607 51.2262C190.083 50.6575 194.55 48.7314 198.934 49.722C197.12 47.5974 195.01 45.7441 192.669 44.2187C190.279 42.6743 187.421 42.0245 184.598 42.3843C182.462 42.8834 180.433 43.7626 178.608 44.98C175.783 46.631 172.472 47.6674 169.647 49.3184C174.875 50.5933 180.259 51.8958 185.607 51.2262Z" fill="#6BAC4F"/>
<path d="M200.319 87.1901C209.766 79.7973 221.323 74.3491 233.439 73.8997C221.415 74.6059 210.078 80.3201 200.915 87.8963L200.319 87.1901Z" fill="#263238"/>
<path d="M94.2708 194.559C92.7589 188.466 93.1854 182.053 95.4907 176.215C93.5011 182.065 93.3825 188.39 95.1514 194.311L94.2341 194.55L94.2708 194.559Z" fill="#263238"/>
<path d="M271.32 212.747L281.676 227.028L270.586 213.297L271.32 212.747Z" fill="#263238"/>
<path d="M216.627 237.787C220.754 238.869 225.111 238.704 228.551 236.705C225.815 234.296 222.633 232.448 219.186 231.266C215.888 230.15 212.432 229.57 208.95 229.55C207.15 229.4 205.345 229.77 203.749 230.614C207.262 233.348 212.509 236.705 216.627 237.787Z" fill="#6BAC4F"/>
<path d="M202.685 229.761L219.819 234.017L202.493 230.66L202.685 229.761Z" fill="#263238"/>
<path d="M97.3253 74.9086C88.4633 72.9682 79.4127 72.0207 70.3409 72.0836C79.4403 71.7159 88.5523 72.3619 97.5088 74.0098L97.3253 74.927L97.3253 74.9086Z" fill="#263238"/>
<path d="M100.077 76.2844C97.2646 70.0424 94.9073 63.6051 93.0236 57.023C95.1911 63.4953 97.8274 69.801 100.912 75.89L100.077 76.2844Z" fill="#263238"/>
<path d="M114.119 62.9757C113.682 57.1012 111.092 51.5948 106.846 47.5115C104.887 51.9093 103.925 56.6859 104.03 61.499C104.137 66.289 105.026 71.0293 106.662 75.5323C107.58 77.9721 108.644 80.4394 110.643 82.1179C112.67 76.6789 114.661 68.745 114.119 62.9757Z" fill="#6BAC4F"/>
<path d="M109.341 82.4389C108.763 75.6329 108.68 68.794 109.093 61.976C108.982 68.7824 109.368 75.5879 110.249 82.338L109.332 82.4389L109.341 82.4389Z" fill="#263238"/>
<path d="M151.743 98.6736C155.265 94.005 157.375 88.1715 156.816 82.3931C152.366 84.4086 148.4 87.3548 145.185 91.0332C142.018 94.6791 139.462 98.8143 137.618 103.278C136.609 105.663 135.784 108.231 136.123 110.781C141.342 107.983 148.23 103.342 151.743 98.6736Z" fill="#6BAC4F"/>
<path d="M134.94 110.12C139.154 104.652 143.752 99.4901 148.698 94.6746C143.997 99.688 139.66 105.031 135.72 110.662L134.977 110.12L134.94 110.12Z" fill="#263238"/>
<path d="M247.519 93.5097C246.966 87.6611 248.6 81.8152 252.105 77.1008C254.763 81.1247 256.504 85.6839 257.204 90.4554C257.891 95.2057 257.792 100.037 256.911 104.755C256.461 107.295 255.774 109.9 254.077 111.881C251.233 106.8 247.913 99.2881 247.519 93.5097Z" fill="#6BAC4F"/>
<path d="M254.563 112.001C254.304 105.198 253.553 98.424 252.316 91.7303C253.86 98.3706 254.917 105.115 255.48 111.909L254.563 111.964L254.563 112.001Z" fill="#263238"/>
<path d="M319.822 127.144C323.276 122.381 328.375 119.07 334.131 117.852C333.475 122.631 331.774 127.206 329.15 131.253C326.52 135.28 323.245 138.847 319.456 141.81C317.438 143.424 315.2 144.928 312.622 145.295C313.851 139.59 316.328 131.776 319.822 127.144Z" fill="#6BAC4F"/>
<path d="M312.916 145.699C317.215 140.416 321.12 134.824 324.601 128.969C321.373 134.991 317.709 140.77 313.64 146.258L312.916 145.699Z" fill="#263238"/>
<path d="M282.189 155.275C283.813 160.567 287.023 165.263 291.545 167.685C292.333 163.01 292.193 158.226 291.132 153.605C290.103 149.194 288.372 144.976 286.005 141.113C284.776 139.077 283.327 137.077 281.263 136.096C280.667 141.874 280.557 149.982 282.189 155.275Z" fill="#6BAC4F"/>
<path d="M282.418 135.463C284.277 141.779 285.705 148.215 286.693 154.724C285.414 148.296 283.691 141.965 281.538 135.775L282.455 135.5L282.418 135.463Z" fill="#263238"/>
<path d="M187.295 120.237C190.739 115.473 195.833 112.16 201.585 110.946C200.927 115.724 199.227 120.299 196.604 124.346C193.988 128.367 190.731 131.933 186.964 134.903C184.947 136.518 182.709 138.022 180.131 138.389C181.324 132.684 183.8 124.869 187.295 120.237Z" fill="#6BAC4F"/>
<path d="M180.388 138.82C184.689 133.541 188.594 127.952 192.073 122.099C188.845 128.121 185.182 133.9 181.113 139.389L180.388 138.82Z" fill="#263238"/>
<path d="M127.823 133.555C131.265 128.793 136.355 125.481 142.103 124.264C141.449 129.041 139.752 133.616 137.132 137.664C134.515 141.688 131.256 145.254 127.483 148.221C125.465 149.836 123.236 151.34 120.65 151.707C121.842 146.002 124.328 138.187 127.823 133.555Z" fill="#6BAC4F"/>
<path d="M118.651 153.972C122.943 148.684 126.849 143.093 130.336 137.242C127.104 143.262 123.441 149.041 119.375 154.532L118.651 153.972Z" fill="#263238"/>
<path d="M106.993 153.22C104.502 150.667 103.048 147.281 102.911 143.718C105.703 144.603 108.265 146.094 110.414 148.084C112.549 150.064 114.343 152.382 115.724 154.945C116.576 156.276 117.051 157.813 117.1 159.393C113.817 158.081 109.414 155.798 106.993 153.22Z" fill="#6BAC4F"/>
<path d="M117.238 159.402C114.571 156.248 111.677 153.293 108.579 150.56C111.887 153.083 115.008 155.842 117.917 158.815L117.238 159.439L117.238 159.402Z" fill="#263238"/>
<path d="M105.819 140.911C104.263 138.51 103.655 135.617 104.113 132.794C106.164 133.923 107.942 135.489 109.322 137.38C110.686 139.276 111.73 141.383 112.413 143.617C112.87 144.799 113 146.082 112.789 147.332C110.414 145.809 107.304 143.314 105.819 140.911Z" fill="#6BAC4F"/>
<path d="M113.908 149.276C112.333 146.365 110.552 143.569 108.579 140.911C110.808 143.391 112.853 146.03 114.697 148.808L113.908 149.276Z" fill="#263238"/>
<path d="M85.4841 197.723C83.583 194.778 82.8412 191.232 83.402 187.771C85.9333 189.161 88.1258 191.094 89.8225 193.431C91.4921 195.755 92.7716 198.335 93.6106 201.071C94.1737 202.53 94.3321 204.115 94.0692 205.657C91.1158 203.731 87.3094 200.658 85.4841 197.723Z" fill="#6BAC4F"/>
<path d="M95.4909 207.923C93.5384 204.364 91.3249 200.955 88.8687 197.723C91.5714 200.78 94.0483 204.029 96.2797 207.446L95.4909 207.923Z" fill="#263238"/>
<path d="M88.4008 166.006C84.9141 166.368 81.4173 165.423 78.5867 163.355C80.9705 161.745 83.6789 160.677 86.5205 160.228C89.35 159.795 92.2311 159.826 95.0506 160.319C96.5961 160.471 98.0708 161.042 99.3157 161.97C96.3072 163.713 91.8495 165.713 88.4008 166.006Z" fill="#6BAC4F"/>
<path d="M102.076 161.75C98.0182 161.882 93.975 162.309 89.9784 163.025C93.9163 162.006 97.9228 161.274 101.966 160.833L102.031 161.75L102.076 161.75Z" fill="#263238"/>
<path d="M114.798 182.91C110.288 182.791 105.982 181 102.719 177.884C106.03 176.228 109.666 175.322 113.367 175.233C117.05 175.141 120.723 175.659 124.236 176.765C126.181 177.224 127.968 178.197 129.409 179.581C125.273 181.305 119.247 183.121 114.798 182.91Z" fill="#6BAC4F"/>
<path d="M132.913 179.581C127.71 179.114 122.481 179.029 117.265 179.324C122.476 178.719 127.725 178.498 132.968 178.664L132.913 179.581Z" fill="#263238"/>
<path d="M109.882 119.935C108.148 117.213 107.494 113.942 108.047 110.762C110.349 112.053 112.338 113.835 113.872 115.981C115.395 118.116 116.557 120.486 117.311 122.998C117.821 124.327 117.963 125.768 117.724 127.171C115.018 125.465 111.533 122.64 109.882 119.935Z" fill="#6BAC4F"/>
<path d="M117.761 127.263C115.992 123.991 113.987 120.851 111.762 117.871C114.239 120.676 116.508 123.659 118.549 126.795L117.761 127.263Z" fill="#263238"/>
<path d="M116.981 107.708C117.319 103.402 119.245 99.3751 122.384 96.4081C123.8 99.656 124.486 103.175 124.392 106.718C124.29 110.244 123.612 113.729 122.384 117.036C121.841 118.868 120.821 120.523 119.43 121.833C117.99 117.797 116.559 111.946 116.981 107.708Z" fill="#6BAC4F"/>
<path d="M119.632 121.971C120.338 117.022 120.688 112.028 120.677 107.029C120.998 112.04 120.952 117.068 120.54 122.072L119.623 121.971L119.632 121.971Z" fill="#263238"/>
<path d="M86.6397 118.916C86.9764 114.615 88.9022 110.594 92.0421 107.635C93.4593 110.882 94.1451 114.402 94.0508 117.944C93.9459 121.468 93.2642 124.95 92.0329 128.254C91.4994 130.09 90.4826 131.75 89.0887 133.06C87.6487 129.006 86.2178 123.154 86.6397 118.916Z" fill="#6BAC4F"/>
<path d="M89.2813 133.179C89.9967 128.228 90.3462 123.231 90.327 118.229C90.6375 123.255 90.5793 128.298 90.1527 133.317L89.2355 133.216L89.2813 133.179Z" fill="#263238"/>
<path d="M139.985 75.7984C141.48 71.7542 144.421 68.4079 148.24 66.4061C148.704 69.9197 148.391 73.4923 147.322 76.8715C146.261 80.2319 144.656 83.3955 142.571 86.2362C141.556 87.8561 140.124 89.1738 138.426 90.0518C138.205 85.7776 138.426 79.7607 139.985 75.7984Z" fill="#6BAC4F"/>
<path d="M205.419 110.212C207.685 107.077 211.036 104.897 214.82 104.094C214.385 107.239 213.268 110.251 211.546 112.918C209.823 115.563 207.679 117.908 205.198 119.861C203.93 121.015 202.375 121.807 200.695 122.154C201.484 118.403 203.116 113.257 205.419 110.212Z" fill="#6BAC4F"/>
<path d="M200.75 122.31C203.612 118.868 206.22 115.223 208.555 111.405C206.476 115.396 204.109 119.23 201.475 122.879L200.75 122.31Z" fill="#263238"/>
<path d="M279.153 114.55C283.017 114.39 286.802 115.672 289.775 118.146C287.038 119.752 283.982 120.738 280.823 121.035C277.678 121.321 274.508 121.088 271.439 120.347C269.75 120.066 268.166 119.338 266.853 118.238C270.284 116.532 275.338 114.624 279.153 114.55Z" fill="#6BAC4F"/>
<path d="M266.753 118.384C271.229 118.502 275.707 118.293 280.153 117.761C275.732 118.596 271.257 119.111 266.762 119.302L266.762 118.384L266.753 118.384Z" fill="#263238"/>
<path d="M316.869 151.477C319.477 154.337 320.929 158.064 320.941 161.934C317.952 160.869 315.234 159.16 312.98 156.926C310.736 154.704 308.877 152.125 307.477 149.294C306.611 147.82 306.152 146.143 306.147 144.433C309.66 145.965 314.356 148.607 316.869 151.477Z" fill="#6BAC4F"/>
<path d="M305.972 144.442C308.756 147.948 311.791 151.246 315.053 154.312C311.574 151.458 308.303 148.359 305.266 145.039L305.972 144.442Z" fill="#263238"/>
<path d="M265.166 137.692C269.66 139.177 273.442 142.279 275.778 146.396C271.953 147.056 268.029 146.865 264.285 145.837C260.556 144.816 257.022 143.183 253.829 141.003C252.015 139.955 250.516 138.437 249.491 136.609C254.159 136.132 260.754 136.132 265.166 137.692Z" fill="#6BAC4F"/>
<path d="M249.28 136.83C254.368 138.864 259.598 140.526 264.927 141.801C259.512 140.82 254.175 139.446 248.959 137.692L249.28 136.83Z" fill="#263238"/>
<path d="M265.955 106.213C267.661 102.735 270.605 100.02 274.209 98.6002C274.311 101.772 273.716 104.928 272.467 107.846C271.213 110.744 269.493 113.418 267.376 115.761C266.32 117.109 264.924 118.15 263.331 118.779C263.451 114.972 264.193 109.598 265.955 106.213Z" fill="#6BAC4F"/>
<path d="M263.386 118.935C265.631 115.059 267.59 111.025 269.247 106.864C267.869 111.149 266.18 115.327 264.194 119.366L263.386 118.935Z" fill="#263238"/>
<path d="M187.937 141.627C192.163 141.496 196.287 142.937 199.512 145.671C196.503 147.404 193.149 148.451 189.689 148.735C186.247 149.011 182.783 148.723 179.434 147.882C177.591 147.553 175.869 146.739 174.444 145.525C178.205 143.69 183.763 141.663 187.937 141.627Z" fill="#6BAC4F"/>
<path d="M174.334 145.717C179.233 145.882 184.138 145.692 189.01 145.149C184.16 145.999 179.256 146.495 174.334 146.635L174.334 145.717Z" fill="#263238"/>
<path d="M184.194 79.3021C182.066 73.8905 181.626 67.7177 183.726 62.297C187.462 65.3909 190.482 69.2588 192.578 73.6337C194.643 77.9723 195.985 82.6198 196.549 87.3919C196.87 89.9509 196.989 92.6383 195.953 95.0139C191.697 90.9782 186.322 84.7045 184.194 79.3021Z" fill="#6BAC4F"/>
<path d="M196.43 95.0139C194.17 88.5721 191.451 82.3007 188.294 76.2477C191.744 82.1718 194.763 88.336 197.329 94.6929L196.467 95.0139L196.43 95.0139Z" fill="#263238"/>
<path d="M224.185 86.3555C229.022 86.2297 233.654 84.3786 237.246 81.1365C233.652 79.418 229.735 78.4802 225.753 78.3849C221.779 78.3124 217.818 78.8602 214.013 80.0084C211.927 80.485 210 81.4929 208.418 82.9343C212.885 84.7045 219.388 86.5848 224.185 86.3555Z" fill="#6BAC4F"/>
<path d="M208.225 81.8061C213.886 81.6175 219.552 81.8197 225.185 82.4114C219.549 82.1251 213.901 82.2293 208.28 82.7233L208.225 81.8061Z" fill="#263238"/>
<path d="M241.722 62.6914C245.55 61.0441 248.661 58.0797 250.49 54.3356C247.057 54.119 243.617 54.6381 240.401 55.8582C237.198 57.0668 234.205 58.7723 231.532 60.912C230.014 61.9576 228.794 63.3799 227.991 65.0394C232.165 64.9936 237.952 64.3882 241.722 62.6914Z" fill="#6BAC4F"/>
<path d="M227.468 64.0855C231.935 62.1381 236.532 60.5046 241.227 59.1968C236.638 60.7935 232.163 62.7027 227.835 64.911L227.441 64.0855L227.468 64.0855Z" fill="#263238"/>
<path d="M224.304 50.3824C226.095 46.6178 226.483 42.3368 225.395 38.3119C222.685 40.4147 220.447 43.0649 218.828 46.0898C217.219 49.1117 216.096 52.3679 215.499 55.7389C215.048 57.5264 215.067 59.3999 215.554 61.178C218.645 58.4355 222.607 54.1613 224.304 50.3824Z" fill="#6BAC4F"/>
<path d="M214.527 60.857C216.606 56.4387 218.993 52.1723 221.672 48.0894C219.264 52.3147 217.155 56.7036 215.361 61.2239L214.527 60.857Z" fill="#263238"/>
<path d="M182.791 102.407C184.585 98.6459 184.972 94.3669 183.883 90.3453C181.172 92.4424 178.937 95.0902 177.324 98.1141C175.709 101.134 174.582 104.391 173.986 107.763C173.535 109.551 173.554 111.424 174.041 113.202C177.104 110.46 181.067 106.186 182.791 102.407Z" fill="#6BAC4F"/>
<path d="M172.986 112.872C175.067 108.455 177.455 104.188 180.131 100.104C177.728 104.331 175.622 108.72 173.83 113.239L172.986 112.872Z" fill="#263238"/>
<path d="M306.954 180.636C308.745 176.874 309.129 172.595 308.036 168.574C305.326 170.671 303.091 173.319 301.478 176.343C299.87 179.366 298.744 182.622 298.14 185.992C297.688 187.78 297.71 189.655 298.204 191.431C301.295 188.689 305.248 184.415 306.954 180.636Z" fill="#6BAC4F"/>
<path d="M297.167 191.101C299.252 186.686 301.639 182.419 304.312 178.333C301.913 182.562 299.807 186.95 298.011 191.468L297.167 191.101Z" fill="#263238"/>
<path d="M74.7343 220.048C70.9737 224.387 68.4514 229.954 68.4697 235.641C72.9058 233.932 76.9315 231.307 80.2834 227.936C83.6209 224.566 86.4066 220.69 88.5383 216.453C89.7123 214.187 90.7488 211.738 90.6295 209.216C85.4656 211.619 78.504 215.71 74.7343 220.048Z" fill="#6BAC4F"/>
<path d="M91.7762 209.95C87.2867 215.001 82.4538 219.736 77.3118 224.12C82.235 219.51 86.8321 214.564 91.0699 209.317L91.7762 209.913L91.7762 209.95Z" fill="#263238"/>
<path d="M122.255 232.109C118.786 234.109 116.147 237.285 114.816 241.061C118.102 240.877 121.312 240.002 124.236 238.493C127.16 236.981 129.828 235.019 132.143 232.678C133.474 231.511 134.482 230.02 135.068 228.349C131.088 228.826 125.63 230.046 122.255 232.109Z" fill="#6BAC4F"/>
<path d="M135.674 229.193C131.613 231.537 127.396 233.6 123.053 235.366C127.254 233.331 131.308 231.008 135.188 228.413L135.674 229.193Z" fill="#263238"/>
<path d="M32.3684 131.134C30.2705 127.716 27.016 125.164 23.1963 123.943C23.482 127.236 24.4637 130.431 26.0763 133.317C27.6674 136.197 29.7008 138.809 32.1024 141.058C33.3138 142.337 34.8327 143.284 36.5142 143.81C35.9272 139.911 34.5514 134.481 32.3684 131.134Z" fill="#6BAC4F"/>
<path d="M35.6887 144.507C33.2305 140.51 31.0515 136.348 29.1674 132.051C31.3191 136.189 33.7556 140.174 36.4592 143.975L35.6887 144.488L35.6887 144.507Z" fill="#263238"/>
<path d="M44.6132 83.5305C42.511 80.1165 39.258 77.5662 35.441 76.3395C35.7121 79.6225 36.6748 82.8108 38.2661 85.6951C39.8571 88.5751 41.8905 91.1873 44.2921 93.4364C45.5035 94.7154 47.0224 95.6628 48.7039 96.188C48.1352 92.3082 46.7686 86.8783 44.6132 83.5305Z" fill="#6BAC4F"/>
<path d="M47.906 96.8942C45.4432 92.9018 43.2611 88.7429 41.3755 84.4476C43.5421 88.5875 45.9939 92.5717 48.7132 96.3714L47.9519 96.8758L47.906 96.8942Z" fill="#263238"/>
<path d="M131.675 31.7814C128.702 29.1031 124.87 27.5744 120.87 27.4705C122.057 30.5433 123.882 33.3289 126.227 35.6429C128.569 37.9548 131.258 39.8859 134.197 41.3663C135.723 42.2655 137.453 42.7581 139.224 42.7971C137.545 39.2017 134.692 34.3863 131.675 31.7814Z" fill="#6BAC4F"/>
<path d="M138.618 43.6684C135.128 40.5375 131.861 37.1662 128.841 33.5791C132.074 36.9493 135.54 40.0878 139.214 42.9713L138.618 43.6684Z" fill="#263238"/>
<path d="M239.401 47.2364C242.508 44.6875 244.595 41.1066 245.281 37.147C242.065 37.8581 239.039 39.2464 236.402 41.2194C233.766 43.2022 231.46 45.5888 229.569 48.2912C228.447 49.6602 227.701 51.2976 227.404 53.0423C231.192 51.9233 236.384 49.8504 239.401 47.2364Z" fill="#6BAC4F"/>
<path d="M226.606 52.3177C230.229 49.336 234.054 46.6084 238.053 44.1545C234.238 46.8499 230.616 49.8074 227.212 53.0056L226.606 52.3177Z" fill="#263238"/>
<path d="M298.837 78.8802C301.941 76.3291 304.027 72.7492 304.716 68.7908C301.503 69.5099 298.478 70.8974 295.837 72.8633C293.198 74.834 290.886 77.2081 288.986 79.8983C287.863 81.2644 287.115 82.8983 286.812 84.6402C290.618 83.5763 295.81 81.4759 298.837 78.8802Z" fill="#6BAC4F"/>
<path d="M286.042 83.9707C289.66 80.9839 293.486 78.2561 297.488 75.8075C293.67 78.5147 290.047 81.4878 286.647 84.7044L286.042 84.0165L286.042 83.9707Z" fill="#263238"/>
<path d="M164.291 47.1997C164.417 43.2111 163.116 39.3085 160.622 36.1931C159.037 39.0821 158.081 42.2734 157.815 45.5578C157.558 48.8368 157.815 52.1357 158.577 55.3353C158.862 57.0839 159.599 58.7278 160.714 60.1048C162.392 56.4635 164.245 51.1803 164.291 47.1997Z" fill="#6BAC4F"/>
<path d="M159.668 60.1599C159.815 55.4729 160.29 50.802 161.09 46.1816C160.597 50.8236 160.428 55.4944 160.585 60.1599L159.668 60.1599Z" fill="#263238"/>
<path d="M130.024 85.906C128.89 82.549 129.047 78.8899 130.464 75.6424C132.581 77.6558 134.234 80.1067 135.307 82.8242C136.382 85.5191 137.001 88.3738 137.141 91.2717C137.33 92.8336 137.096 94.4175 136.463 95.8577C134.041 93.2345 131.069 89.2905 130.024 85.906Z" fill="#6BAC4F"/>
<path d="M136.545 95.9128C135.515 91.9262 134.194 88.0207 132.592 84.2275C134.477 87.9123 136.092 91.7287 137.426 95.6468L136.509 95.9128L136.545 95.9128Z" fill="#263238"/>
<path d="M176.444 90.6113C177.934 86.6641 177.908 82.3047 176.371 78.3757C173.754 80.6731 171.672 83.5158 170.271 86.7039C168.889 89.87 168.033 93.2409 167.74 96.6832C167.443 98.5387 167.652 100.44 168.345 102.186C171.317 99.1597 175.041 94.5461 176.444 90.6113Z" fill="#6BAC4F"/>
<path d="M167.263 101.911C169.004 97.2963 171.073 92.812 173.454 88.4925C171.347 92.9426 169.569 97.5409 168.134 102.251L167.217 101.957L167.263 101.911Z" fill="#263238"/>
<path d="M174.894 71.1022C176.799 66.0991 176.769 60.5655 174.811 55.5829C171.497 58.5054 168.859 62.114 167.079 66.1584C165.327 70.1715 164.243 74.4439 163.869 78.8067C163.498 81.1454 163.764 83.5408 164.639 85.7409C168.4 81.9528 173.114 76.0918 174.894 71.1022Z" fill="#6BAC4F"/>
<path d="M163.374 85.4657C165.535 79.6054 168.119 73.9098 171.106 68.424C168.398 74.0301 166.105 79.8271 164.245 85.7684L163.374 85.4657Z" fill="#263238"/>
<path d="M133.674 111.221C134.714 100.333 137.589 89.6989 142.177 79.7698C138.189 89.8454 135.932 100.522 135.5 111.349L133.665 111.221L133.674 111.221Z" fill="#263238"/>
<path d="M159.613 71.304C156.348 63.2142 147.24 60.2333 141.526 54.2531C147.57 60.0957 156.871 62.7923 160.466 70.9555L159.613 71.304Z" fill="#263238"/>
<path d="M168.638 50.2907C175.815 46.5432 183.884 44.8394 191.963 45.3652C183.97 45.1582 176.072 47.1405 169.125 51.0978L168.684 50.2907L168.638 50.2907Z" fill="#263238"/>
<path d="M176.196 28.9655C176.597 23.3094 174.888 17.7053 171.399 13.2354C168.918 17.1674 167.336 21.5993 166.767 26.2139C166.209 30.8012 166.408 35.449 167.354 39.9721C167.84 42.4118 168.556 44.9158 170.234 46.7869C172.894 41.8707 175.912 34.5513 176.196 28.9655Z" fill="#6BAC4F"/>
<path d="M169.996 47.3097C172.143 40.1166 172.521 32.5111 171.097 25.1407C172.823 32.5227 172.745 40.2122 170.867 47.5573L169.95 47.3097L169.996 47.3097Z" fill="#263238"/>
<path d="M61.1597 199.613C58.4393 200.379 56.0895 202.106 54.5466 204.474C56.8421 204.915 59.2046 204.868 61.4808 204.336C63.7466 203.804 65.9137 202.915 67.9012 201.704C69.0217 201.141 69.9716 200.289 70.6529 199.237C67.8279 198.888 63.8563 198.778 61.1597 199.613Z" fill="#6BAC4F"/>
<path d="M70.8912 199.503C67.1349 199.685 63.4715 200.734 60.1874 202.566C63.3977 200.426 67.0625 199.063 70.8912 198.585L70.9738 199.503L70.8912 199.503Z" fill="#263238"/>
<path d="M59.7012 207.317C47.3185 206.593 34.9007 206.721 22.5358 207.703C34.8947 206.411 47.3281 205.976 59.747 206.4L59.747 207.317L59.7012 207.317Z" fill="#263238"/>
<path d="M73.9364 209.317C67.9453 210.19 62.3488 212.824 57.8577 216.884C62.2099 212.546 67.7513 209.596 73.7804 208.409L73.9364 209.326L73.9364 209.317Z" fill="#263238"/>
<path d="M110.964 198.329C109.809 194.706 110.041 190.783 111.616 187.322C113.865 189.522 115.603 192.19 116.706 195.137C117.818 198.056 118.438 201.14 118.54 204.263C118.713 205.939 118.431 207.631 117.724 209.161C115.165 206.29 112.037 201.952 110.964 198.329Z" fill="#6BAC4F"/>
<path d="M108.304 207.024C106.119 205.564 104.548 203.35 103.893 200.805C106.059 201.072 108.143 201.794 110.01 202.924C111.863 204.041 113.521 205.454 114.917 207.106C115.735 207.927 116.315 208.954 116.596 210.078C114 209.592 110.441 208.528 108.304 207.024Z" fill="#6BAC4F"/>
<path d="M120.466 200.273C121.217 197.015 122.844 194.024 125.172 191.624C125.47 194.38 125.334 197.165 124.768 199.879C124.193 202.659 123.3 205.364 122.108 207.941C121.582 209.315 120.776 210.564 119.742 211.61C119.446 207.816 119.69 203.999 120.466 200.273Z" fill="#6BAC4F"/>
<path d="M197.466 188.138C198.219 184.878 199.846 181.885 202.172 179.48C202.479 182.251 202.342 185.053 201.768 187.781C201.191 190.561 200.299 193.266 199.108 195.843C198.58 197.216 197.774 198.464 196.742 199.512C196.451 195.705 196.695 191.877 197.466 188.138Z" fill="#6BAC4F"/>
<path d="M192.458 196.237C192.19 194.229 192.469 192.185 193.266 190.321C194.037 191.824 194.563 193.44 194.825 195.109C195.098 196.81 195.175 198.536 195.054 200.255C195.044 201.143 194.854 202.02 194.495 202.832C193.51 200.74 192.824 198.52 192.458 196.237Z" fill="#6BAC4F"/>
<path d="M121.338 214.563C117.396 209.955 114.957 204.252 114.349 198.219C115.239 204.124 117.918 209.614 122.026 213.949L121.338 214.563Z" fill="#263238"/>
<path d="M110.148 223.139C108.358 224.71 107.095 226.794 106.532 229.109C105.969 231.423 106.133 233.854 107.002 236.072C107.112 236.435 107.358 236.741 107.69 236.925C108.304 237.182 108.946 236.604 109.322 236.063C111.597 232.807 111.249 226.872 110.148 223.139Z" fill="#6BAC4F"/>
<path d="M64.379 148.616C60.2912 153.548 54.7135 157.021 48.4838 158.512C54.5431 156.759 59.8698 153.087 63.6636 148.047L64.379 148.616Z" fill="#263238"/>
<path d="M74.6519 162.814C75.0738 157.604 73.7347 152.725 71.2582 150.092C69.9221 153.558 69.2982 157.258 69.4238 160.971C69.598 164.364 71.2582 169.446 72.8358 171.454C73.6124 168.613 74.2188 165.728 74.6519 162.814Z" fill="#6BAC4F"/>
<path d="M85.5666 81.8336C80.3477 81.6776 75.5323 83.2369 73.0375 85.8876C76.5837 87.0462 80.3274 87.4767 84.044 87.1534C87.4285 86.7957 92.409 84.8879 94.3351 83.2002C91.4421 82.5704 88.5141 82.114 85.5666 81.8336Z" fill="#6BAC4F"/>
<path d="M137.563 67.9745C137.105 62.7739 134.995 58.1787 132.06 56.0508C131.32 59.6824 131.32 63.4257 132.06 67.0573C132.803 70.3776 135.289 75.1013 137.196 76.8164C137.49 73.8787 137.612 70.9265 137.563 67.9745Z" fill="#6BAC4F"/>
<path d="M129.418 125.869C131.996 121.329 132.867 116.357 131.693 112.909C129.023 115.489 126.899 118.58 125.447 121.998C124.181 125.153 123.539 130.455 124.135 132.95C126.031 130.693 127.795 128.329 129.418 125.869Z" fill="#6BAC4F"/>
<path d="M133.959 154.862C136.536 150.276 137.407 145.35 136.233 141.902C133.563 144.482 131.439 147.573 129.987 150.991C128.721 154.147 128.079 159.448 128.676 161.943C130.573 159.687 132.337 157.323 133.959 154.862Z" fill="#6BAC4F"/>
<path d="M149.625 146.653C152.202 142.113 153.073 137.141 151.899 133.693C149.229 136.273 147.105 139.364 145.653 142.782C144.378 145.937 143.745 151.239 144.332 153.734C146.236 151.481 148.003 149.116 149.625 146.653Z" fill="#6BAC4F"/>
<path d="M187.827 199.548C185.754 194.751 182.323 191.064 178.838 189.927C179.294 193.613 180.489 197.169 182.351 200.383C184.103 203.3 187.955 206.996 190.303 208.023C189.649 205.151 188.822 202.321 187.827 199.548Z" fill="#6BAC4F"/>
<path d="M143.599 206.033C146.176 201.493 147.057 196.522 145.883 193.073C143.204 195.647 141.079 198.74 139.636 202.163C138.361 205.318 137.719 210.619 138.316 213.105C140.216 210.855 141.98 208.494 143.599 206.033Z" fill="#6BAC4F"/>
<path d="M81.5584 124.007C82.9159 118.357 82.9984 112.313 81.2374 107.497C78.5369 111.36 76.4859 115.639 75.1654 120.164C73.8152 124.746 73.0146 129.472 72.7807 134.243C72.6431 136.775 72.6615 139.398 73.5145 141.489C76.4862 136.747 80.2101 129.648 81.5584 124.007Z" fill="#6BAC4F"/>
<path d="M73.276 142.599C73.4401 135.409 75.3274 128.363 78.7793 122.053C75.6298 128.437 74.0572 135.482 74.1932 142.599L73.276 142.599Z" fill="#263238"/>
<path d="M103.535 131.088C105.369 126.685 105.92 121.842 104.553 117.807C101.633 120.54 99.2394 123.785 97.4905 127.382C95.7895 130.88 94.6032 134.606 93.9684 138.444C93.629 140.462 93.4272 142.571 94.1151 144.323C97.4905 140.81 101.737 135.481 103.535 131.088Z" fill="#6BAC4F"/>
<path d="M93.8215 145.24C94.6289 139.352 97.1087 133.82 100.967 129.299C97.4067 133.924 95.2456 139.472 94.7387 145.286L93.8215 145.194L93.8215 145.24Z" fill="#263238"/>
<path d="M83.6038 143.773C81.259 142.454 79.4438 140.364 78.4674 137.857C80.8097 138.166 83.0775 138.893 85.1631 140.003C87.1753 141.087 89.0274 142.446 90.6663 144.039C91.5642 144.793 92.2528 145.766 92.6659 146.864C89.5017 146.315 86.4436 145.272 83.6038 143.773Z" fill="#6BAC4F"/>
<path d="M92.6108 147.653C90.3859 145.029 87.4683 143.084 84.1908 142.039C87.631 142.818 90.7835 144.547 93.2895 147.029L92.6108 147.653Z" fill="#263238"/>
<path d="M282.373 131.556C292.033 130.603 301.635 129.131 311.136 127.144C301.685 129.431 292.117 131.207 282.474 132.464L282.373 131.546L282.373 131.556Z" fill="#263238"/>
<path d="M296.69 155.669C299.295 159.035 302.872 161.548 306.78 162.09C306.084 158.511 304.691 155.105 302.68 152.064C300.748 149.168 298.363 146.601 295.617 144.461C294.289 143.241 292.635 142.432 290.857 142.131C291.939 146.433 294.086 152.294 296.69 155.669Z" fill="#6BAC4F"/>
<path d="M291.591 141.278C294.61 145.335 297.347 149.595 299.781 154.027C297.095 149.768 294.119 145.698 290.875 141.847L291.591 141.278Z" fill="#263238"/>
<path d="M246.721 232.559C251.013 236.063 256.278 238.191 261.396 237.695C259.462 233.369 256.695 229.467 253.251 226.212C249.955 223.094 246.176 220.529 242.061 218.617C239.897 217.599 237.585 216.783 235.329 217.067C238.026 222.286 242.41 229.046 246.721 232.559Z" fill="#6BAC4F"/>
<path d="M235.934 215.93C240.977 220.148 245.727 224.705 250.151 229.569C245.524 224.931 240.584 220.616 235.366 216.654L235.934 215.93Z" fill="#263238"/>
<path d="M311.595 219.223C317.575 219.03 323.308 217.159 326.986 213.417C322.255 211.423 317.202 210.304 312.072 210.115C307.212 209.949 302.354 210.515 297.662 211.793C295.204 212.454 292.746 213.334 291.196 215.068C297.121 217.168 305.624 219.406 311.595 219.223Z" fill="#6BAC4F"/>
<path d="M290.829 213.784C297.935 213.639 305.042 213.945 312.109 214.701C305.038 214.247 297.946 214.247 290.875 214.701L290.875 213.784L290.829 213.784Z" fill="#263238"/>
<path d="M295.48 228.954C299.369 232.21 304.056 234.265 308.495 233.971C306.627 230.038 304.06 226.476 300.919 223.46C297.931 220.608 294.529 218.224 290.829 216.388C288.903 215.416 286.849 214.554 284.895 214.811C287.472 219.479 291.591 225.698 295.48 228.954Z" fill="#6BAC4F"/>
<path d="M285.436 213.738C290.007 217.673 294.324 221.894 298.36 226.377C294.119 222.121 289.612 218.139 284.867 214.453L285.445 213.747L285.436 213.738Z" fill="#263238"/>
<path d="M231.605 155.045C232.669 150.083 235.1 145.58 238.787 143.122C239.733 147.37 239.898 151.756 239.273 156.064C238.675 160.148 237.463 164.119 235.677 167.841C234.76 169.794 233.641 171.711 231.963 172.738C231.11 167.437 230.541 160.008 231.605 155.045Z" fill="#6BAC4F"/>
<path d="M232.146 173.014C233.623 167.189 234.726 161.276 235.448 155.311C235.027 161.324 234.225 167.304 233.045 173.215L232.128 173.014L232.146 173.014Z" fill="#263238"/>
<path d="M218.654 167.171C219.406 163.676 221.112 160.503 223.708 158.742C224.376 161.735 224.494 164.824 224.056 167.859C223.629 170.721 222.776 173.504 221.525 176.114C220.997 177.49 220.087 178.686 218.902 179.562C218.305 175.894 217.902 170.656 218.654 167.171Z" fill="#6BAC4F"/>
<path d="M218.902 179.792C219.983 175.702 220.804 171.548 221.36 167.354C221.11 171.596 220.589 175.818 219.801 179.994L218.883 179.792L218.902 179.792Z" fill="#263238"/>
<path d="M280.281 177.526C284.4 174.931 289.114 173.591 293.297 174.435C291.015 177.932 288.119 180.987 284.748 183.451C281.544 185.775 278.011 187.605 274.265 188.881C272.311 189.551 270.256 190.074 268.422 189.615C271.458 185.497 276.172 180.094 280.281 177.526Z" fill="#6BAC4F"/>
<path d="M268.321 189.936C273.309 187.048 278.106 183.844 282.684 180.342C278.284 184.092 273.649 187.557 268.807 190.716L268.321 189.936Z" fill="#263238"/>
<path d="M179.021 160.686C180.791 156.155 183.791 152.275 187.661 150.478C187.903 154.646 187.384 158.823 186.13 162.805C184.945 166.572 183.201 170.14 180.956 173.39C179.782 175.096 178.434 176.737 176.691 177.453C176.655 172.344 177.288 165.217 179.021 160.686Z" fill="#6BAC4F"/>
<path d="M176.765 177.774C179.059 172.488 181.017 167.063 182.626 161.53C181.305 167.158 179.63 172.697 177.609 178.113L176.765 177.774Z" fill="#263238"/>
<path d="M258.002 222.589C262.038 223.955 266.404 224.065 269.926 222.332C267.367 219.739 264.322 217.676 260.965 216.26C257.754 214.916 254.347 214.099 250.876 213.839C249.093 213.565 247.269 213.806 245.62 214.536C248.922 217.507 253.93 221.222 258.002 222.589Z" fill="#6BAC4F"/>
<path d="M245.739 213.435C250.503 215.146 255.143 217.184 259.626 219.535C255.028 217.474 250.293 215.733 245.455 214.325L245.739 213.453L245.739 213.435Z" fill="#263238"/>
<path d="M65.9566 195.357C66.5684 195.975 67.2346 196.537 67.947 197.035C72.533 199.961 87.9055 209.482 94.5461 210.729C102.443 212.215 131.326 226.762 138.013 231.825C144.699 236.888 158.081 257.36 157.779 260.919C157.476 264.478 157.779 282.593 157.779 282.593C157.779 282.593 150.441 303.083 146.827 304.863C143.213 306.642 122.805 325.647 122.805 325.647C122.805 325.647 99.0955 324.161 97.8756 325.647C96.6557 327.133 83.2827 338.112 83.2827 338.112L235.338 338.112L207.978 325.647L195.815 286.142L183.956 263.873L186.707 249.922L197.035 234.21L220.745 221.745L247.803 213.729L291.481 215.187L298.268 213.435C298.268 213.435 249.931 211.647 250.848 211.06C251.765 210.473 280.401 194.311 280.401 194.311L256.452 204.401L235.356 212.527C235.356 212.527 256.636 189.67 261.506 178.095C261.506 178.095 238.402 208.675 227.753 214.903L190.367 226.487L189.753 223.222L205.263 200.658L231.403 195.614L230.798 193.532C230.798 193.532 210.427 195.907 209.519 195.907C208.611 195.907 217.425 186.111 229.881 178.095C242.336 170.079 267.129 155.935 265.918 155.935L256.938 159.687C256.938 159.687 217.728 173.344 196.751 200.356L182.461 219.617L180.039 194.999L182.47 182.525L228.652 143.635L235.943 140.077L282.767 133.243C282.767 133.243 302.221 123.448 302.826 122.558L312.182 107.809C312.182 107.809 299.79 122.31 299.79 121.962C299.79 121.613 281.547 130.281 281.547 130.281L237.466 134.133C237.466 134.133 256.92 114.248 257.232 114.541C257.544 114.835 270.302 71.4967 270.302 71.4967L265.34 82.8701C265.34 82.8701 256.021 111.854 254.499 111.854C252.976 111.854 199.172 156.981 199.172 156.981L176.976 175.389L170.867 183.415L161.447 146.901C161.447 146.901 168.758 121.393 169.363 121.393C169.968 121.393 196.733 100.902 197.338 100.902C197.943 100.902 194.586 98.2334 194.293 98.5269C193.999 98.8204 171.188 113.377 171.188 113.377C171.188 113.377 162.374 65.278 161.466 65.5715C160.558 65.865 157.797 66.4887 157.797 66.7638C157.797 67.039 166.309 105.654 164.786 115.449C163.264 125.245 153.862 142.489 153.862 142.489L153.559 162.374L161.814 184.937L140.838 153.468L136.582 108.937C136.582 108.937 120.164 85.1906 120.466 84.8879C120.769 84.5853 117.119 85.8051 117.119 85.8051L132.326 108.965L135.078 161.246L158.485 201.915C158.485 201.915 127.758 163.227 126.841 163.53C125.924 163.832 118.329 145.415 118.329 145.415L120.76 120.182L118.329 119.586L113.468 148.68L117.669 164.126L104.901 155.807C104.901 155.807 89.3914 144.232 90.3086 125.227L88.1807 125.227C88.1807 125.227 87.5661 146.011 97.6004 155.211C97.6004 155.211 73.4044 142.37 66.5895 133.197C58.197 121.962 55.4545 112.276 55.4545 112.276L52.9506 104.846C52.9506 104.846 54.785 133.197 72.9733 144.782C91.1616 156.366 122.503 173.876 122.833 174.133C123.163 174.389 159.017 215.104 159.017 215.104L161.145 231.724L149.285 220.149L108.24 208.867C108.24 208.867 94.5644 192.238 88.1807 181.259L94.7387 196.347L103.691 209.243C103.691 209.243 74.2024 197.962 67.2132 192.624" fill="#263238"/>
<path opacity="0.3" d="M161.163 231.807C161.952 232.027 169.739 249.124 169.739 249.124L163.759 221.883L159.035 215.187L161.163 231.807Z" fill="black"/>
<path opacity="0.3" d="M158.421 201.823C158.421 201.823 173.527 214.297 173.426 214.261C173.325 214.224 184.882 228.276 184.882 228.276L186.717 249.922L186.717 228.276L182.461 219.635L174.876 212.197L158.421 201.823Z" fill="black"/>
<path opacity="0.3" d="M157.815 260.91L177.462 288.105L183.479 318.336L207.978 325.628L186.698 314.668L179.764 287.573L157.815 260.91Z" fill="black"/>
<path opacity="0.3" d="M147.864 304.01L157.815 324.023L172.555 338.093L156.256 325.628L147.864 304.01Z" fill="black"/>
<path opacity="0.3" d="M183.956 263.872L173.5 253.004L184.543 260.91L183.956 263.872Z" fill="black"/>
<path opacity="0.3" d="M122.851 325.628L116.587 335.488L111.606 338.093L118.357 338.093C118.513 338.093 122.851 325.628 122.851 325.628Z" fill="black"/>
<path opacity="0.3" d="M161.769 184.901L175.252 193.853L180.012 194.999C180.012 194.999 174.38 195.916 174.444 195.916C174.509 195.916 161.769 184.901 161.769 184.901Z" fill="black"/>
</svg>
