<svg width="187" height="66" viewBox="0 0 187 66" fill="none" xmlns="http://www.w3.org/2000/svg">
<path d="M34.2482 54.9528C34.2482 61.054 39.1942 66 45.2954 66H265.384C271.486 66 276.432 61.054 276.432 54.9528C276.432 48.8516 281.378 43.9056 287.479 43.9056H314.86C320.883 43.9056 325.765 39.023 325.765 33C325.765 26.977 330.648 22.0944 336.671 22.0944H358.344C364.445 22.0944 369.391 17.1484 369.391 11.0472C369.391 4.946 364.445 -7.45058e-07 358.344 -7.45058e-07H138.255C132.154 -7.45058e-07 127.208 4.946 127.208 11.0472C127.208 17.1484 122.261 22.0944 116.16 22.0944H94.4874C88.4644 22.0944 83.5819 26.977 83.5819 33C83.5819 39.023 78.6993 43.9056 72.6763 43.9056H45.2954C39.1942 43.9056 34.2482 48.8516 34.2482 54.9528Z" fill="#FFEBB1"/>
<path d="M347.374 54.9528C347.374 61.054 352.32 66 358.422 66H379.953C386.054 66 391 61.054 391 54.9528C391 48.8516 386.054 43.9056 379.953 43.9056H358.422C352.32 43.9056 347.374 48.8516 347.374 54.9528Z" fill="#FFEBB1"/>
<path d="M76.6507 11.0472C76.6507 17.1484 71.7047 22.0944 65.6035 22.0944H11.0472C4.94601 22.0944 0 17.1484 0 11.0472C0 4.946 4.94601 -7.45058e-07 11.0472 -7.45058e-07H65.6035C71.7047 -7.45058e-07 76.6507 4.946 76.6507 11.0472Z" fill="#FFEBB1"/>
</svg>
