<svg width="159" height="66" viewBox="0 0 159 66" fill="none" xmlns="http://www.w3.org/2000/svg">
<path d="M-197.752 54.9528C-197.752 61.054 -192.806 66 -186.705 66H33.3845C39.4857 66 44.4317 61.054 44.4317 54.9528C44.4317 48.8516 49.3777 43.9056 55.4789 43.9056H82.8598C88.8828 43.9056 93.7654 39.023 93.7654 33C93.7654 26.977 98.648 22.0944 104.671 22.0944H126.344C132.445 22.0944 137.391 17.1484 137.391 11.0472C137.391 4.946 132.445 -7.45058e-07 126.344 -7.45058e-07H-93.7453C-99.8465 -7.45058e-07 -104.792 4.946 -104.792 11.0472C-104.792 17.1484 -109.739 22.0944 -115.84 22.0944H-137.513C-143.536 22.0944 -148.418 26.977 -148.418 33C-148.418 39.023 -153.301 43.9056 -159.324 43.9056H-186.705C-192.806 43.9056 -197.752 48.8516 -197.752 54.9528Z" fill="white"/>
<path d="M115.374 54.9528C115.374 61.054 120.32 66 126.422 66H147.953C154.054 66 159 61.054 159 54.9528C159 48.8516 154.054 43.9056 147.953 43.9056H126.422C120.32 43.9056 115.374 48.8516 115.374 54.9528Z" fill="white"/>
<path d="M-155.349 11.0472C-155.349 17.1484 -160.295 22.0944 -166.397 22.0944H-220.953C-227.054 22.0944 -232 17.1484 -232 11.0472C-232 4.946 -227.054 -7.45058e-07 -220.953 -7.45058e-07H-166.397C-160.295 -7.45058e-07 -155.349 4.946 -155.349 11.0472Z" fill="white"/>
</svg>
