<svg width="310" height="55" viewBox="0 0 310 55" fill="none" xmlns="http://www.w3.org/2000/svg">
<path d="M0 13.75C0 6.15609 6.15608 0 13.75 0H148.51C156.104 0 162.26 6.15609 162.26 13.75C162.26 21.3439 168.416 27.5 176.01 27.5H249.276C256.87 27.5 263.026 33.6561 263.026 41.25C263.026 48.8439 256.87 55 249.276 55H95.037C87.4431 55 81.287 48.8439 81.287 41.25C81.287 33.6561 75.131 27.5 67.5371 27.5H13.75C6.15608 27.5 0 21.3439 0 13.75Z" fill="#FADF8F"/>
<path d="M282.381 13.75C282.381 6.15609 288.597 0 296.191 0C303.785 0 310 6.15609 310 13.75C310 21.3439 303.785 27.5 296.191 27.5C288.597 27.5 282.381 21.3439 282.381 13.75Z" fill="#FADF8F"/>
</svg>
