<svg width="33" height="33" viewBox="0 0 33 33" fill="none" xmlns="http://www.w3.org/2000/svg">
<path d="M32.9997 12.5714H31.4219V20.4295H32.9997V12.5714Z" fill="black"/>
<path d="M31.422 20.4283H29.8545V23.5736H31.422V20.4283Z" fill="black"/>
<path d="M31.422 9.42434H29.8545V12.5696H31.422V9.42434Z" fill="black"/>
<path d="M29.8541 23.5755H28.2866V26.7105H29.8541V23.5755Z" fill="black"/>
<path d="M29.8541 6.27984H28.2866V9.42513H29.8541V6.27984Z" fill="black"/>
<path d="M28.2878 26.7082H26.71V28.286H28.2878V26.7082Z" fill="black"/>
<path d="M28.2878 4.71257H26.71V6.28006H28.2878V4.71257Z" fill="black"/>
<path d="M26.7093 28.2872H23.564V29.8547H26.7093V28.2872Z" fill="black"/>
<path d="M25.1423 11.0021H23.5645V9.42434H18.8517V11.0021H17.2842V12.5696H15.7064V11.0021H14.1389V9.42434H9.42607V11.0021H7.85857V12.5696H6.28076V17.2824H7.85857V18.8602H9.42607V20.4277H10.9936V21.9952H12.5714V23.573H14.1389V25.1405H15.7064V26.708H17.2842V25.1405H18.8517V23.573H20.4295V21.9952H21.997V20.4277H23.5645V18.8602H25.1423V17.2824H26.7098V12.5696H25.1423V11.0021ZM23.5645 17.2824H21.997V14.1371H18.8517V12.5696H21.997V14.1371H23.5645V17.2824Z" fill="black"/>
<path d="M26.7093 3.14433H23.564V4.71182H26.7093V3.14433Z" fill="black"/>
<path d="M23.5642 29.8554H20.4292V31.4332H23.5642V29.8554Z" fill="black"/>
<path d="M23.5642 1.56835H20.4292V3.14616H23.5642V1.56835Z" fill="black"/>
<path d="M20.4289 31.4315H12.5708V32.999H20.4289V31.4315Z" fill="black"/>
<path d="M20.4289 0H12.5708V1.56749H20.4289V0Z" fill="black"/>
<path d="M12.5711 29.8554H9.42578V31.4332H12.5711V29.8554Z" fill="black"/>
<path d="M12.5706 1.56835H9.42529V3.14616H12.5706V1.56835Z" fill="black"/>
<path d="M9.42607 28.2872H6.28076V29.8547H9.42607V28.2872Z" fill="black"/>
<path d="M9.42607 3.14433H6.28076V4.71182H9.42607V3.14433Z" fill="black"/>
<path d="M6.28088 26.7082H4.71338V28.286H6.28088V26.7082Z" fill="black"/>
<path d="M6.28088 4.71257H4.71338V6.28006H6.28088V4.71257Z" fill="black"/>
<path d="M4.71258 23.5755H3.13477V26.7105H4.71258V23.5755Z" fill="black"/>
<path d="M4.71307 6.27984H3.13525V9.42513H4.71307V6.27984Z" fill="black"/>
<path d="M3.13537 20.4283H1.56787V23.5736H3.13537V20.4283Z" fill="black"/>
<path d="M3.13537 9.42434H1.56787V12.5696H3.13537V9.42434Z" fill="black"/>
<path d="M1.5675 12.5714H0V20.4295H1.5675V12.5714Z" fill="black"/>
</svg>
